<?xml version="1.0" encoding="utf-8"?>
<!-- Generator: Adobe Illustrator 25.0.1, SVG Export Plug-In . SVG Version: 6.00 Build 0)  -->
<svg version="1.1" id="Layer_1" xmlns="http://www.w3.org/2000/svg" xmlns:xlink="http://www.w3.org/1999/xlink" x="0px" y="0px"
	 viewBox="0 0 3000 2000" style="enable-background:new 0 0 3000 2000;" xml:space="preserve">
<style type="text/css">
	.st0{fill:#FFFFFF;}
	.st1{fill:#FFD7E4;}
	.st2{fill:#DB264C;}
	.st3{fill:#931130;}
	.st4{fill:#D57912;}
	.st5{fill:#B65615;}
	.st6{fill:#7A0828;}
	.st7{fill:#D36E2A;}
	.st8{fill:#F59040;}
	.st9{fill:#D8940E;}
	.st10{fill:#FFB607;}
	.st11{fill:#DCE7F9;}
	.st12{fill:#D15050;}
	.st13{fill:#A03C37;}
	.st14{fill:#B64C41;}
	.st15{fill:#2B478B;}
	.st16{fill:#233862;}
	.st17{fill:#FFB27D;}
	.st18{fill:#9B072A;}
	.st19{fill:#E69D43;}
	.st20{fill:#C11E45;}
	.st21{fill:#ED985F;}
	.st22{fill:#ED7D2B;}
	.st23{fill:#F99746;}
	.st24{fill:#D3671E;}
	.st25{fill:#F1A34F;}
	.st26{fill:#E78B37;}
	.st27{opacity:0.4;fill:#D86713;}
	.st28{fill:#ED975D;}
	.st29{fill:#1C4575;}
</style>
<rect class="st0" width="3000" height="2000"/>
<g>
	<path class="st1" d="M2002.5,794c-114.9,46.2-224.9-13.7-354.6-101.7c-12.4-7.4-25.7-16.5-40.1-27.5
		c-27.8-19.2-56.5-39.3-86.4-59.6c-329.5-205.6-886.5-334.3-1169.9,77c-265.5,385.3-98.5,770.8-45,873.6
		c9.2,17.1,14.7,26.5,14.7,26.5l2456.7,0.7C2900.3,628.4,2320,666.2,2002.5,794z"/>
	<g>
		<path class="st2" d="M1028.3,617.1c0-55.7,17.9-112.2,53.7-169.3c35.8-57.2,88-104.5,156.6-142.1c68.6-37.5,148.7-56.3,240.1-56.3
			c85,0,160.1,15.7,225.2,47.1c65.1,31.4,115.4,74,150.9,128c35.5,54,53.2,112.6,53.2,175.9c0,49.9-10.1,93.5-30.3,131.1
			c-20.2,37.5-44.3,69.9-72.1,97.2c-27.9,27.3-77.8,73.2-150,137.7c-19.9,18.2-35.9,34.2-47.9,47.9c-12,13.8-21,26.4-26.8,37.8
			c-5.9,11.4-10.4,22.9-13.6,34.3c-3.2,11.4-8.1,31.5-14.5,60.3c-11.1,61-46,91.5-104.7,91.5c-30.5,0-56.2-10-77-29.9
			c-20.8-19.9-31.2-49.5-31.2-88.8c0-49.3,7.6-91.9,22.9-128c15.2-36.1,35.5-67.7,60.7-95c25.2-27.3,59.2-59.7,102-97.2
			c37.5-32.8,64.7-57.6,81.4-74.3c16.7-16.7,30.8-35.3,42.2-55.9c11.4-20.5,17.2-42.8,17.2-66.9c0-46.9-17.5-86.5-52.3-118.8
			c-34.9-32.2-79.9-48.4-135-48.4c-64.5,0-112,16.3-142.5,48.8c-30.5,32.5-56.3,80.5-77.4,143.8c-19.9,66.3-57.8,99.4-113.5,99.4
			c-32.8,0-60.6-11.6-83.1-34.7C1039.5,669.1,1028.3,644.1,1028.3,617.1z M1457.5,1581.2c-35.8,0-67-11.6-93.7-34.7
			c-26.7-23.2-40-55.6-40-97.2c0-36.9,12.9-68,38.7-93.2c25.8-25.2,57.5-37.8,95-37.8c36.9,0,68,12.6,93.2,37.8
			c25.2,25.2,37.8,56.3,37.8,93.2c0,41.1-13.2,73.3-39.6,96.8C1522.6,1569.4,1492.1,1581.2,1457.5,1581.2z"/>
	</g>
	<g>
		<g>
			<polygon class="st2" points="1349.7,1202.3 1002.8,1202.3 1002.8,1496 1391.4,1496 			"/>
			<polygon class="st3" points="1334.5,1212.4 941.4,1212.4 941.4,1496 1375.3,1496 			"/>
			<g>
				<g>
					<g>
						<g>
							
								<rect x="1164.9" y="1441.8" transform="matrix(-1 -1.224647e-16 1.224647e-16 -1 2383.3511 2937.8389)" class="st2" width="53.5" height="54.2"/>
							
								<rect x="1216.2" y="1441.8" transform="matrix(-1 -1.224647e-16 1.224647e-16 -1 2464.707 2937.8389)" class="st3" width="32.4" height="54.2"/>
						</g>
					</g>
				</g>
			</g>
			<g>
				<g>
					<g>
						<g>
							
								<rect x="1162.1" y="1373.7" transform="matrix(-1 -1.224647e-16 1.224647e-16 -1 2412.8643 2816.291)" class="st3" width="88.6" height="68.8"/>
							
								<rect x="1248.5" y="1389.1" transform="matrix(-1 -1.224647e-16 1.224647e-16 -1 2521.5312 2831.6729)" class="st4" width="24.5" height="53.5"/>
						</g>
					</g>
				</g>
			</g>
			<path class="st5" d="M789.1,1516.5H674.9c-2.8,0-5-2.3-5-5v-45c0-2.8,2.3-5,5-5h114.1c2.8,0,5,2.3,5,5v45
				C794.1,1514.2,791.8,1516.5,789.1,1516.5z"/>
			<path class="st6" d="M1109,1534.7c0-27.5,22.3-49.8,49.8-49.8s49.8,22.3,49.8,49.8c0,27.5-22.3,49.8-49.8,49.8
				S1109,1562.2,1109,1534.7z"/>
			<path class="st6" d="M1276.5,1534.7c0-27.5,22.3-49.8,49.8-49.8s49.8,22.3,49.8,49.8c0,27.5-22.3,49.8-49.8,49.8
				S1276.5,1562.2,1276.5,1534.7z"/>
			<path class="st6" d="M686.8,1534.7c0-27.5,22.3-49.8,49.8-49.8c27.5,0,49.8,22.3,49.8,49.8c0,27.5-22.3,49.8-49.8,49.8
				C709.1,1584.5,686.8,1562.2,686.8,1534.7z"/>
			<path class="st7" d="M711.5,1534.7c0-13.9,11.3-25.1,25.1-25.1c13.9,0,25.1,11.3,25.1,25.1s-11.3,25.1-25.1,25.1
				C722.8,1559.9,711.5,1548.6,711.5,1534.7z"/>
			<path class="st8" d="M711.5,1534.7c0-13.9,11.3-25.1,25.1-25.1c13.9,0,25.1,11.3,25.1,25.1s-11.3,25.1-25.1,25.1
				C722.8,1559.9,711.5,1548.6,711.5,1534.7z"/>
			<path class="st7" d="M753.4,1516c1.4,3.1,2.2,6.6,2.2,10.3c0,13.9-11.3,25.1-25.1,25.1c-6.4,0-12.3-2.4-16.7-6.4
				c3.9,8.7,12.7,14.8,22.9,14.8c13.9,0,25.1-11.3,25.1-25.1C761.8,1527.3,758.5,1520.6,753.4,1516z"/>
			<circle class="st5" cx="736.6" cy="1534.7" r="7.8"/>
			<path class="st5" d="M720.4,1548.1c0-1.7,1.4-3,3-3c1.7,0,3,1.3,3,3s-1.4,3-3,3C721.7,1551.1,720.4,1549.7,720.4,1548.1z"/>
			<circle class="st5" cx="719.9" cy="1525.7" r="3"/>
			<path class="st5" d="M750,1525.7c0-1.7,1.4-3,3-3c1.7,0,3,1.4,3,3s-1.4,3-3,3C751.4,1528.7,750,1527.3,750,1525.7z"/>
			<path class="st5" d="M747.5,1548.1c0-1.7,1.4-3,3-3c1.7,0,3,1.3,3,3s-1.4,3-3,3C748.9,1551.1,747.5,1549.7,747.5,1548.1z"/>
			<path class="st5" d="M733.6,1515.5c0-1.7,1.4-3,3-3c1.7,0,3,1.4,3,3s-1.4,3-3,3C735,1518.5,733.6,1517.2,733.6,1515.5z"/>
			<path class="st7" d="M1132.7,1534.7c0-13.9,11.3-25.1,25.1-25.1s25.1,11.3,25.1,25.1s-11.3,25.1-25.1,25.1
				S1132.7,1548.6,1132.7,1534.7z"/>
			<path class="st7" d="M1132.7,1534.7c0-13.9,11.3-25.1,25.1-25.1s25.1,11.3,25.1,25.1s-11.3,25.1-25.1,25.1
				S1132.7,1548.6,1132.7,1534.7z"/>
			<circle class="st5" cx="1157.9" cy="1534.7" r="7.8"/>
			<path class="st5" d="M1141.6,1548.1c0-1.7,1.4-3,3-3s3,1.3,3,3s-1.4,3-3,3S1141.6,1549.7,1141.6,1548.1z"/>
			<path class="st5" d="M1140.5,1525.7c0-1.7,1.4-3,3-3c1.7,0,3,1.4,3,3s-1.4,3-3,3C1141.8,1528.7,1140.5,1527.3,1140.5,1525.7z"/>
			<path class="st5" d="M1168.7,1548.1c0-1.7,1.4-3,3-3c1.7,0,3,1.3,3,3s-1.4,3-3,3C1170.1,1551.1,1168.7,1549.7,1168.7,1548.1z"/>
			<circle class="st5" cx="1134.8" cy="1515.5" r="3"/>
			<path class="st6" d="M828.3,1534.7c0-27.5,22.3-49.8,49.8-49.8s49.8,22.3,49.8,49.8c0,27.5-22.3,49.8-49.8,49.8
				S828.3,1562.2,828.3,1534.7z"/>
			<path class="st9" d="M736.1,1265.8c0,0,27-40.8,58.3-41.1l-2.8,44.1L736.1,1265.8z"/>
			<path class="st10" d="M895.3,1452H679l18-146.1c2.9-23.7,23.1-41.6,47-41.6h151.3V1452z"/>
			<path class="st4" d="M769.6,1362.7h-60.6l8-57.7c1.7-11.9,11.8-20.7,23.8-20.7h30.7L769.6,1362.7z"/>
			<path class="st11" d="M765.1,1358.4h-39.9c-6,0-10.7-5.3-9.9-11.3l5.3-39.9c1.4-10.5,10-18.4,20.1-18.4h26L765.1,1358.4z"/>
			<polygon class="st3" points="1189.4,1496 773.5,1496 792,1202.3 1164.9,1202.3 			"/>
			<polygon class="st3" points="1173.2,1484.9 788.7,1484.9 805.9,1213.5 1150.4,1213.5 1168.9,1433.5 			"/>
			<path class="st9" d="M811,1452H679c-11.6,0.8-12.7,6.5-12.7,6.5l-11.3,54.6c0,1.9,1.7,3.4,3.8,3.4H692c2.1,0,3.6-1.5,4.5-3.5
				c0,0,5.1-6.3,8.5-8.6c8.6-5.7,17.9-9.4,31.6-9.4c16.9,0,31.9,5.4,40.9,13.6H811c4,0,7.3-2.1,7.3-4.7v-47.3
				C818.3,1454.1,815,1452,811,1452z"/>
			<path class="st12" d="M1225.9,1559.2h-41.8c-1-5.1-2.8-9.5-5.2-13.5c-12.6-20.3-42.2-26.5-59.1-28.4c-7.4-0.8-12.3-0.8-12.3-0.8
				h71.9c18.8,2.5,30.4,12.8,37.2,22.6C1223.8,1549.4,1225.9,1559.2,1225.9,1559.2z"/>
			<path class="st12" d="M1391.4,1559.2h-41.8c-1.1-5.8-3.3-10.8-6.3-15.1c-19.1-27.5-70.3-27.6-70.3-27.6h71.9
				c15.7,2.1,26.4,9.7,33.5,17.8C1388.6,1546.1,1391.4,1559.2,1391.4,1559.2z"/>
			<path class="st13" d="M1216.6,1539.1c0,0-27.5-5.8-37.8,6.6c-12.6-20.3-42.2-26.5-59.1-28.4c-0.3-0.3-0.7-0.6-1-0.8h60.6
				C1198.1,1519.1,1209.7,1529.3,1216.6,1539.1z"/>
			<path class="st13" d="M1378.4,1534.3C1378.4,1534.3,1378.4,1534.3,1378.4,1534.3c0,0-23-0.5-35,9.8
				c-19.1-27.5-70.3-27.6-70.3-27.6h71.9C1360.6,1518.6,1371.3,1526.2,1378.4,1534.3z"/>
			<path class="st3" d="M782.9,1524.5h613.3c3.1,0,5.6-2.5,5.6-5.6v-17.3c0-3.1-2.5-5.6-5.6-5.6H782.9c-3.1,0-5.6,2.5-5.6,5.6v17.3
				C777.3,1522,779.8,1524.5,782.9,1524.5z"/>
			<path class="st3" d="M922.5,1566.3H809.1c-3,0-5.4-2.4-5.4-5.4v-52.3c0-3,2.4-5.4,5.4-5.4h113.4c3,0,5.4,2.4,5.4,5.4v52.3
				C927.9,1563.8,925.5,1566.3,922.5,1566.3z"/>
			<path class="st2" d="M1173.7,1484.9H789.2l17.1-271.4h67.1c21,62,92.1,209,295.8,220L1173.7,1484.9z"/>
			<g>
				<path class="st14" d="M682.9,1334.5c0,0-5.4,29.1-5.1,33.8c0.3,4.7,4.7,7,8.1,7L682.9,1334.5z"/>
				<path class="st4" d="M699.3,1375.3h-13.1c-1.9,0-3.5-1.6-3.5-3.5v-36.3c0-1.9,1.6-3.5,3.5-3.5h13.1c1.9,0,3.5,1.6,3.5,3.5v36.3
					C702.8,1373.7,701.3,1375.3,699.3,1375.3z"/>
				<path class="st11" d="M698.3,1373.2h-10.4c-1.6,0-3-1.3-3-3v-32.8c0-1.6,1.3-3,3-3h10.4c1.6,0,3,1.3,3,3v32.8
					C701.3,1371.9,700,1373.2,698.3,1373.2z"/>
				<g>
					<path class="st14" d="M692.8,1332.8c-0.4,0-0.7-0.4-0.7-0.8v-12.2c0,0,0-0.1,0-0.1c0-0.1,0.8-7,8.2-6.8c6.7,0.2,9.6,0,9.6,0
						c0.4,0,0.7,0.3,0.7,0.7c0,0.4-0.3,0.8-0.6,0.8c-0.1,0-3,0.2-9.7,0c-5.9-0.2-6.7,4.8-6.8,5.4v12.2
						C693.5,1332.5,693.1,1332.8,692.8,1332.8z"/>
				</g>
			</g>
			<path class="st4" d="M763.9,1381.5h-12.2c-1.7,0-3.1-1.4-3.1-3.1l0,0c0-1.7,1.4-3.1,3.1-3.1h12.2c1.7,0,3.1,1.4,3.1,3.1l0,0
				C767.1,1380.1,765.6,1381.5,763.9,1381.5z"/>
			<g>
				<g>
					<g>
						<g>
							
								<rect x="1253.7" y="1442.6" transform="matrix(-1 -1.224647e-16 1.224647e-16 -1 2560.8032 2938.5811)" class="st2" width="53.5" height="53.5"/>
							
								<rect x="1304.9" y="1442.6" transform="matrix(-1 -1.224647e-16 1.224647e-16 -1 2634.2812 2938.5811)" class="st3" width="24.5" height="53.5"/>
						</g>
					</g>
				</g>
			</g>
		</g>
		<path class="st2" d="M2547.3,1246.8c-65.9,0-119.3,53.4-119.3,119.3c0,65.9,119.3,212.4,119.3,212.4s119.3-146.5,119.3-212.4
			C2666.6,1300.2,2613.2,1246.8,2547.3,1246.8z M2547.3,1420.6c-30.8,0-55.8-25-55.8-55.8c0-30.8,25-55.8,55.8-55.8
			c30.8,0,55.8,25,55.8,55.8C2603.1,1395.7,2578.1,1420.6,2547.3,1420.6z"/>
		<path class="st10" d="M401.7,1396.1c-37.7,0-68.4,30.6-68.4,68.4c0,37.7,68.4,121.7,68.4,121.7s68.4-83.9,68.4-121.7
			C470.1,1426.7,439.5,1396.1,401.7,1396.1z M401.7,1495.7c-17.6,0-31.9-14.3-31.9-31.9c0-17.6,14.3-31.9,31.9-31.9
			c17.6,0,31.9,14.3,31.9,31.9C433.7,1481.4,419.4,1495.7,401.7,1495.7z"/>
		<g>
			<g>
				<g>
					<g>
						<path class="st15" d="M1120.9,1583H1042c0.8-2.8,3.5-7.7,12.2-9.1c12.2-2,33.3-9,38-24.6c0.1-0.5,0.3-1,0.4-1.5
							c3.7-16.6,30.9,5.1,30.9,5.1s0.1,0.7,0.2,1.8C1124.3,1560.7,1125.9,1580.2,1120.9,1583z"/>
						<path class="st15" d="M1057.4,1138.1c0,0,4.1,51.5,9,113.3c6.6,84,14.5,187.3,15.3,206.8c1.4,34,6.8,88.3,6.8,88.3
							s12.9,12.9,38.7,7.5c0,0,23-77.5,29.6-159.6c0.1-1.3,0.2-2.7,0.3-4.1c6.1-83.5,15.6-259.4,15.6-259.4L1057.4,1138.1z"/>
						<path class="st16" d="M1057.4,1138.1c0,0,4.1,51.5,9,113.3l90.4,143c0.1-1.3,0.2-2.7,0.3-4.1c6.1-83.5,15.6-259.4,15.6-259.4
							L1057.4,1138.1z"/>
						<path class="st15" d="M1076.3,1144.2c0,0,74.3,186.4,123.2,274c48.9,87.6,64.2,112,64.2,112s28-11.2,30.6-18.8
							c0,0-18.7-169.1-51.4-210.3c-18.5-23.3-40.2-93.2-41.2-117.6s-6.6-72.8-6.6-72.8L1076.3,1144.2z"/>
					</g>
					<path class="st17" d="M1174.1,857c0,0-50.3,24.6-79.3,15.5c0,0,7.1-9.1,19.6-16c-1-5.9-1.8-11-2.2-15.4
						c-1.2-10-1.2-15.7-1.2-15.7l19.4-15.5l18.4-14.8C1147.3,836.8,1174.1,857,1174.1,857z"/>
					<path class="st2" d="M1200.6,1120.2c0.1,3.1-6.5,6.7-9.4,8c-21.5,9.6-41.6,16.3-64.4,18.5c-26.9,2.8-58.7-3.3-69.6-3.1
						c-1.1,0-2.1-0.4-3-1.2c-0.8-0.6-1.3-33.5-0.8-74.8c0-1.7,0-3.3,0.1-5v-0.6c0.2-16.2,0.8-33.1,1.6-50.1
						c1.6-37.3,4.5-73.2,9.4-93c5.9-23.4,19.3-38.9,31.5-50.2l10-8.9c10,2,20.6,1.5,31.2-3.8c11.6-5.7,24.3-12.1,26.3-10.5
						c15.2,11.3,25.2,36.8,30.7,69.2c3.1,18.6,4.7,39.5,4.6,61.3c0,8-0.2,16.3-0.7,24.4c-2.7,44.2,0,82.5,1.6,104.7
						C1200.2,1111.6,1200.5,1116.6,1200.6,1120.2z"/>
					<path class="st18" d="M1199.7,1105.1c-243.7-0.3-45-181.7-45-181.7l39.5-8.8c3.1,18.6,4.7,39.5,4.6,61.3c0,8-0.2,16.3-0.7,24.4
						C1195.5,1044.5,1198.2,1082.9,1199.7,1105.1z"/>
					<g>
						
							<rect x="899.9" y="952.4" transform="matrix(-1 -1.224647e-16 1.224647e-16 -1 1951.3223 2056.3057)" class="st19" width="151.5" height="151.5"/>
						
							<rect x="1045.1" y="952.4" transform="matrix(-1 -1.224647e-16 1.224647e-16 -1 2159.6211 2056.3057)" class="st4" width="69.4" height="151.5"/>
					</g>
					<path class="st17" d="M1028.7,1030.4l-9-2.9c0,0-6.3-20.9-27.7-11.5c0,0-8.7,4.6-4.8,10c3.8,5.4,3.1,2.6,8.3,10.4
						c5.2,7.8,13.5,11.5,20,8.6l7.5,0.2L1028.7,1030.4z"/>
					<path class="st20" d="M1174.1,856.9c0,0,55.2,87.8-3.6,189.2c-18.4,31.7-157,1.6-157,1.6s-5.4-9.8,9.1-20
						c0,0,92.3-15.6,103.3-18.2c9.8-2.3,3.3-92,14.4-118C1151.5,865.4,1174.1,856.9,1174.1,856.9z"/>
					<path class="st21" d="M1149.1,811c0,0-12.7,23.5-36.9,30.1c-1.2-10-1.2-15.7-1.2-15.7l19.4-15.5L1149.1,811z"/>
					<path class="st17" d="M1102.1,824.8c0,0,48,8,52.5-22c4.5-30,13.7-49.1-16.7-55.5c-30.4-6.4-38.1,4.2-42.1,13.8
						C1091.9,770.7,1089.7,821.9,1102.1,824.8z"/>
					<path class="st16" d="M1154.3,804.8c0,0-1-40.1-44.7-46.6c-29.9-4.4-27.5-26.1-24-30.1c0,0,38.7,0.3,62,6.2
						C1182.7,743.2,1159.5,798.9,1154.3,804.8z"/>
				</g>
			</g>
			<path class="st15" d="M1294.2,1517.7l-2.3-3l-26.4,14.8c-0.2,5.1-0.4,10.9-0.1,16c0.2,3.5,0,7-0.6,10.4
				c-0.6,2.6-3.3,13.8-11.5,16.8c-9.3,3.3-10,10.5,5.8,10.4c2.8,0,5.6,0,8.3,0c9.9,0,18.3-6.8,21-16.3c1.1-3.7,3-8,6.4-12.4
				c4.2-4.9,9.1-9.2,10.7-14.5C1308.1,1530.6,1294.2,1517.7,1294.2,1517.7z"/>
		</g>
		<g>
			<g>
				<polygon class="st13" points="1592.6,1327.3 1597.8,1323 1528,1231.7 1502.8,1230.7 				"/>
			</g>
			<g>
				<polygon class="st13" points="1683.9,1327.3 1688.2,1323 1630.4,1231.7 1609.6,1230.7 				"/>
			</g>
			<g>
				<path class="st14" d="M2110.5,1089.3c0-17.3-13.7-31.4-30.6-31.4c-16.9,0-30.6,14-30.6,31.4c0,17.3,13.7,31.4,30.6,31.4
					C2096.7,1120.7,2110.5,1106.7,2110.5,1089.3z"/>
				<path class="st14" d="M1721.8,1512.2h311.5c3.4,0,6.2-2.8,6.2-6.2v-29.4c0-3.4-2.8-6.2-6.2-6.2h-275.2c-3.4,0-6.2,2.8-6.2,6.2
					L1721.8,1512.2z"/>
				<path class="st6" d="M1719.1,1489.2c0-51.4-41.7-93.1-93.1-93.1c-51.4,0-93.1,41.7-93.1,93.1s41.7,93.1,93.1,93.1
					C1677.4,1582.3,1719.1,1540.6,1719.1,1489.2z"/>
				<path class="st22" d="M1673.5,1489.2c0-26.2-21.2-47.5-47.5-47.5c-26.2,0-47.5,21.2-47.5,47.5c0,26.2,21.2,47.5,47.5,47.5
					C1652.2,1536.6,1673.5,1515.4,1673.5,1489.2z"/>
				<g>
					<path class="st14" d="M2104.5,1357.8c13.1-4.2,27.1-6.4,41.6-6.4c10.2,0,20.2,1.1,29.8,3.3c55.1,12.2,97.9,57.6,106.4,114
						c1.6,10.8-6.8,20.6-17.8,20.6h-0.6c-5.9,0-10.8-4.5-11.4-10.4c-5.3-54.2-51-96.6-106.5-96.6c-16.6,0-32.3,3.8-46.3,10.5
						c-35.9,17.3-60.7,54.1-60.7,96.5h-30.8C2008.3,1427.7,2048.8,1375.5,2104.5,1357.8z"/>
				</g>
				<g>
					<path class="st14" d="M1961.7,1470.4l46.6,18.8c32.3-62.8,65.3-93.6,93.5-108.8c50.8-27.4,86.1-4.2,74.2-25.7l-87.1-183.7
						c-8.2-11.3-18.8-20-30.7-25.6c-12.9-6.1-27.3-8.7-41.6-7.4c-16.6,1.5-27.5,18.3-22.2,34.1c11.4,34.1,15.8,68.3,15.8,100.9
						C2010.2,1381.3,1961.7,1470.4,1961.7,1470.4z"/>
				</g>
				<path class="st14" d="M2009.2,1159.2l35.1-13.4c4.8,0,13.9,4.3,13.9-0.5l-5.2-85.8c0-4.8-3.9-8.7-8.7-8.7h-22.6
					c-4.8,0-23.9,9.2-22.6,26.3l-6,86.5C1993.1,1168.5,2004.4,1159.2,2009.2,1159.2z"/>
				<path class="st13" d="M1410.8,1234.9h234c6.8,0,12.3-5.5,12.3-12.3v-8.4c0-6.8-5.5-12.3-12.3-12.3h-234
					c-6.8,0-12.3,5.5-12.3,12.3v8.4C1398.5,1229.4,1404,1234.9,1410.8,1234.9z"/>
				
					<ellipse transform="matrix(0.9991 -4.155873e-02 4.155873e-02 0.9991 -60.0347 90.4771)" class="st6" cx="2146.1" cy="1489.2" rx="93.1" ry="93.1"/>
				<path class="st23" d="M2098.7,1489.2c0,8,2,15.5,5.5,22.1c0.2,0.4,0.5,0.9,0.7,1.3c8.1,14.4,23.6,24.1,41.3,24.1
					c26.2,0,47.5-21.2,47.5-47.5c0-19.7-12.1-36.7-29.2-43.8c-0.2-0.1-0.4-0.2-0.5-0.2c-5.5-2.2-11.4-3.4-17.7-3.4
					C2119.9,1441.7,2098.7,1463,2098.7,1489.2z"/>
				<path class="st10" d="M1805.2,1301.7c0,0-24,95.3,57,183.2l-199.4-14.5l25.4-192.4L1805.2,1301.7z"/>
				<path class="st10" d="M1438.4,1499.9c0,3.4,1.4,6.5,3.6,8.7c2.2,2.2,5.3,3.6,8.7,3.6h298.6c6.8,0,12.3-5.5,12.3-12.3l-4-195.3
					l-100.6-6.2C1523.1,1298.5,1438.4,1366,1438.4,1499.9z"/>
				<path class="st12" d="M2049.2,1087.5c0,3,0.3,6,0.8,8.9c4.2,22.4,23.8,39.3,47.4,39.3v-96.3
					C2070.8,1039.4,2049.2,1060.9,2049.2,1087.5z"/>
				<g>
					<path class="st15" d="M1973.2,1094.1c0.2,0,2.2-0.4,2.4-0.4l53-14.7c2.1-0.4,3.6-3,3.2-5.8c-0.3-2.8-2.3-4.7-4.4-4.3
						l-53.1,10.4c-2.1,0.4-3.8,3.6-4.3,6.4C1969.2,1090.1,1971.3,1094.1,1973.2,1094.1z"/>
				</g>
				<path class="st14" d="M2101.2,1384.1c-0.5,3-0.9,5.8-1.4,8.6c0.1-0.1,0.3-0.1,0.4-0.2c13.9-6.6,29.5-10.3,45.9-10.3
					c55.5,0,101.3,42.5,106.5,96.6c0.6,5.9,5.4,10.4,11.4,10.4h0.6c11,0,19.4-9.8,17.8-20.6c-8.5-56.2-51-101.5-105.9-113.8
					c-0.2-0.1-0.4-0.1-0.6-0.1l-87.1-183.7c-8.2-11.3-18.8-20-30.7-25.6c14.8,25,55.8,104.8,46.3,212.4c-0.7,7.4-1.6,14.9-2.7,22.6
					C2101.6,1381.6,2101.4,1382.8,2101.2,1384.1z"/>
				<path class="st23" d="M1605.2,1263.5v29c0,5,4.1,9.2,9.2,9.2h190.8c5,0,9.2-4.1,9.2-9.2v-29c0-5-4.1-9.2-9.2-9.2h-190.8
					C1609.3,1254.4,1605.2,1258.5,1605.2,1263.5z"/>
				<path class="st13" d="M1462,1512.3h287.3c0,0,17.5-106.4-47.1-142.3c-15.6-8.7-35.1-11.6-56.4-9.5
					C1578.6,1367,1494,1423.9,1462,1512.3z"/>
				<path class="st13" d="M2050,1096.4c4.2,22.4,23.8,39.3,47.4,39.3v-26.9C2083.2,1109.4,2062.8,1107.9,2050,1096.4z"/>
				<path class="st22" d="M1665.6,1301.7h139.6c5,0,9.2-4.1,9.2-9.2v-29c0-5-4.1-9.2-9.2-9.2h-95.6
					C1701.2,1266.1,1685.6,1286,1665.6,1301.7z"/>
				<path class="st12" d="M1462,1512.3h119.3c72-36.5,67.6-124.7,64.4-151.8C1578.6,1367,1494,1423.9,1462,1512.3z"/>
				<path class="st22" d="M2104.9,1512.6c8.1,14.4,23.6,24.1,41.3,24.1c26.2,0,47.5-21.2,47.5-47.5c0-19.7-12.1-36.7-29.2-43.8
					C2160.2,1465.9,2147,1504,2104.9,1512.6z"/>
				<path class="st10" d="M2101.2,1384.1c-0.5,3-0.9,5.8-1.4,8.6c0.1-0.1,0.3-0.1,0.4-0.2c17.2-15.9,53.5-30,76.3-37.7
					c-0.2-0.1-0.4-0.1-0.6-0.1l-87.1-183.7c-8.2-11.3-18.8-20-30.7-25.6c14.8,25,55.8,104.8,46.3,212.4c-0.7,7.4-1.6,14.9-2.7,22.6
					C2101.6,1381.6,2101.4,1382.8,2101.2,1384.1z"/>
			</g>
			<g>
				<rect x="1489.2" y="1079.2" class="st24" width="148.7" height="122.6"/>
				<rect x="1414.8" y="1079.2" class="st25" width="148.7" height="122.6"/>
				<polygon class="st25" points="1637.8,1170.7 1614.2,1170.7 1616.3,1164.1 1614.2,1159.4 1637.8,1159.4 				"/>
				<polygon class="st26" points="1414.8,1160.5 1414.8,1201.8 1563.5,1201.8 1563.5,1079.2 1537.2,1079.2 				"/>
				<polygon class="st27" points="1414.8,1106.7 1438.4,1106.7 1436.3,1100.1 1438.4,1095.3 1414.8,1095.3 				"/>
				<polygon class="st25" points="1414.8,1182.1 1438.4,1182.1 1436.3,1175.5 1438.4,1170.7 1414.8,1170.7 				"/>
			</g>
			<g>
				<path class="st17" d="M1788.6,968.1c-25.7,10.4-72.7-11.9-72.7-11.9s15.6-13.8,18.6-40c0.2-1.3,0.3-2.7,0.3-4
					c2.7-1,7.8-2.8,13.3-4.7l22.8,15.5c0,0,0.5,7.6-0.3,21c-0.1,2.3-0.3,4.8-0.6,7.5C1781.9,956.7,1788.6,968.1,1788.6,968.1z"/>
				<path class="st28" d="M1770.9,923c0,0,0.5,7.6-0.3,21c-20.7-3.8-32.1-20.5-36.2-27.7c0.2-1.3,0.3-2.7,0.3-4
					c2.7-1,7.8-2.8,13.3-4.7L1770.9,923z"/>
				<path class="st17" d="M1775.1,934.1c0,0-44.3-1.4-43-29c1.3-27.6-3.5-46.3,24.8-46.6c28.3-0.2,33.3,10.5,35.1,19.8
					C1793.8,887.7,1786.6,933.7,1775.1,934.1z"/>
				<path class="st15" d="M1734.4,916.2c0,0-1.7-9.2,3.3-15.2c0,0-3.2-9,0.2-11c3.5-2,5.3,5.7,6.8,4.2c1.5-1.4,8.2-8.2,10.3-17.2
					c2.1-9,32.8-2.5,36.4-1.5c3.6,1.1-20.4-43.7-46.3-33.1c-25.9,10.6-27.9,23.9-24.9,34.7C1723.2,887.9,1723,914,1734.4,916.2z"/>
				<path class="st15" d="M1692.1,1179.3c0,0,3.1,54.1,15.4,69.5c12.3,15.4,248.4,9.4,248.4,9.4s1-34.7-8.2-43.6
					c-9.2-8.9-52.3-34.5-190-49.1L1692.1,1179.3z"/>
				<path class="st2" d="M1688.9,1066.1c3.8,46.5-1.2,117.1,3.2,129.4c3.8,10.6,46.7,4.3,63.8,0.8c6.3-1.3,14-3.2,22-5.4
					c22.1-6.1,46.2-14.9,48.8-21.5c0.1-0.3,0.2-0.5,0.2-0.7c0.2-0.9,0.2-1.8,0-2.7c-0.6-2.5-2.6-5.1-3.8-9.6
					c-0.4-1.6-0.7-3.4-0.8-5.6c-0.4-8.4-0.4-18.2-0.7-28.7c0-1-0.1-1.9-0.1-2.9c0-1.3,0-2.7-0.2-4l0-0.5c0-0.2,0-0.5,0-0.7
					c-0.4-13-1.1-26.6-2-40.2c-0.3-4.2-0.6-8.4-0.9-12.6c-0.1-1.5-0.2-2.9-0.3-4.4c-0.2-2.7-0.5-5.4-0.7-8c-1.9-20.8-4.5-39.3-8-51
					c-5.6-19.1-18-31.5-29.3-40.6l-8.2-6.3c-9.1,1.8-19.9,0.6-29.6-3.5c-10.5-4.5-14.2-7.7-16-6.5
					C1701.9,957.6,1684.4,1009.3,1688.9,1066.1z"/>
				<path class="st29" d="M1870.9,1436.2c0,0,2.1,33.7,8.6,34.2c0.9,0.1,33,0.1,33,0.1l41.1-0.2c0,0-0.3-9.9-12.3-12
					s-32.1-10.5-39.4-26.4C1894.3,1415.1,1870.9,1436.2,1870.9,1436.2z"/>
				<path class="st15" d="M1862.3,1438.4c0,0,7.9,6.1,24.1,6.9c4.2,0.2,8,0,11.3-0.5c8.9-1.1,14.5-3.7,14.5-3.7l43.6-182.9
					c0,0-47.2-41.2-71.8-15.6c-3.2,3.3-6,9.1-8.3,16.7C1860.1,1309.8,1862.3,1438.4,1862.3,1438.4z"/>
				<path class="st18" d="M1757.7,1030.8c0,0,30.6,111.9,65.5,125.5c-0.4-1.6-0.7-3.4-0.8-5.6c-0.4-8.4-0.4-18.2-0.7-28.7
					c0-1-0.1-1.9-0.1-2.9c0-1.3,0-2.7-0.2-4l0-0.5c0-0.2,0-0.5,0-0.7c-0.4-13-1.1-26.6-2-40.2c-0.3-4.2-0.6-8.4-0.9-12.6
					C1803.1,1042.5,1782.2,1029.2,1757.7,1030.8z"/>
				<path class="st17" d="M1941,1073.9c0,0,13.3,1,16.7,0c3.4-1,19.5-10.6,25.3-8.6s20.5,17.1,16.8,23.9c0,0-6.8,0.2-13.2-6.3
					s-13.2-2.1-12.5-1.2c0.7,0.9,10.6,4.8,8.9,6.5c-1.7,1.7-14.7,1.4-17.8-0.7c-3.1-2.1-26,0.5-26,0.5L1941,1073.9z"/>
				<path class="st20" d="M1757.7,971.8c0,0,82.8,70.6,104.6,77.4c21.8,6.8,98.8,21.8,98.8,21.8s2.1,18.2-5.1,25.1
					c0,0-98.9-5.7-111.2-8.3c-12.3-2.6-104.1-50.2-111.6-53.8C1725.6,1030.2,1726.8,965.9,1757.7,971.8z"/>
				<path class="st16" d="M1862.3,1438.4c0,0,7.9,6.1,24.1,6.9c4.2,0.2,8,0,11.3-0.5c-24.9-31.4-22.1-185.5-22.1-185.5
					C1860.1,1309.8,1862.3,1438.4,1862.3,1438.4z"/>
				<path class="st2" d="M1713.7,879v0.4c0,1.2,0.5,2.2,1.3,2.6c0.3,0.1,0.5,0.2,0.8,0.2h104.9c1.2,0,2.1-1.3,2.1-2.8V879
					c0-1.5-0.9-2.8-2.1-2.8l-23.4-3c-2.2-17.4-13.8-31.6-29-36.5c0,0,0,0,0,0c-3.7-1.2-7.7-1.8-11.7-1.8c-21.5,0-39.2,17.8-41,40.5
					c0,0.3,0,0.5-0.1,0.8c-0.3,0.2-0.4,0.3-0.4,0.3C1714.2,876.8,1713.7,877.8,1713.7,879z"/>
				<path class="st13" d="M1749.2,875.3c-7.8-41.4,18.2-38.7,19.1-38.6c-3.7-1.2-7.7-1.8-11.7-1.8c-21.5,0-39.2,17.8-41,40.5H1749.2
					z"/>
			</g>
		</g>
		<g>
			<path class="st2" d="M1647.2,748.9c-1.2,0-2.3-0.6-3-1.7c-1-1.7-0.5-3.8,1.2-4.8c0.1,0,1.9-1.1,5.3-3c1.7-0.9,3.8-0.3,4.8,1.4
				c0.9,1.7,0.3,3.8-1.4,4.8c-3.3,1.9-5.1,2.9-5.1,2.9C1648.4,748.7,1647.8,748.9,1647.2,748.9z"/>
			<path class="st2" d="M2547.9,1186.9C2547.9,1186.9,2547.9,1186.9,2547.9,1186.9c-2,0-3.5-1.6-3.5-3.5c0-0.7,0-1.5,0-2.3
				c0-3.2,0-6.5-0.1-9.8c0-1.9,1.5-3.5,3.4-3.6c1.9-0.1,3.5,1.5,3.6,3.4c0.1,3.3,0.1,6.7,0.1,9.9c0,0.8,0,1.5,0,2.3
				C2551.4,1185.3,2549.8,1186.9,2547.9,1186.9z M2547.4,1162.6c-1.9,0-3.4-1.5-3.5-3.3c-0.2-4-0.4-8-0.7-12
				c-0.1-1.9,1.3-3.6,3.2-3.7c1.9-0.1,3.6,1.3,3.7,3.2c0.3,4.1,0.5,8.2,0.7,12.2c0.1,1.9-1.4,3.6-3.3,3.7
				C2547.5,1162.6,2547.4,1162.6,2547.4,1162.6z M2545.6,1138.4c-1.8,0-3.3-1.4-3.5-3.2c-0.4-4-0.8-8-1.3-12
				c-0.2-1.9,1.1-3.7,3.1-3.9c1.9-0.2,3.7,1.1,3.9,3.1c0.5,4,0.9,8.1,1.3,12.1c0.2,1.9-1.2,3.6-3.2,3.8
				C2545.9,1138.4,2545.7,1138.4,2545.6,1138.4z M2542.8,1114.4c-1.7,0-3.2-1.3-3.5-3c-0.6-4-1.2-8-1.8-11.9c-0.3-1.9,1-3.7,2.9-4
				c1.9-0.3,3.7,1,4,2.9c0.6,4,1.3,8,1.8,12.1c0.3,1.9-1.1,3.7-3,4C2543.1,1114.4,2543,1114.4,2542.8,1114.4z M2538.9,1090.5
				c-1.7,0-3.1-1.2-3.4-2.9c-0.7-3.9-1.5-7.9-2.3-11.8c-0.4-1.9,0.8-3.7,2.7-4.1c1.9-0.4,3.7,0.8,4.1,2.7c0.8,4,1.6,8,2.3,12
				c0.4,1.9-0.9,3.7-2.8,4.1C2539.3,1090.4,2539.1,1090.5,2538.9,1090.5z M2534,1066.7c-1.6,0-3-1.1-3.4-2.7
				c-0.9-3.9-1.8-7.8-2.8-11.7c-0.5-1.9,0.7-3.8,2.5-4.3c1.9-0.5,3.8,0.7,4.3,2.5c1,3.9,2,7.9,2.9,11.8c0.4,1.9-0.7,3.8-2.6,4.2
				C2534.5,1066.7,2534.3,1066.7,2534,1066.7z M2528.1,1043.3c-1.5,0-2.9-1-3.4-2.6c-1.1-3.9-2.2-7.7-3.3-11.6
				c-0.6-1.9,0.5-3.8,2.3-4.4c1.9-0.6,3.8,0.5,4.4,2.3c1.2,3.9,2.3,7.8,3.4,11.7c0.5,1.9-0.6,3.8-2.4,4.3
				C2528.7,1043.2,2528.4,1043.3,2528.1,1043.3z M2521.1,1020.1c-1.5,0-2.8-0.9-3.3-2.4c-1.2-3.8-2.5-7.6-3.8-11.4
				c-0.6-1.8,0.3-3.8,2.1-4.5c1.8-0.6,3.8,0.3,4.5,2.1c1.3,3.8,2.6,7.7,3.9,11.5c0.6,1.8-0.4,3.8-2.2,4.4
				C2521.8,1020,2521.5,1020.1,2521.1,1020.1z M2513.1,997.2c-1.4,0-2.7-0.9-3.3-2.3c-1.4-3.7-2.9-7.5-4.4-11.2
				c-0.7-1.8,0.1-3.8,1.9-4.6c1.8-0.7,3.8,0.1,4.6,1.9c1.5,3.8,3,7.6,4.4,11.4c0.7,1.8-0.2,3.8-2,4.5
				C2513.9,997.1,2513.5,997.2,2513.1,997.2z M2504.1,974.8c-1.4,0-2.6-0.8-3.2-2.1c-1.6-3.7-3.2-7.4-4.9-11c-0.8-1.8,0-3.8,1.7-4.6
				c1.8-0.8,3.8,0,4.6,1.7c1.7,3.7,3.3,7.4,4.9,11.1c0.8,1.8-0.1,3.8-1.8,4.6C2505,974.7,2504.5,974.8,2504.1,974.8z M2494,952.7
				c-1.3,0-2.5-0.7-3.2-2c-1.7-3.6-3.6-7.2-5.4-10.7c-0.9-1.7-0.2-3.8,1.5-4.7c1.7-0.9,3.8-0.2,4.7,1.5c1.9,3.6,3.7,7.3,5.5,10.9
				c0.8,1.7,0.1,3.8-1.6,4.7C2495,952.6,2494.5,952.7,2494,952.7z M2482.9,931.2c-1.2,0-2.4-0.7-3.1-1.8c-1.9-3.5-3.9-7-5.9-10.5
				c-1-1.7-0.4-3.8,1.3-4.8c1.7-1,3.8-0.4,4.8,1.3c2,3.5,4,7.1,6,10.6c0.9,1.7,0.3,3.8-1.4,4.8
				C2484,931.1,2483.4,931.2,2482.9,931.2z M2470.7,910.3c-1.2,0-2.3-0.6-3-1.7c-2.1-3.4-4.2-6.8-6.4-10.2c-1-1.6-0.6-3.8,1-4.8
				c1.6-1.1,3.8-0.6,4.8,1c2.2,3.4,4.4,6.9,6.5,10.3c1,1.6,0.5,3.8-1.2,4.8C2472,910.1,2471.4,910.3,2470.7,910.3z M2457.6,890
				c-1.1,0-2.2-0.5-2.9-1.5c-2.3-3.3-4.6-6.6-6.9-9.8c-1.1-1.6-0.8-3.8,0.8-4.9c1.6-1.1,3.8-0.8,4.9,0.8c2.4,3.3,4.7,6.6,7,10
				c1.1,1.6,0.7,3.8-0.9,4.9C2459,889.8,2458.3,890,2457.6,890z M2443.5,870.3c-1.1,0-2.1-0.5-2.8-1.4c-2.4-3.2-4.9-6.4-7.4-9.5
				c-1.2-1.5-1-3.7,0.6-4.9c1.5-1.2,3.7-1,4.9,0.6c2.5,3.2,5,6.4,7.5,9.6c1.2,1.5,0.9,3.7-0.7,4.9
				C2445,870.1,2444.2,870.3,2443.5,870.3z M2428.4,851.4c-1,0-2-0.4-2.7-1.3c-2.6-3-5.2-6.1-7.8-9.1c-1.3-1.5-1.1-3.7,0.3-4.9
				c1.5-1.3,3.7-1.1,4.9,0.3c2.7,3,5.4,6.2,7.9,9.2c1.2,1.5,1,3.7-0.4,4.9C2430,851.1,2429.2,851.4,2428.4,851.4z M2412.4,833.2
				c-0.9,0-1.9-0.4-2.6-1.1c-2.7-2.9-5.5-5.9-8.3-8.7c-1.3-1.4-1.3-3.6,0.1-4.9c1.4-1.3,3.6-1.3,4.9,0.1c2.8,2.9,5.6,5.9,8.4,8.8
				c1.3,1.4,1.2,3.6-0.2,4.9C2414.1,832.9,2413.3,833.2,2412.4,833.2z M2395.6,815.8c-0.9,0-1.8-0.3-2.5-1c-2.8-2.8-5.8-5.6-8.7-8.3
				c-1.4-1.3-1.5-3.5-0.2-4.9c1.3-1.4,3.5-1.5,4.9-0.2c3,2.8,5.9,5.6,8.8,8.4c1.4,1.4,1.4,3.6,0,4.9
				C2397.4,815.5,2396.5,815.8,2395.6,815.8z M2377.9,799.3c-0.8,0-1.7-0.3-2.3-0.9c-3-2.7-6-5.3-9.1-7.9c-1.5-1.3-1.7-3.5-0.4-4.9
				c1.3-1.5,3.5-1.7,4.9-0.4c3.1,2.6,6.2,5.3,9.2,8c1.4,1.3,1.6,3.5,0.3,4.9C2379.8,798.9,2378.8,799.3,2377.9,799.3z M2359.4,783.7
				c-0.8,0-1.6-0.3-2.2-0.8c-3.1-2.5-6.3-5-9.4-7.5c-1.5-1.2-1.8-3.4-0.6-4.9c1.2-1.5,3.4-1.8,4.9-0.6c3.2,2.5,6.4,5,9.6,7.6
				c1.5,1.2,1.7,3.4,0.5,4.9C2361.5,783.2,2360.5,783.7,2359.4,783.7z M2340.3,768.9c-0.7,0-1.4-0.2-2.1-0.7c-3.2-2.4-6.5-4.7-9.8-7
				c-1.6-1.1-2-3.3-0.9-4.9c1.1-1.6,3.3-2,4.9-0.9c3.3,2.3,6.6,4.7,9.9,7.1c1.6,1.1,1.9,3.3,0.7,4.9
				C2342.4,768.4,2341.4,768.9,2340.3,768.9z M2320.5,755c-0.7,0-1.3-0.2-1.9-0.6c-3.3-2.2-6.7-4.4-10.1-6.6c-1.6-1-2.1-3.2-1.1-4.8
				c1-1.6,3.2-2.1,4.8-1.1c3.4,2.2,6.8,4.4,10.2,6.7c1.6,1.1,2,3.2,1,4.9C2322.7,754.4,2321.6,755,2320.5,755z M2300.1,741.9
				c-0.6,0-1.2-0.2-1.8-0.5c-3.4-2.1-6.9-4.1-10.3-6.2c-1.7-1-2.2-3.1-1.3-4.8s3.1-2.2,4.8-1.3c3.5,2,7,4.1,10.5,6.2
				c1.7,1,2.2,3.2,1.2,4.8C2302.4,741.3,2301.3,741.9,2300.1,741.9z M1663.1,740.1c-1.3,0-2.5-0.7-3.1-1.9c-0.9-1.7-0.2-3.8,1.5-4.7
				c3.5-1.8,7.1-3.7,10.9-5.5c1.7-0.9,3.8-0.1,4.7,1.6c0.9,1.7,0.1,3.8-1.6,4.7c-3.7,1.8-7.3,3.7-10.7,5.5
				C1664.2,740,1663.6,740.1,1663.1,740.1z M2279.2,729.8c-0.6,0-1.2-0.1-1.7-0.4c-3.5-1.9-7.1-3.9-10.6-5.7c-1.7-0.9-2.4-3-1.5-4.7
				c0.9-1.7,3-2.4,4.7-1.5c3.6,1.9,7.2,3.8,10.7,5.8c1.7,0.9,2.3,3.1,1.4,4.8C2281.6,729.1,2280.4,729.8,2279.2,729.8z
				 M1684.8,729.4c-1.3,0-2.6-0.7-3.2-2c-0.8-1.7-0.1-3.8,1.7-4.7c3.6-1.7,7.3-3.4,11.1-5.1c1.8-0.8,3.8,0,4.6,1.8
				c0.8,1.8,0,3.8-1.8,4.6c-3.7,1.7-7.4,3.4-10.9,5C1685.8,729.3,1685.3,729.4,1684.8,729.4z M1706.8,719.4c-1.4,0-2.6-0.8-3.2-2.1
				c-0.8-1.8,0.1-3.8,1.8-4.6c3.7-1.6,7.5-3.2,11.2-4.7c1.8-0.7,3.8,0.1,4.6,1.9c0.7,1.8-0.1,3.8-1.9,4.6c-3.7,1.5-7.4,3.1-11.1,4.7
				C1707.8,719.3,1707.3,719.4,1706.8,719.4z M2257.8,718.5c-0.5,0-1.1-0.1-1.6-0.4c-3.6-1.8-7.2-3.6-10.8-5.3
				c-1.7-0.8-2.5-2.9-1.7-4.7c0.8-1.7,2.9-2.5,4.7-1.7c3.6,1.7,7.3,3.5,10.9,5.3c1.7,0.9,2.4,3,1.6,4.7
				C2260.3,717.8,2259,718.5,2257.8,718.5z M1729.2,710.2c-1.4,0-2.7-0.8-3.3-2.2c-0.7-1.8,0.2-3.8,2-4.5c3.8-1.5,7.6-3,11.4-4.4
				c1.8-0.7,3.8,0.2,4.5,2c0.7,1.8-0.2,3.8-2,4.5c-3.7,1.4-7.5,2.9-11.2,4.3C1730.1,710.1,1729.7,710.2,1729.2,710.2z M2235.9,708.1
				c-0.5,0-1-0.1-1.4-0.3c-3.6-1.6-7.3-3.3-11-4.8c-1.8-0.8-2.6-2.8-1.9-4.6s2.8-2.6,4.6-1.9c3.7,1.6,7.5,3.2,11.2,4.9
				c1.8,0.8,2.5,2.9,1.8,4.6C2238.5,707.3,2237.2,708.1,2235.9,708.1z M1751.9,701.7c-1.4,0-2.8-0.9-3.3-2.3
				c-0.7-1.8,0.3-3.8,2.1-4.5c3.8-1.4,7.7-2.7,11.5-4c1.8-0.6,3.8,0.4,4.4,2.2c0.6,1.8-0.4,3.8-2.2,4.4c-3.8,1.3-7.6,2.6-11.4,4
				C1752.7,701.6,1752.3,701.7,1751.9,701.7z M2213.6,698.6c-0.4,0-0.9-0.1-1.3-0.3c-3.7-1.5-7.5-2.9-11.2-4.3
				c-1.8-0.7-2.7-2.7-2-4.5c0.7-1.8,2.7-2.7,4.5-2c3.8,1.4,7.6,2.9,11.4,4.4c1.8,0.7,2.7,2.8,1.9,4.5
				C2216.3,697.8,2215,698.6,2213.6,698.6z M1774.8,693.8c-1.5,0-2.8-0.9-3.3-2.4c-0.6-1.8,0.4-3.8,2.2-4.4
				c3.8-1.2,7.7-2.5,11.6-3.7c1.8-0.6,3.8,0.5,4.4,2.3c0.6,1.8-0.5,3.8-2.3,4.4c-3.8,1.2-7.7,2.4-11.5,3.6
				C1775.6,693.8,1775.2,693.8,1774.8,693.8z M2191,690.1c-0.4,0-0.8-0.1-1.2-0.2c-3.8-1.3-7.6-2.6-11.4-3.9
				c-1.8-0.6-2.8-2.6-2.2-4.4c0.6-1.8,2.6-2.8,4.4-2.2c3.8,1.2,7.7,2.6,11.5,3.9c1.8,0.6,2.8,2.6,2.1,4.5
				C2193.8,689.2,2192.4,690.1,2191,690.1z M1798,686.7c-1.5,0-2.9-1-3.4-2.5c-0.5-1.9,0.5-3.8,2.4-4.3c3.9-1.1,7.8-2.2,11.7-3.3
				c1.9-0.5,3.8,0.6,4.3,2.5c0.5,1.9-0.6,3.8-2.5,4.3c-3.8,1.1-7.7,2.2-11.6,3.3C1798.6,686.7,1798.3,686.7,1798,686.7z M2168,682.6
				c-0.3,0-0.7,0-1-0.2c-3.8-1.2-7.7-2.3-11.5-3.4c-1.9-0.5-2.9-2.5-2.4-4.3c0.5-1.9,2.5-2.9,4.3-2.4c3.9,1.1,7.8,2.2,11.7,3.4
				c1.8,0.6,2.9,2.5,2.3,4.4C2170.9,681.6,2169.5,682.6,2168,682.6z M1821.3,680.3c-1.6,0-3-1-3.4-2.6c-0.5-1.9,0.6-3.8,2.5-4.3
				c3.9-1,7.9-2,11.8-2.9c1.9-0.4,3.8,0.7,4.2,2.6c0.5,1.9-0.7,3.8-2.6,4.2c-3.9,0.9-7.8,1.9-11.7,2.9
				C1821.9,680.3,1821.6,680.3,1821.3,680.3z M2144.7,676c-0.3,0-0.6,0-0.9-0.1c-3.9-1-7.8-2-11.7-2.9c-1.9-0.4-3-2.3-2.6-4.2
				c0.4-1.9,2.3-3,4.2-2.6c3.9,0.9,7.9,1.9,11.8,2.9c1.9,0.5,3,2.4,2.5,4.3C2147.6,675,2146.2,676,2144.7,676z M1844.9,674.6
				c-1.6,0-3-1.1-3.4-2.7c-0.4-1.9,0.8-3.8,2.7-4.2c4-0.9,8-1.8,11.9-2.6c1.9-0.4,3.7,0.8,4.1,2.7c0.4,1.9-0.8,3.7-2.7,4.1
				c-3.9,0.8-7.8,1.7-11.8,2.5C1845.4,674.6,1845.1,674.6,1844.9,674.6z M2121.1,670.5c-0.2,0-0.5,0-0.7-0.1
				c-3.9-0.8-7.9-1.6-11.8-2.4c-1.9-0.4-3.1-2.2-2.8-4.1c0.4-1.9,2.2-3.1,4.1-2.8c4,0.8,8,1.6,11.9,2.4c1.9,0.4,3.1,2.3,2.7,4.2
				C2124.2,669.3,2122.7,670.5,2121.1,670.5z M1868.6,669.7c-1.6,0-3.1-1.2-3.4-2.8c-0.4-1.9,0.9-3.7,2.8-4.1c4-0.8,8-1.5,12-2.2
				c1.9-0.3,3.7,0.9,4,2.9c0.3,1.9-0.9,3.7-2.9,4c-3.9,0.7-7.9,1.4-11.9,2.1C1869,669.7,1868.8,669.7,1868.6,669.7z M2097.3,665.9
				c-0.2,0-0.4,0-0.6-0.1c-4-0.7-7.9-1.3-11.9-1.9c-1.9-0.3-3.2-2.1-2.9-4s2.1-3.2,4-2.9c4,0.6,8,1.2,12,1.9c1.9,0.3,3.2,2.1,2.9,4
				C2100.5,664.7,2099,665.9,2097.3,665.9z M1892.4,665.6c-1.7,0-3.2-1.2-3.5-3c-0.3-1.9,1-3.7,2.9-4c4-0.6,8.1-1.2,12-1.8
				c1.9-0.3,3.7,1.1,3.9,3c0.3,1.9-1.1,3.7-3,3.9c-3.9,0.5-7.9,1.1-11.9,1.8C1892.8,665.6,1892.6,665.6,1892.4,665.6z M2073.4,662.3
				c-0.1,0-0.3,0-0.4,0c-3.9-0.5-8-1-11.9-1.4c-1.9-0.2-3.3-1.9-3.1-3.9c0.2-1.9,1.9-3.3,3.9-3.1c4,0.4,8.1,0.9,12.1,1.4
				c1.9,0.2,3.3,2,3,3.9C2076.6,661.1,2075.1,662.3,2073.4,662.3z M1916.4,662.3c-1.7,0-3.3-1.3-3.5-3.1c-0.2-1.9,1.1-3.7,3.1-3.9
				c4-0.5,8.1-0.9,12.1-1.3c1.9-0.2,3.6,1.2,3.8,3.1c0.2,1.9-1.2,3.6-3.1,3.8c-3.9,0.4-8,0.9-12,1.3
				C1916.7,662.3,1916.6,662.3,1916.4,662.3z M1940.5,659.8c-1.8,0-3.3-1.4-3.5-3.2c-0.2-1.9,1.3-3.6,3.2-3.8
				c4.1-0.3,8.2-0.7,12.1-0.9c1.9-0.1,3.6,1.3,3.7,3.3c0.1,1.9-1.3,3.6-3.3,3.7c-3.9,0.3-8,0.6-12,0.9
				C1940.7,659.8,1940.6,659.8,1940.5,659.8z M2049.3,659.8c-0.1,0-0.2,0-0.3,0c-4-0.3-8-0.7-12-0.9c-1.9-0.1-3.4-1.8-3.3-3.7
				c0.1-1.9,1.8-3.4,3.7-3.3c4,0.3,8.1,0.6,12.1,0.9c1.9,0.2,3.4,1.9,3.2,3.8C2052.6,658.4,2051.1,659.8,2049.3,659.8z
				 M1964.7,658.2c-1.9,0-3.4-1.5-3.5-3.3c-0.1-1.9,1.4-3.6,3.3-3.7c4.1-0.2,8.2-0.4,12.2-0.5c1.9-0.1,3.5,1.5,3.6,3.4
				c0.1,1.9-1.5,3.5-3.4,3.6c-4,0.1-8,0.3-12,0.5C1964.8,658.2,1964.7,658.2,1964.7,658.2z M2025.2,658.2c-0.1,0-0.1,0-0.2,0
				c-4-0.2-8-0.3-12-0.4c-1.9-0.1-3.5-1.7-3.4-3.6c0.1-1.9,1.7-3.5,3.6-3.4c4,0.1,8.1,0.3,12.2,0.5c1.9,0.1,3.4,1.7,3.3,3.7
				C2028.6,656.7,2027,658.2,2025.2,658.2z M1988.9,657.5c-1.9,0-3.5-1.5-3.5-3.5c0-1.9,1.5-3.5,3.5-3.5c4,0,8.1-0.1,12.2,0
				c1.9,0,3.5,1.6,3.5,3.5c0,1.9-1.6,3.5-3.5,3.5c0,0,0,0,0,0C1996.9,657.5,1992.9,657.5,1988.9,657.5
				C1988.9,657.5,1988.9,657.5,1988.9,657.5z"/>
			<path class="st2" d="M2547.3,1204.8c-0.1,0-0.2,0-0.3,0c-1.9-0.2-3.4-1.9-3.2-3.8c0,0,0.2-2.1,0.3-5.8c0.1-1.9,1.7-3.4,3.6-3.3
				c1.9,0.1,3.4,1.7,3.3,3.6c-0.2,3.9-0.3,6-0.4,6.1C2550.6,1203.4,2549.1,1204.8,2547.3,1204.8z"/>
		</g>
		<g>
			<path class="st2" d="M1057.4,899.8c-0.1,0-0.3,0-0.4,0c-2-0.2-4-0.5-5.9-0.7c-1.9-0.2-3.3-1.9-3.1-3.9c0.2-1.9,1.9-3.3,3.9-3.1
				c2,0.2,4,0.4,6,0.7c1.9,0.2,3.3,2,3.1,3.9C1060.7,898.5,1059.2,899.8,1057.4,899.8z"/>
			<path class="st2" d="M404.2,1352.8c-0.2,0-0.3,0-0.5,0c-1.9-0.2-3.3-2-3-3.9c0.5-3.9,1.1-8,1.7-12c0.3-1.9,2.1-3.2,4-2.9
				c1.9,0.3,3.2,2.1,2.9,4c-0.6,4-1.2,8-1.7,11.9C407.5,1351.5,406,1352.8,404.2,1352.8z M407.9,1328.9c-0.2,0-0.4,0-0.6-0.1
				c-1.9-0.3-3.2-2.2-2.8-4.1c0.7-3.9,1.5-7.9,2.3-11.9c0.4-1.9,2.2-3.1,4.1-2.7c1.9,0.4,3.1,2.2,2.7,4.1c-0.8,3.9-1.5,7.9-2.2,11.8
				C411.1,1327.7,409.6,1328.9,407.9,1328.9z M412.7,1305.3c-0.3,0-0.5,0-0.8-0.1c-1.9-0.4-3.1-2.3-2.7-4.2
				c0.9-3.9,1.8-7.9,2.8-11.8c0.5-1.9,2.4-3,4.2-2.6c1.9,0.5,3,2.4,2.6,4.2c-0.9,3.9-1.9,7.8-2.7,11.7
				C415.7,1304.2,414.3,1305.3,412.7,1305.3z M418.4,1281.9c-0.3,0-0.6,0-0.9-0.1c-1.9-0.5-3-2.4-2.5-4.3c1-3.9,2.1-7.8,3.2-11.7
				c0.5-1.9,2.5-2.9,4.3-2.4c1.9,0.5,2.9,2.5,2.4,4.3c-1.1,3.8-2.2,7.7-3.2,11.5C421.3,1280.9,419.9,1281.9,418.4,1281.9z
				 M425,1258.8c-0.3,0-0.7,0-1-0.2c-1.8-0.6-2.9-2.5-2.3-4.4c1.2-3.8,2.4-7.7,3.7-11.5c0.6-1.8,2.6-2.8,4.4-2.2
				c1.8,0.6,2.8,2.6,2.2,4.4c-1.2,3.8-2.5,7.6-3.6,11.4C427.9,1257.8,426.5,1258.8,425,1258.8z M432.5,1235.9
				c-0.4,0-0.8-0.1-1.2-0.2c-1.8-0.6-2.8-2.6-2.1-4.5c1.3-3.8,2.7-7.6,4.1-11.4c0.7-1.8,2.7-2.7,4.5-2.1c1.8,0.7,2.7,2.7,2.1,4.5
				c-1.4,3.7-2.8,7.5-4.1,11.2C435.3,1235,434,1235.9,432.5,1235.9z M440.9,1213.4c-0.4,0-0.9-0.1-1.3-0.2c-1.8-0.7-2.7-2.7-2-4.5
				c1.5-3.7,3-7.5,4.6-11.2c0.7-1.8,2.8-2.6,4.6-1.9c1.8,0.8,2.6,2.8,1.9,4.6c-1.5,3.7-3.1,7.4-4.5,11.1
				C443.6,1212.5,442.3,1213.4,440.9,1213.4z M450.3,1191.2c-0.5,0-1-0.1-1.4-0.3c-1.8-0.8-2.6-2.9-1.8-4.6c1.6-3.7,3.3-7.4,5-11
				c0.8-1.7,2.9-2.5,4.7-1.7c1.7,0.8,2.5,2.9,1.7,4.7c-1.7,3.6-3.4,7.2-5,10.9C452.9,1190.4,451.6,1191.2,450.3,1191.2z
				 M460.5,1169.4c-0.5,0-1.1-0.1-1.6-0.4c-1.7-0.9-2.4-3-1.6-4.7c1.8-3.6,3.6-7.2,5.5-10.8c0.9-1.7,3-2.4,4.7-1.5
				c1.7,0.9,2.4,3,1.5,4.7c-1.8,3.5-3.7,7.1-5.4,10.6C463,1168.7,461.8,1169.4,460.5,1169.4z M471.7,1148.1c-0.6,0-1.2-0.1-1.7-0.4
				c-1.7-0.9-2.3-3.1-1.4-4.8c2-3.5,4-7.1,6-10.5c1-1.7,3.1-2.2,4.8-1.3c1.7,1,2.2,3.1,1.3,4.8c-2,3.4-4,6.9-5.9,10.4
				C474.1,1147.5,472.9,1148.1,471.7,1148.1z M483.8,1127.4c-0.6,0-1.3-0.2-1.8-0.5c-1.6-1-2.2-3.2-1.1-4.8
				c2.1-3.4,4.3-6.9,6.5-10.2c1-1.6,3.2-2.1,4.8-1c1.6,1,2.1,3.2,1,4.8c-2.1,3.3-4.3,6.7-6.4,10.1
				C486.1,1126.8,485,1127.4,483.8,1127.4z M496.9,1107.2c-0.7,0-1.4-0.2-2-0.6c-1.6-1.1-2-3.3-0.9-4.9c2.3-3.3,4.6-6.7,6.9-9.9
				c1.1-1.6,3.3-1.9,4.9-0.8c1.6,1.1,1.9,3.3,0.8,4.9c-2.3,3.2-4.6,6.5-6.8,9.8C499.1,1106.6,498,1107.2,496.9,1107.2z
				 M510.9,1087.6c-0.7,0-1.5-0.2-2.1-0.7c-1.5-1.2-1.9-3.4-0.7-4.9c2.4-3.2,4.9-6.4,7.4-9.6c1.2-1.5,3.4-1.8,4.9-0.6
				c1.5,1.2,1.8,3.4,0.6,4.9c-2.5,3.1-4.9,6.3-7.3,9.4C513,1087.1,511.9,1087.6,510.9,1087.6z M525.8,1068.8c-0.8,0-1.6-0.3-2.2-0.8
				c-1.5-1.2-1.7-3.4-0.4-4.9c2.6-3.1,5.2-6.2,7.9-9.2c1.3-1.5,3.5-1.6,4.9-0.3c1.5,1.3,1.6,3.5,0.3,4.9c-2.6,3-5.2,6-7.8,9.1
				C527.8,1068.4,526.8,1068.8,525.8,1068.8z M541.7,1050.7c-0.9,0-1.7-0.3-2.4-0.9c-1.4-1.3-1.5-3.5-0.2-4.9c2.7-3,5.5-5.9,8.3-8.8
				c1.3-1.4,3.6-1.4,5-0.1c1.4,1.3,1.4,3.6,0.1,4.9c-2.8,2.8-5.5,5.7-8.2,8.7C543.6,1050.4,542.6,1050.7,541.7,1050.7z
				 M558.5,1033.5c-0.9,0-1.8-0.4-2.5-1.1c-1.3-1.4-1.3-3.6,0.1-4.9c2.9-2.8,5.8-5.6,8.8-8.3c1.4-1.3,3.6-1.2,4.9,0.2
				c1.3,1.4,1.2,3.6-0.2,4.9c-2.9,2.7-5.8,5.4-8.6,8.2C560.2,1033.2,559.3,1033.5,558.5,1033.5z M576.1,1017.2c-1,0-1.9-0.4-2.6-1.2
				c-1.3-1.5-1.1-3.7,0.3-4.9c3-2.6,6.1-5.3,9.2-7.9c1.5-1.2,3.7-1,4.9,0.5c1.2,1.5,1,3.7-0.5,4.9c-3,2.5-6.1,5.1-9.1,7.7
				C577.7,1016.9,576.9,1017.2,576.1,1017.2z M594.6,1001.8c-1,0-2.1-0.5-2.8-1.3c-1.2-1.5-0.9-3.7,0.6-4.9c3.2-2.5,6.4-5,9.6-7.4
				c1.5-1.2,3.7-0.8,4.9,0.7c1.2,1.5,0.8,3.7-0.7,4.9c-3.2,2.4-6.4,4.8-9.5,7.3C596.1,1001.6,595.3,1001.8,594.6,1001.8z
				 M613.8,987.5c-1.1,0-2.2-0.5-2.9-1.5c-1.1-1.6-0.7-3.8,0.8-4.9c3.3-2.3,6.6-4.6,10-6.8c1.6-1.1,3.8-0.6,4.9,1
				c1.1,1.6,0.6,3.8-1,4.9c-3.3,2.2-6.6,4.5-9.8,6.7C615.2,987.3,614.5,987.5,613.8,987.5z M633.8,974.1c-1.2,0-2.3-0.6-3-1.6
				c-1-1.6-0.5-3.8,1.1-4.8c3.4-2.1,6.8-4.3,10.3-6.3c1.7-1,3.8-0.4,4.8,1.2c1,1.7,0.4,3.8-1.2,4.8c-3.4,2-6.9,4.1-10.2,6.2
				C635.1,974,634.5,974.1,633.8,974.1z M654.5,961.9c-1.2,0-2.4-0.6-3.1-1.8c-0.9-1.7-0.3-3.8,1.3-4.8c3.5-2,7.1-3.9,10.6-5.8
				c1.7-0.9,3.8-0.2,4.7,1.5c0.9,1.7,0.2,3.8-1.5,4.7c-3.5,1.9-7,3.8-10.5,5.7C655.6,961.7,655,961.9,654.5,961.9z M675.7,950.7
				c-1.3,0-2.5-0.7-3.1-1.9c-0.9-1.7-0.2-3.8,1.6-4.7c3.6-1.8,7.2-3.5,10.9-5.2c1.8-0.8,3.8-0.1,4.6,1.7c0.8,1.8,0.1,3.8-1.7,4.6
				c-3.6,1.7-7.2,3.4-10.7,5.2C676.8,950.5,676.2,950.7,675.7,950.7z M697.5,940.5c-1.4,0-2.6-0.8-3.2-2.1c-0.8-1.8,0-3.8,1.8-4.6
				c3.7-1.6,7.4-3.2,11.1-4.7c1.8-0.7,3.8,0.1,4.6,1.9c0.7,1.8-0.1,3.8-1.9,4.6c-3.7,1.5-7.4,3.1-11,4.6
				C698.4,940.4,698,940.5,697.5,940.5z M719.7,931.5c-1.4,0-2.7-0.9-3.3-2.3c-0.7-1.8,0.2-3.8,2-4.5c3.7-1.4,7.5-2.8,11.4-4.2
				c1.8-0.6,3.8,0.3,4.5,2.1c0.6,1.8-0.3,3.8-2.1,4.5c-3.8,1.3-7.5,2.7-11.2,4.1C720.6,931.4,720.2,931.5,719.7,931.5z M742.4,923.5
				c-1.5,0-2.8-0.9-3.3-2.4c-0.6-1.8,0.4-3.8,2.2-4.4c3.8-1.3,7.7-2.5,11.5-3.6c1.9-0.6,3.8,0.5,4.4,2.3c0.6,1.8-0.5,3.8-2.3,4.4
				c-3.8,1.1-7.6,2.4-11.4,3.6C743.1,923.4,742.7,923.5,742.4,923.5z M765.4,916.5c-1.5,0-2.9-1-3.4-2.6c-0.5-1.9,0.6-3.8,2.4-4.3
				c3.9-1.1,7.8-2.1,11.7-3.1c1.9-0.5,3.8,0.6,4.3,2.5c0.5,1.9-0.6,3.8-2.5,4.3c-3.8,1-7.7,2-11.5,3.1
				C766,916.4,765.7,916.5,765.4,916.5z M788.6,910.5c-1.6,0-3-1.1-3.4-2.7c-0.4-1.9,0.7-3.8,2.6-4.2c3.9-0.9,7.9-1.8,11.8-2.6
				c1.9-0.4,3.8,0.8,4.2,2.7c0.4,1.9-0.8,3.8-2.7,4.2c-3.9,0.8-7.8,1.7-11.7,2.6C789.2,910.5,788.9,910.5,788.6,910.5z M812.1,905.5
				c-1.6,0-3.1-1.2-3.4-2.8c-0.4-1.9,0.9-3.7,2.8-4.1c3.9-0.8,7.9-1.5,11.9-2.2c1.9-0.3,3.7,0.9,4,2.9c0.3,1.9-0.9,3.7-2.9,4
				c-3.9,0.7-7.9,1.4-11.7,2.2C812.6,905.4,812.3,905.5,812.1,905.5z M835.8,901.3c-1.7,0-3.2-1.2-3.5-3c-0.3-1.9,1-3.7,2.9-4
				c3.9-0.6,8-1.2,12-1.7c1.9-0.3,3.7,1.1,3.9,3c0.3,1.9-1.1,3.7-3,3.9c-3.9,0.5-7.9,1.1-11.8,1.7
				C836.1,901.3,836,901.3,835.8,901.3z M859.6,898.1c-1.8,0-3.3-1.3-3.5-3.1c-0.2-1.9,1.1-3.7,3.1-3.9c4-0.5,8-0.9,12-1.3
				c1.9-0.2,3.6,1.2,3.8,3.1c0.2,1.9-1.2,3.6-3.1,3.8c-4,0.4-8,0.8-11.9,1.3C859.9,898.1,859.7,898.1,859.6,898.1z M1039.5,897.9
				c-0.1,0-0.2,0-0.3,0c-4-0.4-8-0.8-11.9-1.1c-1.9-0.2-3.4-1.9-3.2-3.8c0.2-1.9,1.9-3.4,3.8-3.2c3.9,0.3,8,0.7,12,1.1
				c1.9,0.2,3.3,1.9,3.1,3.8C1042.8,896.5,1041.3,897.9,1039.5,897.9z M1015.6,895.8c-0.1,0-0.2,0-0.3,0c-3.9-0.3-8-0.6-12-0.8
				c-1.9-0.1-3.4-1.8-3.3-3.7c0.1-1.9,1.8-3.4,3.7-3.3c4,0.3,8.1,0.5,12,0.8c1.9,0.1,3.4,1.8,3.2,3.8
				C1018.9,894.4,1017.4,895.8,1015.6,895.8z M883.5,895.7c-1.8,0-3.3-1.4-3.5-3.2c-0.2-1.9,1.3-3.6,3.2-3.8c4-0.3,8-0.6,12-0.9
				c1.9-0.1,3.6,1.3,3.7,3.3c0.1,1.9-1.3,3.6-3.3,3.7c-4,0.3-8,0.6-11.9,0.9C883.7,895.7,883.6,895.7,883.5,895.7z M991.6,894.3
				c-0.1,0-0.1,0-0.2,0c-4-0.2-8-0.4-12-0.5c-1.9-0.1-3.4-1.7-3.4-3.6c0.1-1.9,1.7-3.4,3.6-3.4c4,0.1,8.1,0.3,12.1,0.5
				c1.9,0.1,3.4,1.7,3.3,3.7C995,892.8,993.4,894.3,991.6,894.3z M907.5,894.2c-1.9,0-3.4-1.5-3.5-3.3c-0.1-1.9,1.4-3.6,3.3-3.7
				c4-0.2,8.1-0.4,12.1-0.5c1.9,0,3.6,1.4,3.6,3.4c0.1,1.9-1.4,3.6-3.4,3.6c-4,0.1-8,0.3-11.9,0.5
				C907.6,894.2,907.5,894.2,907.5,894.2z M967.5,893.4C967.5,893.4,967.5,893.4,967.5,893.4c-4.1-0.1-8.1-0.2-12.1-0.2
				c-1.9,0-3.5-1.6-3.5-3.5c0-1.9,1.6-3.5,3.5-3.5c4,0,8,0.1,12.1,0.2c1.9,0,3.5,1.6,3.4,3.6C971,891.9,969.4,893.4,967.5,893.4z
				 M931.5,893.3c-1.9,0-3.5-1.5-3.5-3.4c0-1.9,1.5-3.5,3.4-3.6c4-0.1,8-0.1,12.1-0.1c0,0,0,0,0,0c1.9,0,3.5,1.6,3.5,3.5
				c0,1.9-1.6,3.5-3.5,3.5C939.5,893.2,935.5,893.2,931.5,893.3C931.5,893.3,931.5,893.3,931.5,893.3z"/>
			<path class="st2" d="M402.4,1370.6c-0.1,0-0.1,0-0.2,0c-1.9-0.1-3.4-1.8-3.3-3.7c0-0.1,0.1-2.2,0.5-6.1c0.2-1.9,1.9-3.3,3.8-3.1
				c1.9,0.2,3.3,1.9,3.1,3.8c-0.4,3.8-0.5,5.8-0.5,5.8C405.7,1369.2,404.2,1370.6,402.4,1370.6z"/>
		</g>
	</g>
	<path class="st3" d="M2837,1588H163c-1.7,0-3-1.4-3-3l0,0c0-1.7,1.4-3,3-3h2674c1.7,0,3,1.4,3,3v0
		C2840,1586.6,2838.6,1588,2837,1588z"/>
</g>
<g>
	<g>
		<path class="st0" d="M1010.9,1328.7h-11.7l0,0c-1.4,2.9,0.7,6.3,3.9,6.3h5.4c2.6,0,4.8,2.2,4.8,4.8v47.5c0,1.3-1.1,2.4-2.4,2.4
			h-39.5c-1.6,0-3.1,0.9-3.9,2.4l-1.9,3.9h45.3c4.8,0,8.7-3.9,8.7-8.7v-49.8C1019.6,1332.6,1015.7,1328.7,1010.9,1328.7z
			 M956.9,1392.1c-0.7-1.5-2.2-2.4-3.9-2.4h-38.1c-2.6,0-4.8-2.1-4.8-4.8v-47.5c0-1.3,1.1-2.4,2.4-2.4h8.8c3.2,0,5.3-3.4,3.9-6.3
			l0,0h-12.7c-4.8,0-8.7,3.9-8.7,8.7v47.5c0,6.1,5,11,11,11h43.9L956.9,1392.1z"/>
		<path class="st0" d="M951.6,1335.4l-32-32.8c-1-0.6-2.2,0.5-1.7,1.5l44.3,88.7l44.3-88.7c0.5-1.1-0.7-2.1-1.7-1.5l-51.1,33.1
			C953.1,1336.1,952.1,1336,951.6,1335.4z"/>
	</g>
</g>
</svg>
