<?xml version="1.0" encoding="utf-8"?>
<!-- Generator: Adobe Illustrator 25.0.1, SVG Export Plug-In . SVG Version: 6.00 Build 0)  -->
<svg version="1.1" id="iconos" xmlns="http://www.w3.org/2000/svg" xmlns:xlink="http://www.w3.org/1999/xlink" x="0px" y="0px"
	 viewBox="0 0 2122 2122" style="enable-background:new 0 0 2122 2122;" xml:space="preserve">
<style type="text/css">
	.st0{fill:#DB264C;}
	.st1{fill:#FFFFFF;}
</style>
<circle class="st0" cx="1061" cy="1061" r="997"/>
<g>
	<path class="st1" d="M1562.7,1368.8c-12.9,0.2-23.8,11.1-24,24c-0.2,13.4,11.2,24.8,24.6,24.6c13.5-0.2,24.5-11.8,23.9-25.2
		C1586.8,1379.2,1575.6,1368.6,1562.7,1368.8z"/>
	<path class="st1" d="M436.7,1114.6c5.1-24.2,8.6-48.9,15.5-72.5c14.5-49.5,40.1-93.2,75.4-130.9c5.2-5.6,5.9-9.9,3.4-17
		c-63.6-175.3,80-354.2,264.9-330.3c4.1,0.5,10.4-2,13.1-5.2c69.5-82.9,158.3-123.6,265.8-117.7c100.3,5.5,180.6,51.4,239.8,132.8
		c6.5,9,11.7,12.1,23.3,9.6c125.3-27.2,245.3,76.4,238.2,204.6c-1.8,31.9-10.3,61.6-24.7,87.9c16.7,17.7,34,33.7,48.6,52
		c93.1,116.9,109.9,244.5,50.8,381.9c-7.1,16.4-20.5,22.2-34.2,15.9c-13.3-6.2-17.1-20-9.9-36.4c43.3-97.4,39.2-192.8-12.7-285.7
		c-20.9-37.4-49.6-68.3-84.2-93.6c-21.3-15.6-22.9-24.8-8.1-46.6c36.3-53.8,34.2-123.8-5.1-175.8c-38.8-51.2-105.7-71.9-166.7-51.7
		c-23.9,8-30.1,5.7-42.9-15.6c-99.9-166-333.5-176.6-448-20c-9.9,13.6-20.7,17.6-37.5,14.6c-78.2-13.8-144.7,9-194,71.6
		c-49,62.1-56,131.6-25.4,204.5c8.8,21,7.6,26.1-8.6,42.9c-81.3,84.1-109.2,183.6-74.2,295.2c35.1,111.9,114.4,178.9,229.8,200.4
		c23.2,4.3,47.6,3.2,71.5,3c20.8-0.2,31.4,8.5,31,29.4c-1.1,55.5-17.3,106.3-47.2,152.9c-2.8,4.4-5.8,8.7-10.3,15.7
		c8.3-1.7,14.4-2.7,20.3-4.2c56.9-13.9,103.3-44.2,138.8-90.9c12.2-16,18.7-18,37.6-12.6c99.3,28.4,189.5,10.6,270-54.5
		c10.1-8.2,20.1-10.8,32.6-8.4c62.4,11.5,122.8,4.5,181-21.2c21-9.3,35.2-6.4,41.5,8.6c6.2,14.9-0.6,26.6-21.4,35.9
		c-61.2,27.3-125.1,36.4-191.5,27.6c-9.9-1.3-17.3,0.7-25.6,6.7c-84.6,62-178.4,80.5-280.4,57.7c-7.8-1.7-12.2-0.6-17.7,5.5
		c-63.9,71.5-143.9,104.7-239.5,100.6c-12-0.5-21.6-4.8-25.8-16.6c-4.2-11.9,0.5-21.1,9.4-29.2c40.3-36.9,65.6-82.3,75.8-136
		c0.9-4.8,1.3-9.6,2-14.4c-23.4-2.9-46.4-4.7-69-8.6c-136-23.8-249.4-140.1-270.5-276.8c-1.5-9.6-3.2-19.1-4.8-28.7
		C436.7,1152.1,436.7,1133.3,436.7,1114.6z"/>
	<path class="st1" d="M907.2,897.4c-17.1,0-34.1,0.1-51.2,0c-18.2-0.2-27.1-9.1-27.3-26.8c-1.4-110.1,85.8-211.9,194.6-227.4
		c132-18.8,246.4,65.1,268.2,196.8c16.4,99.5-40.5,203.5-135.5,245.7c-12.6,5.6-18.1,12.2-17.3,26.4c1.2,21.1,0.4,42.3,0.3,63.5
		c-0.2,18.1-8.9,27.3-26.8,27.4c-34.1,0.3-68.2,0.2-102.4,0c-15.2-0.1-26.2-8-26.2-21.6c0-37.8-2.3-76.2,3.5-113.2
		c9.3-58.3,45.3-98.7,99.4-122.1c29.8-12.9,47.7-34.4,50.9-67.1c3.9-39.8-27.7-78.4-67.1-81.9c-44.1-4-81.9,26.4-85.2,68.4
		c-2,25.8-8.6,32-34,32C936.4,897.4,921.8,897.4,907.2,897.4z M1090.2,1153.5c0-4.3,0-7.5,0-10.7c0-10.2,0.5-20.4-0.1-30.5
		c-2.1-34.9,13.5-57.1,45.5-71.1c76.4-33.6,120.5-115.3,107.4-196c-12.4-76.1-69.8-136.8-144.2-152.5c-75-15.8-151,16.2-193,81.7
		c-14.3,22.3-23.8,46.5-26.3,73.6c20.2,0,39.2,0,58.3,0c1.4-4.7,2.5-9,3.8-13.2c18.8-59.6,81.4-97.2,141.5-85.2
		c64.7,13,108.8,70.3,102.6,134.1c-5.2,52.4-33.8,87.3-81.4,107.9c-36.3,15.7-61.1,42.7-68.7,81.5c-5,25.9-3.8,53.1-5.4,80.5
		C1051.5,1153.5,1070,1153.5,1090.2,1153.5z"/>
	<path class="st1" d="M1061,1417.8c-43.2,0-78.2-35.2-78-78.3c0.2-42.8,36.1-78.3,78.8-77.9c42.5,0.5,77.1,35.4,77.1,78
		C1139,1383.1,1104.3,1417.8,1061,1417.8z M1090.1,1339.5c-0.2-16.1-13.8-29.4-29.7-28.9c-15.5,0.4-28.4,13.6-28.6,29
		c-0.2,16,13.1,29.3,29.3,29.3C1077.5,1368.9,1090.3,1355.9,1090.1,1339.5z"/>
	<path class="st1" d="M1562.7,1368.8c12.9-0.2,24.1,10.4,24.6,23.4c0.5,13.5-10.5,25.1-23.9,25.2c-13.4,0.2-24.8-11.2-24.6-24.6
		C1538.9,1379.9,1549.8,1369,1562.7,1368.8z"/>
</g>
</svg>
