<svg width="73" height="59" viewBox="0 0 73 59" fill="none" xmlns="http://www.w3.org/2000/svg">
<path d="M67.5219 16.5959H60.1712C59.268 18.4115 60.5824 20.5431 62.6092 20.5431H66.0385C67.7055 20.5431 69.0566 21.9029 69.0566 23.5641V53.524C69.0566 54.3693 68.3737 55.0529 67.5292 55.0529H42.65C41.6146 55.0529 40.6747 55.6335 40.2121 56.5597L38.9931 59H67.5292C70.5547 59 73 56.545 73 53.524V22.0719C72.9927 19.0436 70.5473 16.5959 67.5219 16.5959ZM33.4415 56.5597C32.9789 55.6335 32.0389 55.0529 31.0035 55.0529H6.96147C5.30188 55.0529 3.94337 53.7004 3.94337 52.0319V22.0719C3.94337 21.2267 4.63364 20.5431 5.47078 20.5431H11.0444C13.0711 20.5431 14.3856 18.4115 13.4823 16.5959H5.47078C2.46001 16.5959 0 19.0583 0 22.0719V52.0319C0 55.8761 3.12826 59 6.96147 59H34.6605L33.4415 56.5597Z" fill="white"/>
<path d="M30.0929 20.8224L9.9355 0.116521C9.30397 -0.280397 8.54761 0.410534 8.8854 1.07941L36.8267 57.0228L64.7754 1.07941C65.1059 0.410534 64.3569 -0.280397 63.7253 0.116521L31.4881 20.9694C31.0402 21.2634 30.4601 21.1973 30.0929 20.8224Z" fill="white"/>
</svg>
