<?xml version="1.0" encoding="utf-8"?>
<!-- Generator: Adobe Illustrator 26.0.0, SVG Export Plug-In . SVG Version: 6.00 Build 0)  -->
<svg version="1.1" xmlns="http://www.w3.org/2000/svg" xmlns:xlink="http://www.w3.org/1999/xlink" x="0px" y="0px"
	 viewBox="0 0 1134.7 882.8" style="enable-background:new 0 0 1134.7 882.8;" xml:space="preserve">
<style type="text/css">
	.st0{fill:none;stroke:#A659EA;stroke-width:4;stroke-miterlimit:10;}
	.st1{fill:#A659EA;}
	.st2{fill:#633099;}
	.st3{fill:none;stroke:url(#SVGID_1_);stroke-width:4;stroke-miterlimit:10;}
	.st4{fill:none;stroke:url(#SVGID_00000111193583450316285110000000694697245611965359_);stroke-width:4;stroke-miterlimit:10;}
	.st5{fill:#FFFFFF;stroke:#000000;stroke-miterlimit:10;}
	.st6{fill:none;stroke:url(#SVGID_00000096757267116125366200000008991909886731451808_);stroke-width:7;stroke-miterlimit:10;}
	.st7{fill:#633099;stroke:#FFFFFF;stroke-width:10;stroke-miterlimit:10;}
	.st8{fill:url(#SVGID_00000121263628224608644530000005012038174032640154_);}
	.st9{fill:url(#SVGID_00000111160462007360243130000012967281907314092428_);}
	.st10{fill:url(#SVGID_00000077308494439841911190000007245882450563973548_);}
	.st11{fill:url(#SVGID_00000088107347697889241910000008204532819140507548_);}
	.st12{fill:url(#SVGID_00000103952158808530223610000011700563388392370844_);}
	.st13{fill:url(#SVGID_00000153688242589776744700000011634120287376343699_);}
	.st14{fill:url(#SVGID_00000160186398236307414290000016540990430307406466_);}
	.st15{fill:#FFFFFF;}
	.st16{fill:#1C1C1C;}
	.st17{fill:#DA244B;}
	.st18{fill:url(#SVGID_00000034775215117970250670000005330382003791648662_);}
	.st19{fill:url(#SVGID_00000045603509335515867890000002525276884486633397_);}
	.st20{fill:url(#SVGID_00000000932319075747574180000013767453772316209306_);}
	.st21{fill:url(#SVGID_00000048465871831463613100000004801014151053460900_);}
	.st22{fill:url(#SVGID_00000021092105866082198560000014135841114859504290_);}
	.st23{fill:url(#SVGID_00000160892000129537154690000005333228219006666887_);}
	.st24{fill:url(#SVGID_00000009573943702296129280000018259811182088359849_);}
	.st25{fill:url(#SVGID_00000088105846618331600030000006094568889693086352_);}
	.st26{fill:url(#SVGID_00000013179161274182181790000002951767113751101321_);}
	.st27{fill:url(#SVGID_00000057838598311059871950000012411841077793889213_);}
	.st28{fill:#6528BD;}
	.st29{fill:#CD408F;}
</style>
<g id="Layer_1">
</g>
<g id="Layer_2">
</g>
<g id="Layer_3">
	<g>
		<g>
			<linearGradient id="SVGID_1_" gradientUnits="userSpaceOnUse" x1="562.5782" y1="835.3709" x2="574.8274" y2="92.1107">
				<stop  offset="0" style="stop-color:#DA244B"/>
				<stop  offset="0.2118" style="stop-color:#E35935"/>
				<stop  offset="0.4782" style="stop-color:#EE961B"/>
				<stop  offset="0.6744" style="stop-color:#F4BC0B"/>
				<stop  offset="0.7773" style="stop-color:#F7CA05"/>
			</linearGradient>
			<path style="fill:url(#SVGID_1_);" d="M989.9,256.1H889.8v0c-12.3,24.7,5.6,53.7,33.2,53.7h46.7c22.7,0,41.1,18.5,41.1,41.1
				v407.6c0,11.5-9.3,20.8-20.8,20.8H651.1c-14.1,0-26.9,7.9-33.2,20.5L601.3,833h388.6c41.2,0,74.5-33.4,74.5-74.5V330.6
				C1064.4,289.4,1031,256.1,989.9,256.1z M525.8,799.8c-6.3-12.6-19.1-20.5-33.2-20.5H165.1c-22.6,0-41.1-18.4-41.1-41.1V330.6
				c0-11.5,9.4-20.8,20.8-20.8h75.9c27.6,0,45.5-29,33.2-53.7l0,0H144.9c-41,0-74.5,33.5-74.5,74.5v407.6
				c0,52.3,42.6,94.8,94.8,94.8h377.3L525.8,799.8z"/>
			
				<linearGradient id="SVGID_00000076596267796553152430000010460310399460715429_" gradientUnits="userSpaceOnUse" x1="569.264" y1="808.8563" x2="571.7656" y2="72.6941">
				<stop  offset="0" style="stop-color:#DA244B"/>
				<stop  offset="0.2162" style="stop-color:#E25138"/>
				<stop  offset="0.7042" style="stop-color:#F5C109"/>
				<stop  offset="0.7408" style="stop-color:#F7CA05"/>
			</linearGradient>
			<path style="fill:url(#SVGID_00000076596267796553152430000010460310399460715429_);" d="M480.2,313.6L205.7,31.9
				c-8.6-5.4-18.9,4-14.3,13.1l380.5,761.1L952.4,45c4.5-9.1-5.7-18.5-14.3-13.1l-439,283.7C493.1,319.6,485.2,318.7,480.2,313.6z"
				/>
		</g>
	</g>
</g>
<g id="Layer_5">
</g>
<g id="Layer_6">
</g>
<g id="Layer_4">
</g>
</svg>
