<?xml version="1.0" encoding="utf-8"?>
<!-- Generator: Adobe Illustrator 26.0.0, SVG Export Plug-In . SVG Version: 6.00 Build 0)  -->
<svg version="1.1" xmlns="http://www.w3.org/2000/svg" xmlns:xlink="http://www.w3.org/1999/xlink" x="0px" y="0px"
	 viewBox="0 0 2000 2000" style="enable-background:new 0 0 2000 2000;" xml:space="preserve">
<style type="text/css">
	.st0{fill:none;stroke:#A659EA;stroke-width:4;stroke-miterlimit:10;}
	.st1{fill:#A659EA;}
	.st2{fill:#633099;}
	.st3{fill:none;stroke:url(#SVGID_1_);stroke-width:4;stroke-miterlimit:10;}
	.st4{fill:none;stroke:url(#SVGID_00000045590928971174874810000007676215781812902335_);stroke-width:4;stroke-miterlimit:10;}
	.st5{fill:#FFFFFF;stroke:#000000;stroke-miterlimit:10;}
	.st6{fill:none;stroke:url(#SVGID_00000016050738687658402980000010019245787268414885_);stroke-width:7;stroke-miterlimit:10;}
	.st7{fill:#633099;stroke:#FFFFFF;stroke-width:10;stroke-miterlimit:10;}
	.st8{fill:url(#SVGID_00000139274732210258357400000006278317052456789929_);}
	.st9{fill:url(#SVGID_00000146480386972064450790000015045482667048971397_);}
	.st10{fill:url(#SVGID_00000096037437371323210450000008934935464571541690_);}
	.st11{fill:url(#SVGID_00000153670982682719241240000014196203142960881044_);}
	.st12{fill:url(#SVGID_00000011753364479492766890000002023017623756742333_);}
	.st13{fill:url(#SVGID_00000158746159144304375700000007774235099135265705_);}
	.st14{fill:url(#SVGID_00000093872123720414497530000017773684240178474378_);}
	.st15{fill:#FFFFFF;}
	.st16{fill:#1C1C1C;}
	.st17{fill:#DA244B;}
	.st18{fill:url(#SVGID_00000073681050641095463890000001572556423177427369_);}
	.st19{fill:url(#SVGID_00000124871956204383240870000014166951845410129071_);}
	.st20{fill:url(#SVGID_00000087380600935482130090000003998679847248073902_);}
	.st21{fill:url(#SVGID_00000124850120627263320410000008577596626098870458_);}
	.st22{fill:url(#SVGID_00000040540788851058000330000015990032532281043896_);}
	.st23{fill:url(#SVGID_00000008122235663085373090000010161222799614687109_);}
	.st24{fill:url(#SVGID_00000006668983484600455610000003786321939277548979_);}
	.st25{fill:url(#SVGID_00000095313645928787506030000008673050921783122337_);}
	.st26{fill:url(#SVGID_00000042018043840171826810000010284821217445001662_);}
	.st27{fill:url(#SVGID_00000098920152855887724000000016087870819504151213_);}
	.st28{fill:#6528BD;}
	.st29{fill:#CD408F;}
</style>
<g id="Layer_1">
</g>
<g id="Layer_2">
</g>
<g id="Layer_3">
	<rect y="0" class="st15" width="2000" height="2000"/>
	<g>
		<g>
			<linearGradient id="SVGID_1_" gradientUnits="userSpaceOnUse" x1="996.8773" y1="1128.7411" x2="1004.8569" y2="644.5519">
				<stop  offset="0" style="stop-color:#DA244B"/>
				<stop  offset="0.2118" style="stop-color:#E35935"/>
				<stop  offset="0.4782" style="stop-color:#EE961B"/>
				<stop  offset="0.6744" style="stop-color:#F4BC0B"/>
				<stop  offset="0.7773" style="stop-color:#F7CA05"/>
			</linearGradient>
			<path style="fill:url(#SVGID_1_);" d="M1275.2,751.4H1210l0,0c-8,16.1,3.7,35,21.6,35h30.4c14.8,0,26.8,12,26.8,26.8v265.5
				c0,7.5-6.1,13.6-13.6,13.6h-220.7c-9.2,0-17.5,5.2-21.6,13.4l-10.8,21.6h253.1c26.8,0,48.5-21.7,48.5-48.5V799.9
				C1323.8,773.1,1302,751.4,1275.2,751.4z M972.9,1105.6c-4.1-8.2-12.5-13.4-21.6-13.4H738c-14.7,0-26.8-12-26.8-26.8V799.9
				c0-7.5,6.1-13.6,13.6-13.6h49.5c18,0,29.6-18.9,21.6-35l0,0h-71.1c-26.7,0-48.5,21.8-48.5,48.5v265.5c0,34.1,27.7,61.8,61.8,61.8
				h245.8L972.9,1105.6z"/>
			
				<linearGradient id="SVGID_00000119094331595949095690000007153067822605726903_" gradientUnits="userSpaceOnUse" x1="1001.2328" y1="1111.4684" x2="1002.8624" y2="631.9033">
				<stop  offset="0" style="stop-color:#DA244B"/>
				<stop  offset="0.2162" style="stop-color:#E25138"/>
				<stop  offset="0.7042" style="stop-color:#F5C109"/>
				<stop  offset="0.7408" style="stop-color:#F7CA05"/>
			</linearGradient>
			<path style="fill:url(#SVGID_00000119094331595949095690000007153067822605726903_);" d="M943.2,788.8L764.4,605.4
				c-5.6-3.5-12.3,2.6-9.3,8.5l247.9,495.8l247.9-495.8c3-5.9-3.7-12-9.3-8.5l-286,184.8C951.6,792.7,946.4,792.1,943.2,788.8z"/>
		</g>
		<g>
			<path class="st17" d="M556,1234.4c0.7,1.8,1,3.6,1,5.5c0,1.8-0.4,3.7-1,5.5c-0.7,1.8-1.8,3.4-3.1,4.9c-1.5,1.4-3.2,2.5-5,3.2
				c-1.8,0.7-3.7,1.1-5.6,1.1s-3.8-0.3-5.6-1c-1.8-0.6-3.5-1.7-4.9-3.1c-6.8-6.8-14.3-11.8-22.6-15c-8.2-3.2-16.8-4.8-25.7-4.8
				c-9.2,0-17.9,1.7-26,5.2c-8.1,3.5-15.3,8.3-21.4,14.3c-6.1,6-10.9,13.2-14.5,21.4c-3.5,8.2-5.3,17-5.3,26.4
				c0,9.1,1.7,17.7,5,25.9c3.3,8.1,8,15.3,13.9,21.5c5.9,6.2,13,11.1,21.1,14.8c8.1,3.6,17,5.5,26.6,5.6c9,0,17.5-1.5,25.6-4.6
				c8.1-3.1,15.7-8.1,22.8-15c1.4-1.3,3-2.3,4.8-3c1.8-0.7,3.7-1,5.6-1s3.8,0.3,5.6,1c1.8,0.7,3.4,1.6,4.8,2.9
				c1.5,1.4,2.6,3,3.3,4.9s1,3.7,1,5.7s-0.4,3.8-1,5.6c-0.7,1.8-1.7,3.4-3,4.8c-9.8,9.7-20.7,16.9-32.6,21.6
				c-11.9,4.7-24.3,7-36.9,7c-8.9,0-17.4-1.2-25.6-3.4c-8.2-2.3-15.9-5.6-23.1-9.8c-7.2-4.2-13.7-9.3-19.6-15.3
				c-5.9-5.9-10.9-12.5-15.1-19.7c-4.2-7.2-7.4-14.9-9.7-23.2c-2.3-8.2-3.4-16.9-3.4-25.9c0-8.5,1.1-16.8,3.3-25
				c2.2-8.2,5.3-15.9,9.4-23.1c4-7.2,9-13.8,14.8-19.9c5.8-6.1,12.3-11.3,19.5-15.7c7.2-4.4,15-7.8,23.5-10.3
				c8.5-2.4,17.4-3.7,26.8-3.7c12.6,0,24.9,2.4,36.8,7.2c11.9,4.8,22.7,12,32.3,21.7C554.2,1231,555.4,1232.6,556,1234.4z"/>
			<path class="st17" d="M608.5,1379.2c0,4.2-1.4,7.7-4.3,10.5c-2.8,2.8-6.4,4.2-10.6,4.2s-7.7-1.4-10.6-4.2
				c-2.9-2.8-4.3-6.3-4.3-10.5v-162.5c0-4.2,1.4-7.7,4.3-10.5c2.9-2.8,6.4-4.2,10.6-4.2s7.7,1.4,10.6,4.2c2.8,2.8,4.3,6.3,4.3,10.5
				V1379.2z"/>
			<path class="st17" d="M638.2,1213.8c0.9-2,2.1-3.8,3.6-5.3c1.5-1.5,3.2-2.7,5.2-3.5c2-0.8,4.1-1.3,6.4-1.3s4.4,0.4,6.4,1.3
				c2,0.9,3.7,2,5.2,3.5c1.5,1.5,2.7,3.3,3.6,5.3s1.3,4.2,1.3,6.5c0,2.3-0.4,4.4-1.3,6.4c-0.9,2-2.1,3.7-3.6,5.2
				c-1.5,1.5-3.2,2.7-5.2,3.5c-2,0.9-4.1,1.3-6.4,1.3s-4.4-0.4-6.4-1.3c-2-0.8-3.7-2-5.2-3.5c-1.5-1.5-2.7-3.2-3.6-5.2
				c-0.9-2-1.4-4.1-1.4-6.4C636.8,1218,637.3,1215.8,638.2,1213.8z M668.5,1379c0,4.2-1.4,7.7-4.3,10.6c-2.8,2.8-6.4,4.3-10.6,4.3
				c-2,0-3.9-0.4-5.8-1.1c-1.8-0.8-3.4-1.8-4.8-3.2c-1.3-1.3-2.4-2.9-3.2-4.7c-0.8-1.8-1.2-3.7-1.2-5.8v-111.5c0-2.1,0.4-4,1.2-5.8
				c0.8-1.8,1.9-3.4,3.3-4.7c1.4-1.3,3-2.4,4.8-3.2c1.8-0.8,3.7-1.2,5.8-1.2c2.1,0,4,0.4,5.8,1.2c1.8,0.8,3.3,1.9,4.6,3.2
				c1.3,1.4,2.3,2.9,3.1,4.7c0.8,1.8,1.1,3.7,1.1,5.8V1379z"/>
			<path class="st17" d="M720.3,1323.9l-0.2,0.3l0.2,0.2c0,5.1,1,10.1,2.9,14.9c1.9,4.8,4.7,9.2,8.2,13c3.5,3.8,7.6,6.9,12.4,9.3
				c4.7,2.3,9.9,3.6,15.5,3.7c5.1,0.2,10-0.4,14.7-1.8c4.7-1.4,9.3-4,13.8-7.8c1.5-1.2,3.1-2.4,4.9-3.5c1.8-1.1,3.6-1.9,5.5-2.4
				c1.9-0.4,4-0.4,6.3,0.1c2.2,0.5,4.6,1.8,7,3.9c1.6,1.4,2.8,3,3.6,4.9c0.8,1.9,1.2,3.8,1.1,5.8c0,2-0.5,4-1.4,6.1
				c-0.9,2-2.2,4-4,5.8c-6.1,6.3-13.4,11.1-21.9,14.3c-8.5,3.2-17.4,4.9-26.8,4.9c-10,0-19.4-1.8-28.1-5.5
				c-8.7-3.6-16.4-8.6-22.9-15c-6.5-6.3-11.7-13.8-15.5-22.5c-3.8-8.6-5.7-17.9-5.7-27.8v-0.2l0.1-0.3l-0.1-0.2
				c0-10,1.9-19.3,5.7-28c3.8-8.7,9-16.3,15.5-22.8c6.5-6.5,14.2-11.6,22.9-15.4c8.7-3.7,18.1-5.6,28.1-5.6c9.4,0,18.3,1.6,26.8,4.9
				c8.5,3.2,15.8,8,21.9,14.3c1.8,1.8,3.1,3.7,4,5.8c0.9,2,1.4,4.1,1.4,6.1c0,2-0.3,4-1.1,5.9c-0.8,1.9-2,3.5-3.6,4.9
				c-2.4,2.1-4.7,3.4-7,3.9c-2.2,0.5-4.3,0.5-6.3,0c-2-0.5-3.8-1.3-5.5-2.5c-1.8-1.1-3.4-2.3-4.9-3.5c-4.5-3.7-9.1-6.2-13.8-7.6
				c-4.7-1.4-9.6-2-14.7-1.9c-5.5,0.2-10.6,1.5-15.4,3.8c-4.7,2.4-8.9,5.4-12.4,9.3c-3.5,3.8-6.3,8.2-8.2,13
				C721.3,1313.7,720.3,1318.7,720.3,1323.9z"/>
			<path class="st17" d="M908.1,1312l38.2,58.6c1.2,1.8,2,3.7,2.3,5.6c0.3,2,0.2,3.9-0.2,5.8s-1.1,3.6-2.2,5.2c-1.1,1.6-2.5,3-4.2,4
				c-1.7,1.2-3.5,2-5.4,2.3c-1.9,0.3-3.8,0.3-5.7-0.1c-1.9-0.4-3.6-1.2-5.2-2.2s-2.9-2.5-4-4.2l-35.7-54.3l-18.6,17.7v28.6
				c0,2.1-0.4,4-1.1,5.8c-0.7,1.8-1.8,3.3-3.1,4.6c-1.4,1.4-2.9,2.4-4.6,3.2c-1.8,0.7-3.6,1.1-5.6,1.1c-4.2,0-7.8-1.4-10.7-4.2
				s-4.4-6.3-4.4-10.5v-162.5c0-2.1,0.4-4,1.2-5.8c0.8-1.7,1.9-3.3,3.3-4.6c1.4-1.4,3-2.4,4.9-3.1c1.8-0.8,3.8-1.1,5.8-1.1
				c4.2,0,7.7,1.4,10.5,4.2c2.8,2.8,4.2,6.3,4.2,10.5v94.7l54.4-53.2c1.5-1.4,3.1-2.4,4.9-3.1c1.7-0.7,3.5-1,5.4-0.9
				c1.8,0.1,3.6,0.5,5.4,1.3c1.7,0.8,3.3,1.9,4.7,3.4v0.3c1.4,1.5,2.4,3.1,3.1,4.9c0.7,1.8,1,3.6,1,5.5c0,1.8-0.4,3.6-1.1,5.4
				c-0.8,1.7-1.8,3.3-3.2,4.7L908.1,1312z"/>
			<path class="st17" d="M1008.4,1315.2v64c0,4.2-1.4,7.7-4.3,10.5c-2.9,2.8-6.4,4.2-10.6,4.2s-7.7-1.4-10.6-4.2s-4.3-6.3-4.3-10.5
				v-162.5c0-4.2,1.4-7.7,4.3-10.5c2.8-2.8,6.4-4.2,10.6-4.2h50.2c8,0,15.5,1.5,22.6,4.4c7,2.9,13.2,7,18.4,12.1
				c5.2,5.1,9.4,11.1,12.4,18.1c3,6.9,4.5,14.4,4.5,22.3c0,8-1.5,15.4-4.5,22.3c-3,6.8-7.1,12.8-12.4,17.8c-5.2,5-11.4,9-18.4,11.9
				c-7,2.9-14.6,4.3-22.6,4.3H1008.4z M1008.4,1231.5v53.8h35.4c3.8,0,7.4-0.8,10.8-2.2c3.4-1.5,6.4-3.5,8.9-6
				c2.5-2.5,4.5-5.4,6-8.7c1.4-3.3,2.2-6.7,2.2-10.3c0-3.7-0.8-7.2-2.2-10.4c-1.5-3.2-3.5-6.1-6.1-8.5c-2.6-2.4-5.5-4.3-8.9-5.6
				c-3.4-1.4-7-2-10.8-2H1008.4z"/>
			<path class="st17" d="M1116.4,1296.4c3.7-8.6,8.9-16.2,15.4-22.7s14.1-11.6,22.8-15.4c8.7-3.7,17.9-5.6,27.7-5.6
				c9.9,0,19.2,1.9,27.8,5.6c8.6,3.7,16.2,8.9,22.6,15.4c6.4,6.5,11.5,14.1,15.3,22.7c3.7,8.6,5.6,17.9,5.6,27.8
				c0,9.9-1.9,19.2-5.6,27.8c-3.7,8.6-8.8,16.2-15.3,22.7c-6.4,6.5-14,11.6-22.6,15.4c-8.6,3.7-17.9,5.6-27.8,5.6
				c-9.8,0-19-1.9-27.7-5.6c-8.7-3.7-16.3-8.9-22.8-15.4c-6.5-6.5-11.6-14.1-15.4-22.7c-3.7-8.6-5.6-17.9-5.6-27.8
				C1110.8,1314.3,1112.6,1305,1116.4,1296.4z M1144,1340.3c2.2,5,5.2,9.4,8.9,13.2c3.7,3.7,8.1,6.7,13.2,8.9
				c5,2.2,10.4,3.3,16.1,3.3c5.8,0,11.2-1.1,16.3-3.3c5-2.2,9.4-5.2,13.2-8.9c3.7-3.7,6.7-8.1,8.8-13.2c2.1-5,3.2-10.4,3.2-16.1
				c0-5.8-1.1-11.2-3.2-16.2c-2.2-5-5.1-9.4-8.8-13.1c-3.7-3.7-8.1-6.7-13.2-8.8c-5-2.1-10.5-3.2-16.3-3.2c-5.7,0-11.1,1.1-16.1,3.2
				c-5,2.2-9.4,5.1-13.2,8.8c-3.7,3.7-6.7,8.1-8.9,13.1c-2.2,5-3.3,10.4-3.3,16.2C1140.7,1329.9,1141.8,1335.2,1144,1340.3z"/>
			<path class="st17" d="M1298.9,1329c-5.6-2.4-10.7-5.3-15.1-8.5c-4.4-3.2-8-7.1-10.6-11.5c-2.7-4.4-4-9.6-4-15.6
				c0-6.3,1.4-12,4.1-17.1c2.8-5.1,6.4-9.4,10.9-13c4.5-3.5,9.8-6.3,15.7-8.2c5.9-2,12.1-2.9,18.5-2.9c4.2,0,8.5,0.4,12.9,1.3
				c4.4,0.9,8.6,2.1,12.6,3.8c4,1.7,7.6,3.7,10.8,6.3c3.2,2.5,5.6,5.5,7.3,8.9c1.4,2.9,1.9,5.6,1.5,8.2c-0.4,2.6-1.4,4.7-3.1,6.5
				c-1.8,2-4,3.4-6.7,4.1c-2.7,0.8-5.3,0.5-7.9-0.7c-2.1-1.5-4.1-3-6-4.4c-1.9-1.4-3.8-2.7-5.8-3.8c-2-1.1-4-2-6.1-2.7
				c-2.1-0.7-4.6-1-7.3-1c-6.1,0-11.2,1.2-15.3,3.4c-4.1,2.3-6.1,5.8-6.1,10.6c0,2.4,0.6,4.5,1.9,6.3c1.3,1.8,3.1,3.4,5.3,4.8
				c2.2,1.4,4.9,2.7,8,3.8c3.1,1.1,6.5,2.3,10.2,3.4c6,1.9,11.7,3.9,17.1,6.1c5.4,2.2,10.2,4.9,14.3,8.1c4.1,3.2,7.4,7,9.9,11.5
				c2.4,4.5,3.7,9.9,3.7,16.3c0,6-1.3,11.6-3.8,16.7c-2.5,5.1-6.1,9.6-10.6,13.4c-4.5,3.8-9.8,6.8-16,9c-6.1,2.2-12.8,3.3-20,3.3
				c-4.7,0-9.6-0.5-14.6-1.4c-5-1-9.9-2.5-14.5-4.5c-4.6-2.1-8.9-4.7-12.7-7.9c-3.8-3.2-7-7.1-9.4-11.6c-1.6-2.9-2.4-5.6-2.3-8.2
				c0-2.5,0.6-4.8,1.8-6.7c1.2-1.9,2.7-3.4,4.6-4.6c2-1.1,4.1-1.8,6.5-1.9s4.8,0.3,7.3,1.4s4.8,2.9,6.9,5.5
				c3.2,4.7,6.8,8.1,10.9,10.3c4,2.1,9.2,3.2,15.4,3.2c2.7,0,5.3-0.3,7.9-1c2.6-0.7,4.9-1.7,7-2.9c2-1.2,3.7-2.8,4.9-4.6
				c1.2-1.8,1.8-4,1.8-6.4c0-2.9-0.8-5.3-2.4-7.3c-1.6-2-3.6-3.7-6-5c-2.4-1.4-5-2.5-7.9-3.4c-2.8-0.9-5.5-1.7-8-2.6
				C1310.4,1333.8,1304.6,1331.5,1298.9,1329z"/>
			<path class="st17" d="M1435,1253h12.9c4.3,0,7.9,1.4,10.7,4.2c2.8,2.8,4.3,6.3,4.3,10.5c0,4.3-1.4,7.9-4.3,10.8
				c-2.8,2.9-6.4,4.3-10.7,4.3H1435v96.4c0,4.2-1.4,7.7-4.3,10.5c-2.8,2.8-6.4,4.2-10.6,4.2c-4.2,0-7.7-1.4-10.6-4.2
				c-2.9-2.8-4.3-6.3-4.3-10.5v-96.4h-10.8c-2.1,0-4-0.4-5.8-1.2c-1.8-0.8-3.4-1.9-4.7-3.3c-1.3-1.4-2.4-3-3.2-4.8
				c-0.8-1.8-1.2-3.7-1.2-5.8c0-4.2,1.4-7.7,4.3-10.5c2.9-2.8,6.5-4.2,10.6-4.2h10.8v-36.3c0-4.2,1.4-7.7,4.3-10.5
				c2.9-2.8,6.5-4.2,10.6-4.2c4.2,0,7.7,1.4,10.6,4.2c2.8,2.8,4.3,6.3,4.3,10.5V1253z"/>
			<path class="st17" d="M1470.8,1324.2c0-9.9,1.9-19.2,5.6-27.8c3.7-8.6,8.9-16.2,15.4-22.7s14.1-11.6,22.8-15.4
				c8.7-3.7,17.9-5.6,27.7-5.6s19,1.8,27.6,5.5c8.6,3.7,16.1,8.8,22.6,15.2c6.5,6.4,11.6,14,15.4,22.6c3.8,8.6,5.7,17.8,5.8,27.6v55
				c0,2.1-0.4,4.1-1.2,5.9c-0.8,1.8-1.9,3.5-3.2,4.9c-1.4,1.4-3,2.5-4.9,3.3c-1.9,0.8-3.9,1.2-6,1.2c-4,0-7.3-1.3-10-3.9
				c-2.7-2.6-4.2-5.8-4.6-9.6c-5.9,4.8-12.3,8.5-19.3,11.3c-7,2.7-14.4,4.1-22.2,4.1c-9.8,0-19-1.9-27.7-5.6
				c-8.7-3.7-16.3-8.9-22.8-15.4c-6.5-6.5-11.6-14.1-15.4-22.7C1472.7,1343.3,1470.8,1334.1,1470.8,1324.2z M1500.6,1324.2
				c0,5.7,1.1,11.1,3.3,16.1c2.2,5.1,5.2,9.5,8.9,13.2c3.8,3.8,8.2,6.7,13.2,8.9c5,2.2,10.4,3.3,16.1,3.3c5.8,0,11.2-1.1,16.3-3.3
				c5.1-2.2,9.5-5.2,13.2-8.9c3.8-3.8,6.7-8.2,8.9-13.2c2.2-5.1,3.2-10.4,3.2-16.1c0-5.8-1.1-11.2-3.2-16.2c-2.1-5-5.1-9.4-8.9-13.1
				c-3.8-3.8-8.2-6.7-13.2-8.9c-5.1-2.2-10.5-3.2-16.3-3.2c-5.7,0-11.1,1.1-16.1,3.2c-5.1,2.2-9.5,5.1-13.2,8.9
				c-3.7,3.8-6.7,8.1-8.9,13.1C1501.7,1313,1500.6,1318.4,1500.6,1324.2z"/>
		</g>
	</g>
</g>
<g id="Layer_5">
</g>
<g id="Layer_6">
</g>
<g id="Layer_4">
</g>
</svg>
