<?xml version="1.0" encoding="utf-8"?>
<!-- Generator: Adobe Illustrator 26.0.0, SVG Export Plug-In . SVG Version: 6.00 Build 0)  -->
<svg version="1.1" xmlns="http://www.w3.org/2000/svg" xmlns:xlink="http://www.w3.org/1999/xlink" x="0px" y="0px"
	 viewBox="0 0 2000 375.8" style="enable-background:new 0 0 2000 375.8;" xml:space="preserve">
<style type="text/css">
	.st0{fill:none;stroke:#A659EA;stroke-width:4;stroke-miterlimit:10;}
	.st1{fill:#A659EA;}
	.st2{fill:#633099;}
	.st3{fill:none;stroke:url(#SVGID_1_);stroke-width:4;stroke-miterlimit:10;}
	.st4{fill:none;stroke:url(#SVGID_00000011724857371026675450000015545214920365015936_);stroke-width:4;stroke-miterlimit:10;}
	.st5{fill:#FFFFFF;stroke:#000000;stroke-miterlimit:10;}
	.st6{fill:none;stroke:url(#SVGID_00000015324537216903378000000006676147012998418879_);stroke-width:7;stroke-miterlimit:10;}
	.st7{fill:#633099;stroke:#FFFFFF;stroke-width:10;stroke-miterlimit:10;}
	.st8{fill:url(#SVGID_00000101100624118872173260000016496713810541701052_);}
	.st9{fill:url(#SVGID_00000122680242046096293900000012635716404991687057_);}
	.st10{fill:url(#SVGID_00000083046876146693002930000000983141051874488214_);}
	.st11{fill:url(#SVGID_00000173152381176805956460000004271048362029096857_);}
	.st12{fill:url(#SVGID_00000108273345139568825740000011906902616477183113_);}
	.st13{fill:url(#SVGID_00000076581285862179925250000005098241868936356764_);}
	.st14{fill:url(#SVGID_00000124129065835479904590000007076927795368736692_);}
	.st15{fill:#FFFFFF;}
	.st16{fill:#1C1C1C;}
	.st17{fill:#DA244B;}
	.st18{fill:url(#SVGID_00000047058723063518975840000018057209520069057933_);}
	.st19{fill:url(#SVGID_00000047741571167701175850000017432532865051466371_);}
	.st20{fill:url(#SVGID_00000173119000438204799830000007718204344666142115_);}
	.st21{fill:url(#SVGID_00000083797539758223640780000016323045785702444455_);}
	.st22{fill:url(#SVGID_00000075155199741839670990000001192544077956615084_);}
	.st23{fill:url(#SVGID_00000118375072591825381280000002968669503672053891_);}
	.st24{fill:url(#SVGID_00000165196115743261607590000007184776331868303516_);}
	.st25{fill:url(#SVGID_00000119080341603335582410000005911765270255776658_);}
	.st26{fill:url(#SVGID_00000053541941613055084460000013643195590840132250_);}
	.st27{fill:url(#SVGID_00000183958799799692365620000008620110564122786439_);}
	.st28{fill:#6528BD;}
	.st29{fill:#CD408F;}
</style>
<g id="Layer_1">
</g>
<g id="Layer_2">
</g>
<g id="Layer_3">
	<g>
		<g>
			<path class="st17" d="M318.5,90c1.1,2.8,1.6,5.6,1.6,8.4c0,2.8-0.5,5.6-1.6,8.4c-1.1,2.8-2.7,5.3-4.8,7.6c-2.3,2.1-4.9,3.8-7.7,5
				c-2.8,1.1-5.7,1.7-8.6,1.7s-5.8-0.5-8.6-1.5c-2.8-1-5.3-2.6-7.5-4.7c-10.4-10.4-22-18.1-34.6-23c-12.7-4.9-25.8-7.4-39.5-7.4
				c-14.1,0-27.4,2.7-39.9,8.1c-12.5,5.4-23.4,12.7-32.8,22s-16.8,20.2-22.2,32.8c-5.4,12.6-8.2,26.1-8.2,40.5
				c0,14,2.6,27.2,7.7,39.7c5.1,12.5,12.3,23.5,21.4,33c9.1,9.5,19.9,17.1,32.4,22.7c12.5,5.6,26.1,8.5,40.8,8.6
				c13.8,0,26.9-2.4,39.4-7.1c12.4-4.8,24.1-12.4,35-23c2.1-2,4.6-3.5,7.4-4.6c2.8-1.1,5.6-1.6,8.6-1.6c3,0,5.9,0.5,8.6,1.5
				c2.8,1,5.2,2.5,7.4,4.5c2.3,2.1,4,4.6,5.1,7.5c1.1,2.8,1.6,5.8,1.6,8.7s-0.5,5.9-1.6,8.6c-1.1,2.8-2.6,5.2-4.6,7.4
				c-15,14.9-31.7,25.9-50,33.1s-37.2,10.8-56.7,10.8c-13.6,0-26.8-1.8-39.3-5.3c-12.6-3.5-24.4-8.5-35.4-15.1
				c-11-6.5-21.1-14.3-30.1-23.5c-9-9.1-16.8-19.2-23.2-30.3c-6.4-11-11.4-22.9-15-35.5c-3.5-12.7-5.3-25.9-5.3-39.7
				c0-13,1.7-25.8,5.1-38.4c3.4-12.6,8.2-24.4,14.4-35.4c6.2-11,13.8-21.2,22.7-30.6c8.9-9.3,18.9-17.4,29.9-24.2
				c11-6.7,23.1-12,36.1-15.8c13-3.8,26.8-5.6,41.2-5.6c19.3,0,38.2,3.7,56.5,11c18.3,7.4,34.9,18.5,49.6,33.4
				C315.7,84.8,317.4,87.2,318.5,90z"/>
			<path class="st17" d="M399,312.2c0,6.4-2.2,11.8-6.6,16.1c-4.4,4.3-9.8,6.4-16.2,6.4c-6.4,0-11.9-2.1-16.3-6.4
				c-4.4-4.3-6.7-9.7-6.7-16.1V62.8c0-6.4,2.2-11.8,6.7-16.1c4.4-4.3,9.9-6.4,16.3-6.4c6.4,0,11.8,2.1,16.2,6.4
				c4.4,4.3,6.6,9.7,6.6,16.1V312.2z"/>
			<path class="st17" d="M444.6,58.3c1.4-3.1,3.2-5.9,5.5-8.2c2.3-2.3,5-4.1,8.1-5.4c3.1-1.3,6.4-2,9.9-2c3.5,0,6.8,0.7,9.9,2
				c3.1,1.3,5.8,3.1,8.1,5.4c2.3,2.3,4.1,5,5.5,8.2c1.4,3.1,2.1,6.5,2.1,10c0,3.5-0.7,6.8-2.1,9.9c-1.4,3.1-3.2,5.8-5.5,8.1
				c-2.3,2.3-5,4.1-8.1,5.4c-3.1,1.3-6.4,2-9.9,2c-3.5,0-6.8-0.6-9.9-2c-3.1-1.3-5.8-3.1-8.1-5.4c-2.3-2.3-4.1-5-5.5-8.1
				c-1.4-3.1-2.1-6.4-2.1-9.9C442.5,64.8,443.2,61.5,444.6,58.3z M491.1,312c0,6.4-2.2,11.8-6.6,16.2c-4.4,4.4-9.8,6.6-16.2,6.6
				c-3.1,0-6-0.6-8.9-1.7c-2.8-1.2-5.3-2.8-7.4-4.8c-2.1-2.1-3.7-4.5-4.9-7.2c-1.2-2.8-1.8-5.8-1.8-9V140.8c0-3.2,0.6-6.2,1.8-9
				c1.2-2.8,2.9-5.2,5.1-7.2c2.1-2.1,4.6-3.7,7.4-4.9c2.8-1.2,5.8-1.8,9-1.8s6.2,0.6,9,1.8c2.8,1.2,5.1,2.9,7.1,4.9
				c2,2.1,3.6,4.5,4.7,7.2c1.2,2.8,1.7,5.8,1.7,9V312z"/>
			<path class="st17" d="M570.7,227.3l-0.2,0.5l0.2,0.2c0,7.8,1.5,15.5,4.5,22.9c3,7.4,7.2,14.1,12.5,20c5.4,5.9,11.7,10.7,19,14.3
				c7.3,3.6,15.2,5.5,23.8,5.6c7.8,0.3,15.3-0.6,22.5-2.8c7.2-2.1,14.3-6.1,21.2-12c2.3-1.8,4.8-3.6,7.5-5.4c2.7-1.8,5.5-3,8.5-3.7
				c3-0.7,6.2-0.7,9.7,0.1c3.5,0.8,7,2.8,10.7,6c2.5,2.1,4.3,4.7,5.5,7.6c1.2,2.9,1.8,5.9,1.7,9c-0.1,3.1-0.8,6.2-2.2,9.3
				c-1.4,3.1-3.4,6.1-6.2,8.9c-9.4,9.7-20.6,17-33.6,22c-13,5-26.8,7.5-41.2,7.5c-15.3,0-29.7-2.8-43.1-8.4
				c-13.4-5.6-25.2-13.3-35.2-23c-10.1-9.7-18-21.2-23.8-34.5c-5.8-13.3-8.7-27.5-8.7-42.7v-0.2l0.2-0.5l-0.2-0.2
				c0-15.3,2.9-29.7,8.7-43c5.8-13.3,13.8-25,23.8-35c10-10,21.8-17.8,35.2-23.6c13.4-5.8,27.8-8.6,43.1-8.6
				c14.4,0,28.1,2.5,41.2,7.5c13,5,24.2,12.3,33.6,22c2.8,2.8,4.8,5.7,6.2,8.9c1.4,3.1,2.1,6.3,2.2,9.4s-0.5,6.2-1.7,9.1
				c-1.2,2.9-3.1,5.4-5.5,7.6c-3.7,3.2-7.2,5.2-10.7,6c-3.4,0.8-6.7,0.8-9.7,0c-3-0.8-5.8-2-8.5-3.8s-5.2-3.6-7.5-5.4
				c-6.9-5.7-14-9.6-21.2-11.7c-7.2-2.1-14.7-3.1-22.5-3c-8.4,0.3-16.3,2.3-23.6,5.9c-7.3,3.6-13.6,8.4-19,14.3
				c-5.4,5.9-9.6,12.6-12.7,20C572.2,211.7,570.7,219.4,570.7,227.3z"/>
			<path class="st17" d="M859,209.2l58.7,90c1.8,2.8,3,5.6,3.5,8.6c0.4,3,0.4,5.9-0.2,8.9c-0.6,2.9-1.8,5.6-3.4,8.1
				c-1.7,2.5-3.8,4.5-6.4,6.2c-2.6,1.8-5.4,3-8.3,3.6c-2.9,0.5-5.8,0.5-8.7-0.1c-2.9-0.6-5.6-1.8-8.1-3.5c-2.4-1.7-4.5-3.8-6.2-6.4
				l-54.8-83.3l-28.5,27.2v43.9c0,3.2-0.6,6.2-1.7,8.9c-1.1,2.7-2.8,5.1-4.8,7.1c-2.1,2.1-4.4,3.7-7.1,4.8c-2.7,1.1-5.6,1.7-8.6,1.7
				c-6.4,0-11.9-2.1-16.5-6.4c-4.5-4.3-6.8-9.7-6.8-16.1V62.8c0-3.2,0.6-6.2,1.8-8.9c1.2-2.7,2.9-5.1,5.1-7.1
				c2.1-2.1,4.6-3.7,7.5-4.8c2.8-1.2,5.8-1.7,8.9-1.7c6.4,0,11.8,2.1,16.1,6.4c4.3,4.3,6.4,9.7,6.4,16.1v145.4l83.5-81.7
				c2.3-2.1,4.8-3.8,7.5-4.8c2.7-1.1,5.4-1.5,8.3-1.4c2.8,0.2,5.6,0.8,8.3,2c2.7,1.2,5.1,2.9,7.2,5.2v0.5c2.1,2.3,3.8,4.8,4.8,7.6
				c1.1,2.8,1.6,5.6,1.6,8.4c0,2.8-0.6,5.6-1.7,8.3c-1.2,2.7-2.8,5.1-5,7.2L859,209.2z"/>
			<path class="st17" d="M1012.9,214v98.2c0,6.4-2.2,11.8-6.7,16.1c-4.4,4.3-9.9,6.4-16.3,6.4s-11.8-2.1-16.2-6.4
				c-4.4-4.3-6.6-9.7-6.6-16.1V62.8c0-6.4,2.2-11.8,6.6-16.1c4.4-4.3,9.8-6.4,16.2-6.4h77.1c12.3,0,23.8,2.3,34.6,6.8
				c10.8,4.5,20.3,10.7,28.3,18.5c8.1,7.8,14.4,17.1,19,27.7c4.6,10.7,6.9,22.1,6.9,34.2c0,12.3-2.3,23.7-6.9,34.2
				c-4.6,10.5-10.9,19.6-19,27.4s-17.5,13.8-28.3,18.3c-10.8,4.4-22.3,6.7-34.6,6.7H1012.9z M1012.9,85.6v82.6h54.3
				c5.8,0,11.3-1.2,16.6-3.5c5.2-2.3,9.8-5.4,13.7-9.2c3.9-3.8,7-8.3,9.2-13.3c2.2-5.1,3.3-10.4,3.3-15.9c0-5.7-1.2-11-3.5-16
				c-2.3-5-5.4-9.3-9.3-13c-3.9-3.7-8.5-6.6-13.7-8.6c-5.2-2.1-10.7-3.1-16.6-3.1H1012.9z"/>
			<path class="st17" d="M1178.7,185.1c5.8-13.3,13.6-24.9,23.6-34.9c10-10,21.6-17.8,35-23.6c13.3-5.8,27.5-8.6,42.6-8.6
				c15.2,0,29.4,2.9,42.7,8.6c13.3,5.8,24.8,13.6,34.7,23.6c9.9,10,17.7,21.6,23.5,34.9c5.8,13.3,8.6,27.5,8.6,42.7
				c0,15.2-2.9,29.4-8.6,42.7c-5.8,13.3-13.6,24.9-23.5,34.9c-9.9,10-21.5,17.8-34.7,23.6c-13.3,5.8-27.5,8.6-42.7,8.6
				c-15,0-29.2-2.9-42.6-8.6c-13.3-5.8-25-13.6-35-23.6c-10-10-17.8-21.6-23.6-34.9c-5.8-13.3-8.6-27.5-8.6-42.7
				C1170,212.6,1172.9,198.4,1178.7,185.1z M1221.1,252.5c3.4,7.7,7.9,14.5,13.7,20.2c5.8,5.8,12.5,10.3,20.2,13.7
				c7.7,3.4,16,5.1,24.7,5.1c8.9,0,17.2-1.7,25-5.1c7.7-3.4,14.5-7.9,20.3-13.7c5.8-5.8,10.3-12.5,13.6-20.2
				c3.3-7.7,4.9-16,4.9-24.7c0-8.9-1.6-17.2-4.9-24.9c-3.3-7.7-7.8-14.4-13.6-20.1s-12.5-10.3-20.3-13.6c-7.7-3.3-16.1-5-25-5
				c-8.7,0-17,1.7-24.7,5c-7.7,3.3-14.5,7.8-20.2,13.6s-10.3,12.5-13.7,20.1c-3.4,7.7-5.1,16-5.1,24.9
				C1216,236.5,1217.7,244.8,1221.1,252.5z"/>
			<path class="st17" d="M1458.9,235.3c-8.7-3.8-16.4-8.1-23.2-13.1c-6.8-5-12.3-10.9-16.3-17.6c-4.1-6.7-6.1-14.7-6.1-23.9
				c0-9.7,2.1-18.4,6.3-26.2c4.2-7.8,9.8-14.5,16.8-19.9c7-5.4,15-9.7,24.2-12.7c9.1-3,18.6-4.5,28.4-4.5c6.4,0,13,0.7,19.8,2
				c6.7,1.3,13.2,3.2,19.3,5.8c6.1,2.5,11.7,5.8,16.6,9.6c4.9,3.9,8.7,8.4,11.3,13.7c2.1,4.5,2.9,8.7,2.3,12.6
				c-0.6,3.9-2.2,7.3-4.8,10c-2.8,3.1-6.2,5.2-10.4,6.3c-4.1,1.2-8.2,0.8-12.2-1c-3.2-2.3-6.3-4.6-9.2-6.8c-2.9-2.2-5.9-4.2-8.9-5.9
				c-3-1.7-6.1-3.1-9.4-4.1c-3.3-1.1-7-1.6-11.2-1.6c-9.4,0-17.2,1.8-23.5,5.3c-6.3,3.5-9.4,9-9.4,16.3c0,3.7,1,6.9,3,9.7
				c2,2.8,4.7,5.2,8.2,7.4c3.4,2.1,7.5,4.1,12.3,5.9c4.8,1.8,10,3.5,15.6,5.2c9.2,2.9,17.9,6.1,26.2,9.4c8.3,3.4,15.6,7.5,22,12.4
				c6.4,4.9,11.4,10.8,15.2,17.7c3.8,6.9,5.6,15.3,5.6,25.1c0,9.2-2,17.8-5.9,25.7c-3.9,7.9-9.3,14.8-16.2,20.6
				c-6.9,5.8-15.1,10.4-24.5,13.8c-9.4,3.4-19.7,5.1-30.7,5.1c-7.2,0-14.7-0.7-22.4-2.2c-7.7-1.5-15.2-3.8-22.3-6.9
				c-7.1-3.2-13.7-7.2-19.6-12.1c-5.9-4.9-10.7-10.9-14.4-17.8c-2.5-4.4-3.6-8.6-3.6-12.5c0.1-3.9,1-7.3,2.8-10.2
				c1.8-2.9,4.1-5.3,7.1-7c3-1.8,6.3-2.8,10-3c3.7-0.2,7.4,0.5,11.3,2.2c3.8,1.7,7.4,4.5,10.6,8.5c4.9,7.2,10.5,12.5,16.7,15.8
				c6.2,3.3,14.1,4.9,23.6,4.9c4.1,0,8.2-0.5,12.2-1.6c4-1.1,7.5-2.6,10.7-4.5s5.6-4.3,7.5-7.1c1.8-2.8,2.8-6.1,2.8-9.8
				c0-4.4-1.2-8.2-3.7-11.3c-2.5-3.1-5.5-5.6-9.2-7.7c-3.7-2.1-7.7-3.8-12.1-5.2c-4.4-1.4-8.5-2.7-12.3-3.9
				C1476.5,242.5,1467.5,239,1458.9,235.3z"/>
			<path class="st17" d="M1667.7,118.5h19.8c6.6,0,12.1,2.1,16.5,6.4c4.4,4.3,6.6,9.7,6.6,16.1c0,6.6-2.2,12.1-6.6,16.6
				c-4.4,4.4-9.9,6.7-16.5,6.7h-19.8v147.9c0,6.4-2.2,11.8-6.6,16.1c-4.4,4.3-9.8,6.4-16.2,6.4c-6.4,0-11.9-2.1-16.3-6.4
				c-4.4-4.3-6.7-9.7-6.7-16.1V164.3h-16.6c-3.2,0-6.2-0.6-9-1.8c-2.8-1.2-5.2-2.9-7.2-5.1s-3.7-4.6-4.9-7.4c-1.2-2.8-1.8-5.8-1.8-9
				c0-6.4,2.2-11.8,6.7-16.1c4.4-4.3,9.9-6.4,16.3-6.4h16.6V62.8c0-6.4,2.2-11.8,6.7-16.1c4.4-4.3,9.9-6.4,16.3-6.4
				c6.4,0,11.8,2.1,16.2,6.4c4.4,4.3,6.6,9.7,6.6,16.1V118.5z"/>
			<path class="st17" d="M1722.7,227.8c0-15.2,2.9-29.4,8.6-42.7c5.8-13.3,13.6-24.9,23.6-34.9c10-10,21.6-17.8,35-23.6
				c13.3-5.8,27.5-8.6,42.6-8.6s29.1,2.8,42.3,8.5c13.2,5.7,24.7,13.5,34.6,23.4c9.9,9.9,17.8,21.4,23.6,34.6
				c5.8,13.2,8.8,27.3,9,42.3v84.4c0,3.2-0.6,6.2-1.8,9.1c-1.2,2.8-2.9,5.3-4.9,7.5c-2.1,2.1-4.6,3.8-7.5,5.1
				c-2.9,1.2-6,1.8-9.2,1.8c-6.1,0-11.2-2-15.3-6.1c-4.1-4-6.4-9-7-14.8c-9,7.3-18.9,13.1-29.7,17.3c-10.7,4.2-22.1,6.3-34.1,6.3
				c-15,0-29.2-2.9-42.6-8.6c-13.3-5.8-25-13.6-35-23.6c-10-10-17.8-21.6-23.6-34.9C1725.6,257.2,1722.7,243,1722.7,227.8z
				 M1768.5,227.9c0,8.8,1.7,17,5.1,24.8c3.4,7.8,8,14.5,13.7,20.3c5.8,5.8,12.5,10.3,20.3,13.7c7.8,3.4,16,5.1,24.8,5.1
				c8.9,0,17.2-1.7,25-5.1c7.8-3.4,14.5-8,20.3-13.7c5.8-5.8,10.3-12.5,13.6-20.3c3.3-7.8,5-16,5-24.8c0-8.9-1.6-17.2-5-24.9
				c-3.3-7.7-7.8-14.4-13.6-20.2c-5.8-5.8-12.5-10.3-20.3-13.6c-7.8-3.3-16.1-5-25-5c-8.8,0-17,1.7-24.8,5
				c-7.8,3.3-14.5,7.8-20.3,13.6c-5.8,5.8-10.3,12.5-13.7,20.2C1770.1,210.7,1768.5,219,1768.5,227.9z"/>
		</g>
	</g>
</g>
<g id="Layer_5">
</g>
<g id="Layer_6">
</g>
<g id="Layer_4">
</g>
</svg>
