<?xml version="1.0" encoding="utf-8"?>
<!-- Generator: Adobe Illustrator 25.0.1, SVG Export Plug-In . SVG Version: 6.00 Build 0)  -->
<svg version="1.1" id="Layer_1" xmlns="http://www.w3.org/2000/svg" xmlns:xlink="http://www.w3.org/1999/xlink" x="0px" y="0px"
	 viewBox="0 0 850 850" style="enable-background:new 0 0 850 850;" xml:space="preserve">
<style type="text/css">
	.st0{fill:#DA244B;}
	.st1{fill:none;stroke:#FFFFFF;stroke-width:16.1132;stroke-miterlimit:10;}
	.st2{fill:none;stroke:#FFFFFF;stroke-width:16.1132;stroke-linecap:round;stroke-miterlimit:10;}
	.st3{fill-rule:evenodd;clip-rule:evenodd;fill:#FFFFFF;stroke:#DA244B;stroke-width:28.2348;stroke-miterlimit:10;}
	.st4{fill-rule:evenodd;clip-rule:evenodd;fill:#FFFFFF;stroke:#DA244B;stroke-width:7.0587;stroke-miterlimit:10;}
	.st5{fill:#FFFFFF;stroke:#DA244B;stroke-width:30.5158;stroke-miterlimit:10;}
	.st6{fill:#FFFFFF;stroke:#DA244B;stroke-width:7.629;stroke-miterlimit:10;}
	.st7{fill:#FFFFFF;stroke:#DA244B;stroke-width:26.4363;stroke-miterlimit:10;}
	.st8{fill:#FFFFFF;stroke:#DA244B;stroke-width:6.61;stroke-miterlimit:10;}
</style>
<g id="Layer_2_2_">
	<circle class="st0" cx="420" cy="420.4" r="361.2"/>
</g>
<g id="Layer_1_2_">
	<g>
		<path class="st1" d="M536.4,283.4h-47.7v9.2c0,3.8-3.1,6.9-6.9,6.9H358.6c-3.8,0-6.9-3.1-6.9-6.9v-9.2H304
			c-9.1-0.1-16.6,7.2-16.7,16.3l0,0v281.5c0.1,9.1,7.6,16.5,16.7,16.3l0,0h232.4c9.1,0.1,16.6-7.2,16.7-16.3l0,0V299.6
			C553,290.5,545.5,283.3,536.4,283.4L536.4,283.4z"/>
		<path class="st2" d="M480.5,267.3h-40.2v-3c0.2-9.4-6.1-17.6-15.1-20c-10.7-2.8-21.7,3.6-24.5,14.3c-0.4,1.6-0.6,3.2-0.6,4.8v4
			h-40.2c-4.5,0-8.1,3.6-8.1,8.1l0,0v15.8c0,4.5,3.6,8.1,8.1,8.1l0,0h120.6c4.5,0,8.1-3.6,8.1-8.1v-15.9
			C488.7,270.9,485,267.3,480.5,267.3z"/>
		<path class="st2" d="M359.7,355.8h145.1"/>
		<polyline class="st2" points="311.4,347.8 319.5,355.8 343.6,323.6 		"/>
		<path class="st2" d="M359.7,420.3h145.1"/>
		<polyline class="st2" points="311.4,412.2 319.5,420.3 343.6,388.1 		"/>
		<path class="st2" d="M359.7,484.8h145.1"/>
		<polyline class="st2" points="311.4,476.7 319.5,484.8 343.6,452.5 		"/>
	</g>
</g>
<g>
	<g>
		<path class="st3" d="M739.6,459.5c35.1,19.7,61.4,50.4,78.9,85.5c19.7,48.2,24.1,98.6,4.4,149.1c-13.2,28.5-28.5,52.6-52.6,74.5
			c-21.9,21.9-50.4,35.1-81.1,43.8l-15.3-57c21.9-4.4,39.5-15.3,54.8-30.7c17.5-15.3,28.5-30.7,37.3-52.6c11-32.9,11-68-4.4-103
			c-8.8-21.9-24.1-41.7-43.8-54.8l-6.6,24.1c-2.2,2.2-4.4,4.4-8.8,4.4c-2.2,0-6.6-2.2-6.6-4.4c-15.3-26.3-28.5-52.6-41.7-78.9
			c0-2.2,0-6.6,0-6.6c0-2.2,2.2-2.2,4.4-4.4l83.3-28.5c2.2,0,6.6,0,8.8,2.2c2.2,2.2,4.4,4.4,2.2,8.8L739.6,459.5z M544.5,792.7
			c-35.1-19.7-61.4-50.4-78.9-85.5c-19.7-48.2-24.1-98.6-4.4-149.1c13.2-28.5,28.5-52.6,52.6-74.5c21.9-21.9,50.4-35.1,81.1-43.8
			l13.2,57c-21.9,4.4-39.5,15.3-54.8,30.7c-15.3,13.2-28.5,30.7-37.3,52.6c-11,32.9-11,68,4.4,103c8.8,21.9,24.1,41.7,43.8,54.8
			l6.6-21.9c2.2-2.2,4.4-4.4,8.8-4.4c2.2,0,6.6,2.2,6.6,4.4c15.3,26.3,28.5,52.6,46,78.9c0,2.2,0,6.6,0,6.6c0,2.2-2.2,2.2-4.4,4.4
			l-87.7,26.3c-2.2,0-6.6,0-8.8-2.2c-2.2-2.2-4.4-4.4-2.2-8.8L544.5,792.7z"/>
	</g>
	<g>
		<path class="st4" d="M739.6,459.5c35.1,19.7,61.4,50.4,78.9,85.5c19.7,48.2,24.1,98.6,4.4,149.1c-13.2,28.5-28.5,52.6-52.6,74.5
			c-21.9,21.9-50.4,35.1-81.1,43.8l-15.3-57c21.9-4.4,39.5-15.3,54.8-30.7c17.5-15.3,28.5-30.7,37.3-52.6c11-32.9,11-68-4.4-103
			c-8.8-21.9-24.1-41.7-43.8-54.8l-6.6,24.1c-2.2,2.2-4.4,4.4-8.8,4.4c-2.2,0-6.6-2.2-6.6-4.4c-15.3-26.3-28.5-52.6-41.7-78.9
			c0-2.2,0-6.6,0-6.6c0-2.2,2.2-2.2,4.4-4.4l83.3-28.5c2.2,0,6.6,0,8.8,2.2c2.2,2.2,4.4,4.4,2.2,8.8L739.6,459.5z M544.5,792.7
			c-35.1-19.7-61.4-50.4-78.9-85.5c-19.7-48.2-24.1-98.6-4.4-149.1c13.2-28.5,28.5-52.6,52.6-74.5c21.9-21.9,50.4-35.1,81.1-43.8
			l13.2,57c-21.9,4.4-39.5,15.3-54.8,30.7c-15.3,13.2-28.5,30.7-37.3,52.6c-11,32.9-11,68,4.4,103c8.8,21.9,24.1,41.7,43.8,54.8
			l6.6-21.9c2.2-2.2,4.4-4.4,8.8-4.4c2.2,0,6.6,2.2,6.6,4.4c15.3,26.3,28.5,52.6,46,78.9c0,2.2,0,6.6,0,6.6c0,2.2-2.2,2.2-4.4,4.4
			l-87.7,26.3c-2.2,0-6.6,0-8.8-2.2c-2.2-2.2-4.4-4.4-2.2-8.8L544.5,792.7z"/>
	</g>
</g>
</svg>
