<?xml version="1.0" encoding="utf-8"?>
<!-- Generator: Adobe Illustrator 25.0.1, SVG Export Plug-In . SVG Version: 6.00 Build 0)  -->
<svg version="1.1" id="Layer_1" xmlns="http://www.w3.org/2000/svg" xmlns:xlink="http://www.w3.org/1999/xlink" x="0px" y="0px"
	 viewBox="0 0 850 850" style="enable-background:new 0 0 850 850;" xml:space="preserve">
<style type="text/css">
	.st0{fill:#DA244B;}
	.st1{fill:none;stroke:#FFFFFF;stroke-width:16.1132;stroke-miterlimit:10;}
	.st2{fill:none;stroke:#FFFFFF;stroke-width:16.1132;stroke-linecap:round;stroke-miterlimit:10;}
	.st3{fill-rule:evenodd;clip-rule:evenodd;fill:#FFFFFF;stroke:#DA244B;stroke-width:28.2348;stroke-miterlimit:10;}
	.st4{fill-rule:evenodd;clip-rule:evenodd;fill:#FFFFFF;stroke:#DA244B;stroke-width:7.0587;stroke-miterlimit:10;}
	.st5{fill:#FFFFFF;stroke:#DA244B;stroke-width:30.5158;stroke-miterlimit:10;}
	.st6{fill:#FFFFFF;stroke:#DA244B;stroke-width:7.629;stroke-miterlimit:10;}
	.st7{fill:#FFFFFF;stroke:#DA244B;stroke-width:26.4363;stroke-miterlimit:10;}
	.st8{fill:#FFFFFF;stroke:#DA244B;stroke-width:6.61;stroke-miterlimit:10;}
</style>
<g id="Layer_2_3_">
	<circle class="st0" cx="420" cy="420.4" r="361.2"/>
</g>
<g id="Layer_1_3_">
	<g>
		<path class="st1" d="M536.4,283.4h-47.7v9.2c0,3.8-3.1,6.9-6.9,6.9H358.6c-3.8,0-6.9-3.1-6.9-6.9v-9.2H304
			c-9.1-0.1-16.6,7.2-16.7,16.3l0,0v281.5c0.1,9.1,7.6,16.5,16.7,16.3l0,0h232.4c9.1,0.1,16.6-7.2,16.7-16.3l0,0V299.6
			C553,290.5,545.5,283.3,536.4,283.4L536.4,283.4z"/>
		<path class="st2" d="M480.5,267.3h-40.2v-3c0.2-9.4-6.1-17.6-15.1-20c-10.7-2.8-21.7,3.6-24.5,14.3c-0.4,1.6-0.6,3.2-0.6,4.8v4
			h-40.2c-4.5,0-8.1,3.6-8.1,8.1l0,0v15.8c0,4.5,3.6,8.1,8.1,8.1l0,0h120.6c4.5,0,8.1-3.6,8.1-8.1v-15.9
			C488.7,270.9,485,267.3,480.5,267.3z"/>
		<path class="st2" d="M359.7,355.8h145.1"/>
		<polyline class="st2" points="311.4,347.8 319.5,355.8 343.6,323.6 		"/>
		<path class="st2" d="M359.7,420.3h145.1"/>
		<polyline class="st2" points="311.4,412.2 319.5,420.3 343.6,388.1 		"/>
		<path class="st2" d="M359.7,484.8h145.1"/>
		<polyline class="st2" points="311.4,476.7 319.5,484.8 343.6,452.5 		"/>
	</g>
</g>
</svg>
