<?xml version="1.0" encoding="utf-8"?>
<!-- Generator: Adobe Illustrator 25.0.1, SVG Export Plug-In . SVG Version: 6.00 Build 0)  -->
<svg version="1.1" id="Layer_1" xmlns="http://www.w3.org/2000/svg" xmlns:xlink="http://www.w3.org/1999/xlink" x="0px" y="0px"
	 viewBox="0 0 36.8 37.8" style="enable-background:new 0 0 36.8 37.8;" xml:space="preserve">
<style type="text/css">
	.st0{fill:#DA244B;}
	.st1{fill:#FFFFFF;stroke:#DA244B;stroke-width:1.3622;stroke-miterlimit:10;}
	.st2{fill:#FFFFFF;stroke:#DA244B;stroke-width:0.3406;stroke-miterlimit:10;}
</style>
<g id="icons_00000135681484024645810510000011331943238133662337_">
	<path id="user2_00000023960588716283199600000017594179230286577552_" class="st0" d="M15.4,3.5C6.9,3.5,0,10.4,0,18.9
		s6.9,15.4,15.4,15.4s15.4-6.9,15.4-15.4S23.9,3.5,15.4,3.5z M15.4,8.6c2.8,0,5.1,2.8,5.1,6.4s-2.3,6.4-5.1,6.4s-5.1-2.8-5.1-6.4
		S12.6,8.6,15.4,8.6z M23.9,28.5c-2.2,1.9-5.3,3.2-8.5,3.2s-6.3-1.3-8.5-3.2c-0.5-0.5-0.6-1.3-0.1-1.8c1.4-1.7,3.3-2.8,5.4-3.5
		c1,0.5,2.1,0.8,3.2,0.8s2.2-0.3,3.2-0.8c2.2,0.6,4,1.8,5.4,3.5C24.6,27.3,24.6,28,23.9,28.5z"/>
</g>
<g>
	<path class="st1" d="M34.2,28.3h-4.9v4.9c0,1-0.8,1.8-1.8,1.8h-2.5c-1,0-1.8-0.8-1.8-1.8v-4.9h-4.9c-1,0-1.8-0.8-1.8-1.8v-2.5
		c0-1,0.8-1.8,1.8-1.8h4.9v-4.9c0-1,0.8-1.8,1.8-1.8h2.5c1,0,1.8,0.8,1.8,1.8v4.9h4.9c1,0,1.8,0.8,1.8,1.8v2.5
		C36,27.6,35.2,28.3,34.2,28.3z"/>
</g>
<g>
	<path class="st2" d="M34.2,28.3h-4.9v4.9c0,1-0.8,1.8-1.8,1.8h-2.5c-1,0-1.8-0.8-1.8-1.8v-4.9h-4.9c-1,0-1.8-0.8-1.8-1.8v-2.5
		c0-1,0.8-1.8,1.8-1.8h4.9v-4.9c0-1,0.8-1.8,1.8-1.8h2.5c1,0,1.8,0.8,1.8,1.8v4.9h4.9c1,0,1.8,0.8,1.8,1.8v2.5
		C36,27.6,35.2,28.3,34.2,28.3z"/>
</g>
</svg>
