<?xml version="1.0" encoding="utf-8"?>
<!-- Generator: Adobe Illustrator 25.0.1, SVG Export Plug-In . SVG Version: 6.00 Build 0)  -->
<svg version="1.1" id="Layer_1" xmlns="http://www.w3.org/2000/svg" xmlns:xlink="http://www.w3.org/1999/xlink" x="0px" y="0px"
	 viewBox="0 0 37.9 37.8" style="enable-background:new 0 0 37.9 37.8;" xml:space="preserve">
<style type="text/css">
	.st0{fill:#DA244B;}
	.st1{fill:#FFFFFF;stroke:#DA244B;stroke-width:1.2704;stroke-miterlimit:10;}
	.st2{fill:#FFFFFF;stroke:#DA244B;stroke-width:0.3176;stroke-miterlimit:10;}
</style>
<g id="icons_00000060709769853521389390000005807277949564753836_">
	<path id="user2_00000074444389196243399730000003990458957543083164_" class="st0" d="M15.4,3.5c-8.5,0-15.4,6.9-15.4,15.4
		s6.9,15.4,15.4,15.4s15.4-6.9,15.4-15.4S23.8,3.5,15.4,3.5z M15.4,8.6c2.8,0,5.1,2.8,5.1,6.4s-2.3,6.4-5.1,6.4s-5.1-2.8-5.1-6.4
		S12.5,8.6,15.4,8.6z M23.8,28.5c-2.2,1.9-5.3,3.2-8.5,3.2s-6.3-1.3-8.5-3.2c-0.5-0.5-0.6-1.3-0.1-1.8c1.4-1.7,3.3-2.8,5.4-3.5
		c1,0.5,2.1,0.8,3.2,0.8s2.2-0.3,3.2-0.8c2.2,0.6,4,1.8,5.4,3.5C24.5,27.3,24.5,28,23.8,28.5z"/>
</g>
<g>
	<path class="st1" d="M36.8,21.7L33.5,25l3.3,3.3c0.6,0.6,0.6,1.7,0,2.3l-1.5,1.5c-0.6,0.6-1.7,0.6-2.3,0l-3.3-3.3l-3.3,3.3
		c-0.6,0.6-1.7,0.6-2.3,0l-1.5-1.7c-0.6-0.6-0.6-1.7,0-2.3l3.3-3.3l-3.3-3.3c-0.6-0.6-0.6-1.7,0-2.3l1.5-1.5c0.6-0.6,1.7-0.6,2.3,0
		l3.3,3.3l3.3-3.3c0.6-0.6,1.7-0.6,2.3,0l1.5,1.5C37.3,20,37.3,21.1,36.8,21.7z"/>
</g>
<g>
	<path class="st2" d="M36.8,21.7L33.5,25l3.3,3.3c0.6,0.6,0.6,1.7,0,2.3l-1.5,1.5c-0.6,0.6-1.7,0.6-2.3,0l-3.3-3.3l-3.3,3.3
		c-0.6,0.6-1.7,0.6-2.3,0l-1.5-1.7c-0.6-0.6-0.6-1.7,0-2.3l3.3-3.3l-3.3-3.3c-0.6-0.6-0.6-1.7,0-2.3l1.5-1.5c0.6-0.6,1.7-0.6,2.3,0
		l3.3,3.3l3.3-3.3c0.6-0.6,1.7-0.6,2.3,0l1.5,1.5C37.3,20,37.3,21.1,36.8,21.7z"/>
</g>
</svg>
