<?xml version="1.0" encoding="utf-8"?>
<!-- Generator: Adobe Illustrator 25.0.1, SVG Export Plug-In . SVG Version: 6.00 Build 0)  -->
<svg version="1.1" id="Layer_1" xmlns="http://www.w3.org/2000/svg" xmlns:xlink="http://www.w3.org/1999/xlink" x="0px" y="0px"
	 viewBox="0 0 37.8 37.8" style="enable-background:new 0 0 37.8 37.8;" xml:space="preserve">
<style type="text/css">
	.st0{fill:#DA244B;}
</style>
<g id="icons">
	<path id="user2" class="st0" d="M18.9,3.5c-8.5,0-15.4,6.9-15.4,15.4s6.9,15.4,15.4,15.4s15.4-6.9,15.4-15.4S27.4,3.5,18.9,3.5z
		 M18.9,8.6c2.8,0,5.1,2.8,5.1,6.4s-2.3,6.4-5.1,6.4s-5.1-2.8-5.1-6.4S16.1,8.6,18.9,8.6z M27.4,28.5c-2.2,1.9-5.3,3.2-8.5,3.2
		s-6.3-1.3-8.5-3.2c-0.5-0.5-0.6-1.3-0.1-1.8c1.4-1.7,3.3-2.8,5.4-3.5c1,0.5,2.1,0.8,3.2,0.8c1.2,0,2.2-0.3,3.2-0.8
		c2.2,0.6,4,1.8,5.4,3.5C28,27.3,28,28,27.4,28.5z"/>
</g>
</svg>
