<?xml version="1.0" encoding="utf-8"?>
<!-- Generator: Adobe Illustrator 25.0.1, SVG Export Plug-In . SVG Version: 6.00 Build 0)  -->
<svg version="1.1" id="Layer_1" xmlns="http://www.w3.org/2000/svg" xmlns:xlink="http://www.w3.org/1999/xlink" x="0px" y="0px"
	 viewBox="0 0 37.8 37.8" style="enable-background:new 0 0 37.8 37.8;" xml:space="preserve">
<style type="text/css">
	.st0{fill:#DA244B;}
	.st1{fill-rule:evenodd;clip-rule:evenodd;fill:#FFFFFF;stroke:#DA244B;stroke-width:1.288;stroke-miterlimit:10;}
	.st2{fill-rule:evenodd;clip-rule:evenodd;fill:#FFFFFF;stroke:#DA244B;stroke-width:0.322;stroke-miterlimit:10;}
</style>
<g id="icons_00000055694064842784542380000018047404900752363681_">
	<path id="user2_00000075147515906104169770000017257441686328220314_" class="st0" d="M15.5,3.5C7,3.5,0,10.4,0,18.9
		s7,15.4,15.5,15.4s15.4-6.9,15.4-15.4S24,3.5,15.5,3.5z M15.5,8.6c2.8,0,5.1,2.8,5.1,6.4s-2.3,6.4-5.1,6.4s-5.1-2.8-5.1-6.4
		S12.6,8.6,15.5,8.6z M24,28.5c-2.2,1.9-5.3,3.2-8.5,3.2S9.2,30.5,7,28.5c-0.5-0.5-0.6-1.3-0.1-1.8c1.4-1.7,3.3-2.8,5.4-3.5
		c1,0.5,2.1,0.8,3.2,0.8s2.2-0.3,3.2-0.8c2.2,0.6,4,1.8,5.4,3.5C24.6,27.3,24.6,28,24,28.5z"/>
</g>
<g>
	<g>
		<path class="st1" d="M32.6,18.5c1.6,0.9,2.8,2.3,3.6,3.9c0.9,2.2,1.1,4.5,0.2,6.8c-0.6,1.3-1.3,2.4-2.4,3.4c-1,1-2.3,1.6-3.7,2
			L29.6,32c1-0.2,1.8-0.7,2.5-1.4c0.8-0.7,1.3-1.4,1.7-2.4c0.5-1.5,0.5-3.1-0.2-4.7c-0.4-1-1.1-1.9-2-2.5l-0.3,1.1
			c-0.1,0.1-0.2,0.2-0.4,0.2c-0.1,0-0.3-0.1-0.3-0.2c-0.7-1.2-1.3-2.4-1.9-3.6c0-0.1,0-0.3,0-0.3c0-0.1,0.1-0.1,0.2-0.2l3.8-1.3
			c0.1,0,0.3,0,0.4,0.1c0.1,0.1,0.2,0.2,0.1,0.4L32.6,18.5z M23.7,33.7c-1.6-0.9-2.8-2.3-3.6-3.9c-0.9-2.2-1.1-4.5-0.2-6.8
			c0.6-1.3,1.3-2.4,2.4-3.4c1-1,2.3-1.6,3.7-2l0.6,2.6c-1,0.2-1.8,0.7-2.5,1.4c-0.7,0.6-1.3,1.4-1.7,2.4c-0.5,1.5-0.5,3.1,0.2,4.7
			c0.4,1,1.1,1.9,2,2.5l0.3-1c0.1-0.1,0.2-0.2,0.4-0.2c0.1,0,0.3,0.1,0.3,0.2c0.7,1.2,1.3,2.4,2.1,3.6c0,0.1,0,0.3,0,0.3
			c0,0.1-0.1,0.1-0.2,0.2l-4,1.2c-0.1,0-0.3,0-0.4-0.1S22.9,35.2,23,35L23.7,33.7z"/>
	</g>
	<g>
		<path class="st2" d="M32.6,18.5c1.6,0.9,2.8,2.3,3.6,3.9c0.9,2.2,1.1,4.5,0.2,6.8c-0.6,1.3-1.3,2.4-2.4,3.4c-1,1-2.3,1.6-3.7,2
			L29.6,32c1-0.2,1.8-0.7,2.5-1.4c0.8-0.7,1.3-1.4,1.7-2.4c0.5-1.5,0.5-3.1-0.2-4.7c-0.4-1-1.1-1.9-2-2.5l-0.3,1.1
			c-0.1,0.1-0.2,0.2-0.4,0.2c-0.1,0-0.3-0.1-0.3-0.2c-0.7-1.2-1.3-2.4-1.9-3.6c0-0.1,0-0.3,0-0.3c0-0.1,0.1-0.1,0.2-0.2l3.8-1.3
			c0.1,0,0.3,0,0.4,0.1c0.1,0.1,0.2,0.2,0.1,0.4L32.6,18.5z M23.7,33.7c-1.6-0.9-2.8-2.3-3.6-3.9c-0.9-2.2-1.1-4.5-0.2-6.8
			c0.6-1.3,1.3-2.4,2.4-3.4c1-1,2.3-1.6,3.7-2l0.6,2.6c-1,0.2-1.8,0.7-2.5,1.4c-0.7,0.6-1.3,1.4-1.7,2.4c-0.5,1.5-0.5,3.1,0.2,4.7
			c0.4,1,1.1,1.9,2,2.5l0.3-1c0.1-0.1,0.2-0.2,0.4-0.2c0.1,0,0.3,0.1,0.3,0.2c0.7,1.2,1.3,2.4,2.1,3.6c0,0.1,0,0.3,0,0.3
			c0,0.1-0.1,0.1-0.2,0.2l-4,1.2c-0.1,0-0.3,0-0.4-0.1S22.9,35.2,23,35L23.7,33.7z"/>
	</g>
</g>
</svg>
