<?xml version="1.0" encoding="utf-8"?>
<!-- Generator: Adobe Illustrator 25.0.1, SVG Export Plug-In . SVG Version: 6.00 Build 0)  -->
<svg version="1.1" id="iconos" xmlns="http://www.w3.org/2000/svg" xmlns:xlink="http://www.w3.org/1999/xlink" x="0px" y="0px"
	 viewBox="0 0 2122 2122" style="enable-background:new 0 0 2122 2122;" xml:space="preserve">
<style type="text/css">
	.st0{fill:#DB264C;}
	.st1{fill:#FFFFFF;stroke:#FFFFFF;stroke-width:33;stroke-miterlimit:10;}
</style>
<circle class="st0" cx="1061" cy="1061" r="997"/>
<g>
	<path class="st1" d="M567.6,1605c0-241.7,0-482.9,0-724.8c10.2,0,19.8,0,30.8,0c0,230.7,0,461.3,0,692.8c308.2,0,615.1,0,923.7,0
		c0-230.6,0-461.4,0-693.5c9.9,0,18.2-0.4,26.4,0.3c2.1,0.2,4.7,3.7,5.6,6.2c1,2.7,0.2,6,0.2,9c0,231.9,0,463.8,0,695.7
		c0,4.5,0,8.9,0,14.2C1225.1,1605,897,1605,567.6,1605z"/>
	<path class="st1" d="M747.3,1220.9c41.8-41.8,83.9-83.9,126.5-126.6c35.8,35.9,72.3,72.3,109.1,109.2
		c88.8-88.8,176.5-176.5,263.6-263.5c42.9,42.9,85,85.1,126,126.1c-129.4,129.4-260,260-390,390
		C905.1,1378.7,826.1,1299.7,747.3,1220.9z M792.1,1220.6c64,64,128,127.9,191.2,191.1c114.8-114.8,230.3-230.3,344.6-344.5
		c-26.5-26.5-53.8-53.9-82.4-82.5c-86.9,86.9-174.7,174.7-264.3,264.3c-36.2-36.5-72.5-73.1-108.3-109.2
		C845.8,1166.9,818.9,1193.8,792.1,1220.6z"/>
	<path class="st1" d="M1522.3,651.2c-42.4,0-83.5,0-125.5,0c0-10.9,0-20.9,0-31.6c2.8-0.3,5.7-0.8,8.6-0.8
		c46.1-0.1,92.2,0,138.3-0.1c6.2,0,10.7,0,10.7,8.6c-0.3,73.3-0.2,146.5-0.2,219.8c0,1.4-0.4,2.9-0.8,5.2c-328.2,0-656.3,0-985.3,0
		c0-77.1,0-154.2,0-232.5c51.8,0,104,0,156.8,0c0,9.8,0,19.4,0,30.5c-41.4,0-82.7,0-125,0c0,57.4,0,113.3,0,170.5
		c4.1,0.2,8.1,0.6,12.1,0.6c299.2,0,598.4,0,897.6,0.3c10.8,0,13.1-3.3,13-13.4c-0.5-48-0.2-95.9-0.2-143.9
		C1522.3,660.3,1522.3,656.2,1522.3,651.2z"/>
	<path class="st1" d="M752.3,634.1c0-26.8-0.4-53.6,0.3-80.4c0.1-5.6,3.4-11.7,6.6-16.7c10.8-16.4,26.2-22,45.6-19.3
		c8.9,1.3,18.2,1,27.1,0c12.4-1.3,20.8,3.5,29.6,12c10.1,9.7,13.9,19.6,13.6,33.5c-0.8,50.9-0.1,101.9-0.6,152.9
		c-0.1,5.6-3.5,11.6-6.8,16.5c-10.8,16.3-26,22.2-45.5,19.4c-8.5-1.3-17.4-1.1-26,0c-13.3,1.6-22.3-3.8-31.5-12.9
		c-9.3-9.2-13.4-18.4-12.8-31.5C753,683.2,752.3,658.7,752.3,634.1z M843,635c0-23.7,0-47.5,0-71.2c0-9.3-4.4-13.9-13.7-13.9
		c-10.6,0-21.1,0.1-31.7,0c-8.6-0.1-13.6,3.8-13.6,12.7c0,48.2-0.1,96.5,0,144.7c0,8.8,5,12.8,13.6,12.8c10.2,0,20.4-0.2,30.5,0
		c10.4,0.2,14.9-4.8,14.8-15.1C842.9,681.7,843,658.3,843,635z"/>
	<path class="st1" d="M1246.4,634c0-27.2-0.3-54.4,0.3-81.5c0.1-5,3-10.4,6-14.7c11.2-16.1,26.4-23.3,46.4-20
		c7.7,1.3,15.9,1.1,23.7,0c14.9-2.1,25.4,3.6,35.4,14.5c7.4,8.1,11.1,15.5,11,26.6c-0.6,52.5,0,104.9-0.6,157.4
		c-0.1,5.6-3.6,11.6-6.8,16.5c-10.8,16.3-26.2,22.1-45.5,19.2c-7.8-1.2-16-1.1-23.7,0c-15,2.1-25.2-3.9-35.3-14.6
		c-7.9-8.4-11.5-16.2-11.1-27.7C1247,684.6,1246.4,659.3,1246.4,634z M1337.2,635c0-23.7-0.1-47.5,0-71.2c0-9.3-4.2-14-13.6-13.9
		c-10.6,0-21.1,0.1-31.7,0c-9.3-0.1-13.7,4.4-13.7,13.8c0.1,47.5,0.1,95,0,142.5c0,10,5,14.2,14.7,14c9.8-0.2,19.6-0.2,29.4,0
		c10.4,0.2,15-4.7,14.9-15C1337,681.8,1337.2,658.4,1337.2,635z"/>
	<path class="st1" d="M1219,619.6c0,10.6,0,20.3,0,30.5c-105.8,0-211,0-316.8,0c0-10.3,0-20,0-30.5
		C1007.6,619.6,1112.8,619.6,1219,619.6z"/>
	<path class="st1" d="M1049.1,721c0,10.5,0,20.2,0,30.3c-10.2,0-19.9,0-30.4,0c0-9.9,0-19.8,0-30.3
		C1028.9,721,1039.1,721,1049.1,721z"/>
	<path class="st1" d="M1102.7,720.7c0,10.4,0,20,0,30.4c-10.2,0-20.1,0-30.7,0c0-10.1,0-19.9,0-30.4
		C1082.2,720.7,1091.8,720.7,1102.7,720.7z"/>
</g>
</svg>
