<?xml version="1.0" encoding="utf-8"?>
<!-- Generator: Adobe Illustrator 26.0.0, SVG Export Plug-In . SVG Version: 6.00 Build 0)  -->
<svg version="1.1" id="Layer_1" xmlns="http://www.w3.org/2000/svg" xmlns:xlink="http://www.w3.org/1999/xlink" x="0px" y="0px"
	 viewBox="0 0 120.2 70.2" style="enable-background:new 0 0 120.2 70.2;" xml:space="preserve">
<style type="text/css">
	.st0{fill:#A9A9AB;}
	.st1{fill:#A8020B;}
	.st2{fill:#7D0618;}
	.st3{fill:#FF998A;}
	.st4{fill:#FFB8AD;}
	.st5{fill:#C4251F;}
	.st6{fill:#FEF884;}
	.st7{fill:#FFDF31;}
	.st8{fill:#FEDE31;}
	.st9{fill:#D49792;}
	.st10{fill:#FBD631;}
	.st11{fill:#FAC22A;}
	.st12{fill:#FAB01B;}
	.st13{fill:#D85E00;}
	.st14{fill:#FFE763;}
	.st15{fill:#DB4534;}
	.st16{fill:#B61D12;}
	.st17{fill:#9D0012;}
	.st18{fill:#FEFBBF;}
	.st19{fill:#FEFEFE;}
	.st20{fill:#8B8B8B;}
	.st21{fill:#D6D6D6;}
	.st22{fill:#6F6F6F;}
	.st23{fill:#8E8E8E;}
	.st24{fill:#F56C5D;}
	.st25{fill:url(#SVGID_1_);}
	.st26{fill:#E89D07;}
	.st27{fill:url(#SVGID_00000168094813495877691670000002996597342055661471_);}
	.st28{fill:#FADD4A;}
	.st29{fill:#FEC200;}
	.st30{fill:#FFD13B;}
	.st31{fill:#FBE265;}
	.st32{fill:#9C480C;}
	.st33{fill:#D9AF6A;}
	.st34{fill:#B76F3F;}
	.st35{fill:#A45823;}
	.st36{fill:#B3A4AD;}
	.st37{fill:#B58847;}
	.st38{fill:#8C4320;}
	.st39{fill:#E8C583;}
	.st40{fill:#EFD995;}
	.st41{fill:#9F5939;}
	.st42{fill:#E5BC71;}
	.st43{fill:#D69985;}
	.st44{fill:#FDE697;}
	.st45{fill:#D19F66;}
	.st46{fill:#B59FA6;}
	.st47{fill:#C2C2C2;}
	.st48{fill:#FAFAFA;}
	.st49{fill:#E4E4E4;}
	.st50{fill:#FFEDB4;}
	.st51{fill:#AB774D;}
	.st52{fill:#E6E1E4;}
	.st53{fill:#C39055;}
	.st54{fill:#F9F9F9;}
	.st55{fill:#F1F1F1;}
	.st56{fill:#9D6F40;}
	.st57{fill:#BB2041;}
	.st58{fill:#F9DCE2;}
	.st59{fill:#DD4162;}
	.st60{fill:#FFFFFF;}
	.st61{fill:#DA244B;}
</style>
<polygon class="st0" points="176.9,-97.4 163.4,-105 185.8,-118.6 210,-129.7 210.7,-88.4 "/>
<polygon class="st0" points="252.3,-97.4 238.8,-105 261.2,-118.6 285.4,-129.7 286.2,-88.4 "/>
<polygon class="st0" points="101.7,-97.4 88.3,-105 110.6,-118.6 134.8,-129.7 135.6,-88.4 "/>
<polygon class="st0" points="43.8,58.5 30.3,50.8 52.6,37.3 76.8,26.2 77.6,67.5 "/>
<polygon class="st0" points="9.3,63.7 1.8,59.4 14.2,51.9 27.6,45.7 28.1,68.7 "/>
<g>
	<g>
		<g>
			<g>
				<g>
					<g>
						<polygon class="st1" points="286.2,-88.4 259,-104 259,-132 286.2,-116.4 						"/>
						<polygon class="st2" points="259,-132 259,-104 286.2,-88.4 259.8,-104.5 						"/>
						<polygon class="st2" points="270.4,-97.3 270.4,-125.4 274.7,-123 274.7,-94.6 						"/>
						<polygon class="st3" points="286.2,-116.4 259,-132 286.2,-147.7 313.3,-132 						"/>
						<polygon class="st4" points="311.7,-132.1 286.2,-117.2 259,-132 286.2,-116.4 313.3,-132 286.2,-147.7 						"/>
						<polygon class="st5" points="271.2,-138.9 302.6,-120.9 307.4,-123.6 271.3,-139 						"/>
						<polygon class="st6" points="275.6,-141.5 286.8,-135.2 282.4,-132.7 271.3,-139 						"/>
						<polygon class="st6" points="307.5,-123.7 302.7,-121 286.9,-130.1 291.5,-132.7 						"/>
						<polygon class="st5" points="274.4,-123.1 302.4,-138.8 302.3,-138.3 274.7,-123 						"/>
						<polygon class="st7" points="291.5,-132.7 286.9,-130.1 282.4,-132.7 286.8,-135.2 						"/>
						<polygon class="st8" points="282.4,-132.7 286.9,-130.1 274.4,-123.1 270.1,-125.6 						"/>
						<path class="st9" d="M279.1-133.4c0,0-5.2-0.5-5,2.2c0.2,2.7,5.7,2.5,5.7,2.5l1.8,0c0,0-2.4,4.2,3,4.2c5.4,0,6-2.3,5.1-3.5
							c-0.9-1.2-1.2-3.2-1.2-3.2s3.4,0.9,6,0.8c2.6-0.2,6.6-0.5,6.4-1.7c-0.2-1.2,1.1-3.8-2.6-2.8c-3.7,1-9.9,0.3-9.9,0.3l-3.4-4.3
							l-2.4,0.4v2.7L279.1-133.4z"/>
						<path class="st10" d="M289.1-142.3c0,4.9-1.6,8.3-1.6,8.3l-3.1-0.5l0.1-0.8c0,0-2.2-7-0.6-8.5c0.2-0.2,0.4-0.3,0.7-0.3
							C287.3-144,289.1-144.1,289.1-142.3z"/>
						<path class="st11" d="M284.7-141.9c0,0,0.4,3.6,0.3,4.3c-0.1,0.8,0,1.7,0,1.7l3.3-0.6c0,0,0.6-2.5,0.7-4c0-1.5,0-1.5,0-1.5
							l-0.4,2.7c0,0.3-0.4,0.4-0.5,0.1c-0.2-0.3-0.5-0.5-0.9-0.5c-0.4,0-0.8,0.2-1.2,0.4c-0.4,0.2-0.8,0-0.9-0.4
							C284.9-140.4,284.8-141.4,284.7-141.9z"/>
						<path class="st12" d="M284.8-134.5h-0.3l0.1-0.8c0,0-2.2-7-0.6-8.5c0.2,0.2,0.4,0.5,0.5,1C285-139.1,284.9-136,284.8-134.5z"
							/>
						<path class="st13" d="M283.7-143.3c0,0-0.6,0.3,0,3.8s1.1,4.6,1.1,4.6S284.6-144.9,283.7-143.3z"/>
						<polygon class="st14" points="302.4,-138.8 291.5,-132.7 286.8,-135.2 297.7,-141.5 						"/>
						<polygon class="st12" points="270.1,-97.5 270.1,-125.6 274.4,-123.1 274.4,-94.8 						"/>
						<polygon class="st15" points="286.2,-88.4 313.3,-104 313.3,-132 286.2,-116.4 						"/>
						<polygon class="st16" points="286.2,-88.4 313.3,-104 313.3,-104.5 286.2,-88.8 						"/>
						<polygon class="st17" points="302.9,-98 302.9,-126 298.3,-123.4 298.3,-95.4 						"/>
						<polygon class="st10" points="303.1,-97.9 303.1,-126.1 298.4,-123.5 298.4,-95.3 						"/>
					</g>
				</g>
				<polygon class="st18" points="299.4,-128.2 302.5,-126.1 298.1,-123.6 298.4,-123.5 303.1,-126.1 				"/>
			</g>
			<g>
				<polygon class="st17" points="287.8,-94.8 295.5,-99.3 295.5,-105.7 287.9,-101.7 287.8,-101.2 				"/>
				<polygon class="st19" points="288.1,-101.5 295.8,-106 295.6,-106.1 287.9,-101.7 				"/>
				<polygon class="st20" points="288.1,-95.1 288.1,-101.5 287.9,-101.7 287.9,-95.2 				"/>
				<polygon class="st21" points="288.1,-95.1 295.8,-99.5 295.8,-106 288.1,-101.5 				"/>
				<polygon class="st22" points="288.5,-100.7 295.4,-104.6 295.4,-105 288.5,-101.1 				"/>
				<polygon class="st23" points="291.3,-100.5 295.4,-102.8 295.4,-103.2 291.3,-100.9 				"/>
				<polygon class="st23" points="288.5,-96.1 290.6,-97.4 290.6,-100.8 288.5,-99.6 				"/>
				<polygon class="st23" points="291.3,-99.6 295.4,-101.9 295.4,-102.3 291.3,-100 				"/>
				<polygon class="st23" points="291.3,-98.7 295.4,-101 295.4,-101.4 291.3,-99.1 				"/>
				<polygon class="st23" points="291.3,-97.8 295.4,-100.1 295.4,-100.6 291.3,-98.2 				"/>
			</g>
			<polygon class="st24" points="286.2,-116.4 286.2,-88.4 287.1,-116.9 			"/>
			<polygon class="st24" points="312.3,-131.4 313.3,-104.5 313.3,-132 			"/>
		</g>
		<path class="st13" d="M287.5-134.3c0,0,3.8,1,7.3,0c3.5-1,6.6-3.1,6.6-3.1l1,2.8c0,0-4.1,4.6-15,2.3L287.5-134.3z"/>
		<linearGradient id="SVGID_1_" gradientUnits="userSpaceOnUse" x1="301.3133" y1="-137.8118" x2="291.2168" y2="-135.7592">
			<stop  offset="0" style="stop-color:#FEDE31"/>
			<stop  offset="0.4271" style="stop-color:#FDD62E"/>
			<stop  offset="0.4706" style="stop-color:#FDD52D"/>
			<stop  offset="0.4706" style="stop-color:#FCC927"/>
			<stop  offset="0.4706" style="stop-color:#FBBC21"/>
			<stop  offset="0.7882" style="stop-color:#FAB01B"/>
		</linearGradient>
		<path class="st25" d="M287.5-134.3c0,0,8.1-7.4,11.5-6.2c3.4,1.2,3.4,5.6,3.4,5.9c0,0-1.9-4.1-8.3-0.3c-2.8,1.7-6.7,2.6-6.7,2.6
			L287.5-134.3z"/>
		<path class="st26" d="M296-139.9c0,0-2.7,1.3-4.4,2.6c-1.6,1.2-2.3,2-3.7,2.5c-1.4,0.6-0.9,1.8-0.9,1.8l0.5,0.3
			c0,0,1.7-0.1,4.9-1.8c3.2-1.8,4.7-2.6,4.7-2.6s-2.8,0.9-4.4,1.8c-0.4,0.2-1.1,0.8-1.5,0.6c-0.1,0-0.2-0.1-0.2-0.2
			c0-0.1,0-0.1,0.1-0.2c0-0.1,0.1-0.2,0.1-0.3c0-0.1,0-0.2,0-0.3c0-0.1-0.1-0.2-0.2-0.1c0.2-0.5-0.6-0.1-0.2-0.5
			c0.4-0.3,1.1-0.9,1.5-1.1C293.3-138,294.9-139.5,296-139.9z"/>
		<path class="st13" d="M287-134.3c0,0-3.8,1-7.3,0c-3.5-1-6.6-3.1-6.6-3.1l-1,2.8c0,0,4.4,4.6,15.3,2.3L287-134.3z"/>
		
			<linearGradient id="SVGID_00000114765000478138293180000006948887019561754005_" gradientUnits="userSpaceOnUse" x1="273.9696" y1="-137.7154" x2="290.272" y2="-133.052">
			<stop  offset="0" style="stop-color:#FEDE31"/>
			<stop  offset="0.4271" style="stop-color:#FDD62E"/>
			<stop  offset="0.4706" style="stop-color:#FDD52D"/>
			<stop  offset="0.4706" style="stop-color:#FCC927"/>
			<stop  offset="0.4706" style="stop-color:#FBBC21"/>
			<stop  offset="0.7882" style="stop-color:#FAB01B"/>
		</linearGradient>
		<path style="fill:url(#SVGID_00000114765000478138293180000006948887019561754005_);" d="M287.4-132.2c0,0-4.2-0.8-7-2.6
			c-4.3-2.6-6.6-1.5-7.6-0.6c-0.5,0.4-0.7,0.9-0.7,0.9c-0.1-0.3-0.1-2.8,1.4-4.6c0.5-0.6,1.1-1,2-1.3c3.4-1.2,11.5,6.2,11.5,6.2
			L287.4-132.2z"/>
		<path class="st11" d="M280.3-139c0,0,3.7,2.3,4.2,3.1c0.6,0.8-0.4,2.6-0.4,2.6s-2-0.8-2.4-0.9c-0.4-0.2-2.7-1.6-2.7-1.6
			s3.4,1.5,3.7,1.5c0.2,0,0.6-1.4,0.6-1.4l0.1-0.7L280.3-139z"/>
		<path class="st28" d="M287.8-135.9c0,0,0.6-2.1-1.1-2c-1.8,0-2.2,0-2.2,1.3c0,1.3,1.5,2.7,1.5,2.7L287.8-135.9z"/>
		<path class="st29" d="M286.7-136.9c0,0,1.4-1.6,2.3-0.2c0.9,1.5,1.2,1.8,0.1,2.5c-1.1,0.7-3.1,0.3-3.1,0.3L286.7-136.9z"/>
		<path class="st29" d="M285.3-136.6c0,0-1.4-1.6-2.3-0.2c-0.9,1.5-1.2,1.8-0.1,2.5c1.1,0.7,3.1,0.3,3.1,0.3L285.3-136.6z"/>
		<path class="st12" d="M288.1-135.2c0.6,0.4,0.7,2.3-1.7,2.3c-2.4,0-3.4,0-3-1.3c0.5-1.7,2.8-1,2.8-1S287.7-135.5,288.1-135.2z"/>
		<path class="st28" d="M284.6-134.2c0,0-0.9-0.3-1.9,1.9c-1.6,3.5-0.3,6.2,0.5,6.5c1.6,0.5,5.3,0.7,5.8-1.1
			c0.5-1.9-1.2-7.2-1.2-7.2l-1.3,0.2L284.6-134.2z"/>
		<path class="st28" d="M284.6-134.2c0,0-0.9-0.3-1.9,1.9c-1.6,3.5-0.3,6.2,0.5,6.5c1.6,0.5,5.3,0.7,5.8-1.1
			c0.5-1.9-1.2-7.2-1.2-7.2l-1.3,0.2L284.6-134.2z"/>
		<path class="st12" d="M287.8-134.2l-0.2,0.1c0.3,1.2,1.3,4.5,0.9,5.9c-0.5,1.6-3.7,1.4-5.1,1c-1.4-0.4-2-2.3-0.5-5.7
			c0-0.1,0.1-0.2,0.1-0.3c-0.2,0.2-0.3,0.5-0.5,0.9c-1.6,3.5-0.3,6.2,0.5,6.5c1.6,0.5,5.3,0.7,5.8-1.1
			C289.5-128.9,287.8-134.2,287.8-134.2z"/>
		<path class="st30" d="M283.2-129.1c-0.6-0.2-0.7-0.6-1-1.2c-0.7,2.6-0.3,4.1,1,4.5c1.6,0.5,5.3,0.7,5.8-1.1c0.2-0.7,0.1-1.8-0.1-3
			C288.1-128.4,284.7-128.6,283.2-129.1z"/>
		<path class="st12" d="M289.1-128.6c0,0.1,0,0.2-0.1,0.3c-0.5,1.9-4.2,1.6-5.8,1.1c-0.8-0.3-1-1-1.2-2.1c-0.2,1.8,0.1,3,1.2,3.3
			c1.6,0.5,5.3,0.7,5.8-1.1C289.1-127.4,289.1-127.9,289.1-128.6z"/>
		<path class="st31" d="M301.7-135.5c0,0-0.7-1-2.1-1.1c0-0.4,0-0.8,0-1.1c0-0.4,0.1-1.5-0.2-2.4c0.3,0.1,0.6,0.3,0.8,0.5
			c1.2,1,1.5,1.6,1.6,2.2C301.8-136.9,301.7-135.5,301.7-135.5z"/>
	</g>
	<path class="st31" d="M274-139.5c0,0,0.7-1,2.2-1c1.1-0.1,2.2,0.6,2.2,0.6s-1,0.5-1.1,0.7c-0.1,0.2,0.1,0.9,0.1,0.9
		s-0.1,1.1-0.2,1.1c-0.1,0,1.1,1,1.1,1s-1.8-1-3.2-0.7c-0.9,0.2-1.8,0.6-1.8,0.6s0.5-1.3,0.6-1.9C274.1-138.6,274-139.5,274-139.5z"
		/>
	<path class="st12" d="M273.5-139.1c-0.1,0.5-0.3,1.3-0.3,1.9c0,0.7-0.3,1.4-0.5,1.9c-0.5,0.4-0.7,0.9-0.7,0.9
		C272-134.8,272-137.4,273.5-139.1z"/>
</g>
<g>
	<g>
		<g>
			<polygon class="st32" points="108.9,-131.2 135.6,-146.6 98.9,-129.4 99.2,-128.9 			"/>
			<polygon class="st33" points="162.3,-131.1 135.6,-146.5 172.3,-129.4 172.3,-128.8 			"/>
			<g>
				<g>
					<g>
						<polygon class="st34" points="135.6,-88.4 108.9,-103.8 108.9,-131.7 135.6,-116.2 						"/>
						<polygon class="st35" points="108.9,-131.7 108.9,-103.8 135.6,-88.4 109.6,-104.2 						"/>
						<polygon class="st32" points="120.1,-97.2 120.1,-125.2 124.3,-122.7 124.3,-94.5 						"/>
						<polygon class="st36" points="119.7,-97.4 119.7,-125.4 124,-122.9 124,-94.7 						"/>
						<polygon class="st33" points="135.6,-88.4 162.3,-103.8 162.3,-131.7 135.6,-116.2 						"/>
						<polygon class="st37" points="135.6,-88.4 162.3,-103.8 162.3,-104.3 135.6,-88.8 						"/>
						<polygon class="st32" points="137.2,-93.7 144.8,-98.1 144.8,-104.4 137.3,-100.4 137.2,-100 						"/>
						<polygon class="st32" points="152.1,-97.9 152.1,-125.8 147.5,-123.1 147.5,-95.3 						"/>
						<polygon class="st21" points="152.3,-97.8 152.3,-125.9 147.7,-123.2 147.7,-95.2 						"/>
						<g>
							<g>
								<path class="st38" d="M116.9-116.1l-6.2-3.6v-9.1l6.2,3.6V-116.1z M111.3-120.1l5.1,2.9v-7.8l-5.1-2.9V-120.1z"/>
							</g>
							<g>
								<g>
									<polygon class="st38" points="112.6,-120.6 114.7,-119.4 114.7,-121.9 112.6,-123.1 									"/>
								</g>
								<polygon class="st38" points="111.6,-123.7 115.8,-121.3 113.7,-125.6 								"/>
							</g>
						</g>
					</g>
					<polygon class="st19" points="137.5,-100.3 145.1,-104.7 144.9,-104.8 137.3,-100.4 					"/>
					<polygon class="st20" points="137.5,-94 137.5,-100.3 137.3,-100.4 137.3,-94.1 					"/>
					<polygon class="st21" points="137.5,-94 145.1,-98.4 145.1,-104.7 137.5,-100.3 					"/>
					<polygon class="st22" points="137.9,-99.5 144.7,-103.4 144.7,-103.8 137.9,-99.9 					"/>
					<polygon class="st23" points="140.7,-99.3 144.7,-101.6 144.7,-102 140.7,-99.7 					"/>
					<polygon class="st23" points="137.9,-95 140,-96.2 140,-99.6 137.9,-98.4 					"/>
					<polygon class="st23" points="140.7,-98.4 144.7,-100.7 144.7,-101.1 140.7,-98.8 					"/>
					<polygon class="st23" points="140.7,-97.5 144.7,-99.8 144.7,-100.2 140.7,-97.9 					"/>
					<polygon class="st23" points="140.7,-96.7 144.7,-98.9 144.7,-99.3 140.7,-97.1 					"/>
				</g>
			</g>
			<polygon class="st33" points="108.9,-131.7 135.6,-147.1 125.6,-144.8 98.9,-129.4 			"/>
			<polygon class="st39" points="162.3,-131.7 135.6,-147.1 145.6,-144.8 172.3,-129.4 			"/>
			<polygon class="st40" points="135.6,-116.2 108.9,-131.7 135.6,-147.1 162.3,-131.7 			"/>
			<polygon class="st41" points="160,-131.7 137.4,-118.6 135.6,-117.6 133.7,-118.6 111.1,-131.7 135.6,-145.8 			"/>
			<polygon class="st33" points="129.4,-103.9 102.6,-119.4 102.4,-119.9 135.6,-116.2 135.6,-115.4 			"/>
			<polygon class="st42" points="129.1,-104.5 102.4,-119.9 108.9,-131.7 135.6,-116.2 			"/>
			<polygon class="st43" points="162.3,-114.8 140.7,-102.6 135.6,-112 135.6,-115.4 162.3,-118.1 			"/>
			<polygon class="st34" points="141.8,-104.1 168.5,-119.6 168.8,-119.9 135.6,-116.2 135.6,-115.4 			"/>
			<polygon class="st44" points="142.1,-104.5 168.8,-119.9 162.3,-131.7 135.6,-116.2 			"/>
			<polygon class="st32" points="129.1,-104.5 102.4,-119.9 102.6,-119.4 129.4,-103.9 			"/>
			<polygon class="st45" points="135.6,-145.8 135.6,-117.6 111.1,-131.7 			"/>
			<polygon class="st46" points="118.3,-127.6 118.3,-135.8 129.4,-142.2 129.4,-124.5 126.4,-122.9 			"/>
			<polygon class="st34" points="137.4,-118.6 135.6,-117.6 133.7,-118.6 135.6,-119.7 			"/>
			<polygon class="st46" points="160,-131.7 135.6,-127.9 126.4,-122.9 135.6,-117.6 			"/>
		</g>
		<g>
			<polygon class="st47" points="135.6,-119.2 119.7,-128.4 119.7,-149 135.6,-139.8 			"/>
			<polygon class="st48" points="135.6,-139.8 119.7,-149 135.6,-158.2 151.5,-149 			"/>
			<polygon class="st49" points="135.6,-119.2 151.5,-128.4 151.5,-149 135.6,-139.8 			"/>
		</g>
	</g>
	<polygon class="st46" points="118.3,-135.8 117.2,-136.5 108.9,-135.2 119.7,-141.4 119.7,-136.6 	"/>
</g>
<g>
	<g>
		<g>
			<polygon class="st32" points="50.9,24.7 77.6,9.3 40.9,26.4 41.2,26.9 			"/>
			<polygon class="st33" points="104.3,24.8 77.6,9.3 114.3,26.4 114.3,27.1 			"/>
			<g>
				<g>
					<g>
						<polygon class="st34" points="77.6,67.5 50.9,52.1 50.9,24.2 77.6,39.6 						"/>
						<polygon class="st35" points="50.9,24.2 50.9,52.1 77.6,67.5 51.7,51.6 						"/>
						<polygon class="st32" points="62.1,58.6 62.1,30.6 66.4,33.1 66.4,61.3 						"/>
						<polygon class="st36" points="61.8,58.5 61.8,30.5 66,32.9 66,61.2 						"/>
						<polygon class="st33" points="77.6,67.5 104.3,52.1 104.3,24.2 77.6,39.6 						"/>
						<polygon class="st37" points="77.6,67.5 104.3,52.1 104.3,51.6 77.6,67 						"/>
						<polygon class="st32" points="79.2,62.2 86.8,57.8 86.8,51.4 79.3,55.4 79.2,55.8 						"/>
						<polygon class="st32" points="94.1,57.9 94.1,30.1 89.5,32.7 89.5,60.6 						"/>
						<polygon class="st21" points="94.3,58 94.3,30 89.7,32.6 89.7,60.7 						"/>
						<g>
							<g>
								<path class="st38" d="M58.9,39.7l-6.2-3.6V27l6.2,3.6V39.7z M53.3,35.8l5.1,2.9v-7.8L53.3,28V35.8z"/>
							</g>
							<g>
								<g>
									<polygon class="st38" points="54.6,35.2 56.8,36.5 56.8,34 54.6,32.7 									"/>
								</g>
								<polygon class="st38" points="53.6,32.2 57.8,34.6 55.7,30.2 								"/>
							</g>
						</g>
					</g>
					<polygon class="st19" points="79.5,55.5 87.1,51.1 87,51 79.3,55.4 					"/>
					<polygon class="st20" points="79.5,61.9 79.5,55.5 79.3,55.4 79.3,61.8 					"/>
					<polygon class="st21" points="79.5,61.9 87.1,57.5 87.1,51.1 79.5,55.5 					"/>
					<polygon class="st22" points="79.9,56.4 86.7,52.5 86.7,52.1 79.9,56 					"/>
					<polygon class="st23" points="82.7,56.6 86.7,54.3 86.7,53.9 82.7,56.2 					"/>
					<polygon class="st23" points="79.9,60.8 82,59.6 82,56.2 79.9,57.4 					"/>
					<polygon class="st23" points="82.7,57.4 86.7,55.1 86.7,54.7 82.7,57 					"/>
					<polygon class="st23" points="82.7,58.3 86.7,56 86.7,55.6 82.7,57.9 					"/>
					<polygon class="st23" points="82.7,59.2 86.7,56.9 86.7,56.5 82.7,58.8 					"/>
				</g>
			</g>
			<polygon class="st33" points="50.9,24.2 77.6,8.7 67.6,11 40.9,26.4 			"/>
			<polygon class="st39" points="104.3,24.2 77.6,8.7 87.6,11 114.3,26.4 			"/>
			<polygon class="st40" points="77.6,39.6 50.9,24.2 77.6,8.7 104.3,24.2 			"/>
			<polygon class="st41" points="102.1,24.2 79.5,37.2 77.6,38.3 75.8,37.2 53.2,24.2 77.6,10 			"/>
			<polygon class="st33" points="71.4,51.9 44.6,36.5 44.4,35.9 77.6,39.6 77.6,40.5 			"/>
			<polygon class="st42" points="71.1,51.4 44.4,35.9 50.9,24.2 77.6,39.6 			"/>
			<polygon class="st43" points="104.3,41.1 82.7,53.3 77.6,43.8 77.6,40.5 104.3,37.8 			"/>
			<polygon class="st34" points="83.8,51.7 110.5,36.3 110.8,35.9 77.6,39.6 77.6,40.5 			"/>
			<polygon class="st44" points="84.1,51.4 110.8,35.9 104.3,24.2 77.6,39.6 			"/>
			<polygon class="st32" points="71.1,51.4 44.4,35.9 44.6,36.5 71.4,51.9 			"/>
			<polygon class="st45" points="77.6,10 77.6,38.3 53.2,24.2 			"/>
			<polygon class="st34" points="79.5,37.2 77.6,38.3 75.8,37.2 77.6,36.2 			"/>
		</g>
	</g>
</g>
<g>
	<g>
		<g>
			<polygon class="st34" points="210.7,-88.4 184,-103.8 184,-131.8 210.7,-116.3 			"/>
			<polygon class="st38" points="184,-131.8 184,-103.8 210.7,-88.4 184.7,-104.3 			"/>
			<polygon class="st32" points="195.2,-97.2 195.2,-125.3 199.5,-122.8 199.5,-94.5 			"/>
			<polygon class="st40" points="210.7,-116.3 184,-131.8 210.7,-147.2 237.5,-131.8 			"/>
			<polygon class="st50" points="235.6,-131.8 210.8,-117.5 184,-131.8 210.7,-116.3 237.5,-131.8 210.7,-147.2 			"/>
			<polygon class="st51" points="195.9,-138.6 227,-120.7 231.7,-123.4 196,-138.7 			"/>
			<polygon class="st52" points="200.3,-141.2 211.4,-135 207,-132.4 196,-138.7 			"/>
			<polygon class="st52" points="231.8,-123.5 227.1,-120.9 211.4,-129.9 216,-132.4 			"/>
			<polygon class="st53" points="199.1,-123 226.8,-138.4 226.7,-138 199.5,-122.8 			"/>
			<polygon class="st54" points="216,-132.4 211.4,-129.9 207,-132.4 211.4,-135 			"/>
			<polygon class="st55" points="207,-132.4 211.4,-129.9 199.1,-123 194.9,-125.4 			"/>
			<polygon class="st55" points="226.8,-138.4 216,-132.4 211.4,-135 222.1,-141.1 			"/>
			<polygon class="st36" points="194.9,-97.4 194.9,-125.4 199.1,-123 199.1,-94.7 			"/>
			<polygon class="st33" points="210.7,-88.4 237.5,-103.8 237.5,-131.8 210.7,-116.3 			"/>
			<polygon class="st56" points="210.7,-88.4 237.5,-103.8 237.5,-104.3 210.7,-88.8 			"/>
			<polygon class="st32" points="212.3,-94.4 220,-98.8 220,-105.1 212.5,-101.1 212.3,-100.7 			"/>
			<polygon class="st32" points="227.3,-97.9 227.3,-125.9 222.7,-123.2 222.7,-95.3 			"/>
			<polygon class="st21" points="227.5,-97.8 227.5,-126 222.9,-123.3 222.9,-95.2 			"/>
			<g>
				<g>
					<path class="st35" d="M192-116.2l-6.2-3.6v-9.2l6.2,3.6V-116.2z M186.4-120.1l5.1,2.9v-7.8l-5.1-2.9V-120.1z"/>
				</g>
				<g>
					<polygon class="st35" points="187.7,-120.7 189.8,-119.4 189.8,-122 187.7,-123.2 					"/>
					<polygon class="st35" points="186.7,-123.8 190.9,-121.3 188.8,-125.7 					"/>
				</g>
			</g>
		</g>
		<polygon class="st19" points="212.6,-101 220.3,-105.4 220.1,-105.5 212.5,-101.1 		"/>
		<polygon class="st20" points="212.6,-94.6 212.6,-101 212.5,-101.1 212.5,-94.8 		"/>
		<polygon class="st21" points="212.6,-94.6 220.3,-99.1 220.3,-105.4 212.6,-101 		"/>
		<polygon class="st22" points="213.1,-100.2 219.8,-104.1 219.8,-104.5 213.1,-100.6 		"/>
		<polygon class="st23" points="215.9,-100 219.8,-102.3 219.8,-102.7 215.9,-100.4 		"/>
		<polygon class="st23" points="213.1,-95.7 215.2,-96.9 215.2,-100.3 213.1,-99.1 		"/>
		<polygon class="st23" points="215.9,-99.1 219.8,-101.4 219.8,-101.8 215.9,-99.5 		"/>
		<polygon class="st23" points="215.9,-98.2 219.8,-100.5 219.8,-100.9 215.9,-98.6 		"/>
		<polygon class="st23" points="215.9,-97.4 219.8,-99.6 219.8,-100 215.9,-97.8 		"/>
	</g>
	<polygon class="st55" points="223.8,-128 226.9,-126 222.9,-123.6 222.9,-123.3 227.5,-126 	"/>
</g>
<g>
	<polygon class="st57" points="28.1,68.7 12.1,59.5 12.1,39 28.1,48.2 	"/>
	<polygon class="st58" points="28.1,48.2 12.1,39 28.1,29.8 44,39 	"/>
	<polygon class="st59" points="28.1,68.7 44,59.5 44,39 28.1,48.2 	"/>
</g>
<g>
	<g>
		<path class="st57" d="M101.3,46.4l-0.5,0.3l0,0c-0.1,0.2,0,0.3,0.2,0.3l0.2-0.1c0.1-0.1,0.2,0,0.2,0.2l0,2.7c0,0.1,0,0.2-0.1,0.2
			l-1.6,0.9c-0.1,0-0.1,0.1-0.2,0.2l-0.1,0.3l1.8-1c0.2-0.1,0.3-0.4,0.3-0.7l0-2.9C101.7,46.5,101.5,46.3,101.3,46.4z M99.2,51.3
			c0-0.1-0.1-0.1-0.2,0l-1.6,0.9c-0.1,0.1-0.2,0-0.2-0.2l0-2.8c0-0.1,0-0.2,0.1-0.2l0.4-0.2c0.1-0.1,0.2-0.3,0.2-0.5l0,0l-0.5,0.3
			c-0.2,0.1-0.4,0.4-0.4,0.7l0,2.8c0,0.4,0.2,0.5,0.5,0.4l1.8-1.1L99.2,51.3z"/>
		<path class="st57" d="M98.9,48.2l-1.3-1.2c0,0-0.1,0.1-0.1,0.1l1.8,4.2l1.8-6.1c0-0.1,0-0.1-0.1-0.1L98.9,48.2
			C99,48.2,99,48.2,98.9,48.2z"/>
	</g>
</g>
<g>
	<g>
		<path class="st60" d="M40.3,50.4l-0.7,0.4l0,0c-0.1,0.3,0,0.6,0.2,0.4l0.3-0.2c0.2-0.1,0.3,0,0.3,0.3l0,4.4c0,0.1-0.1,0.3-0.2,0.3
			l-2.5,1.5c-0.1,0.1-0.2,0.2-0.2,0.4l-0.1,0.4l2.9-1.7c0.3-0.2,0.5-0.7,0.5-1.1l0-4.6C40.9,50.5,40.6,50.3,40.3,50.4z M36.9,58.3
			c0-0.1-0.1-0.1-0.3-0.1l-2.5,1.5c-0.2,0.1-0.3,0-0.3-0.3l0-4.5c0-0.1,0.1-0.3,0.2-0.3l0.6-0.3c0.2-0.1,0.4-0.5,0.3-0.7l0,0
			L33.9,54c-0.3,0.2-0.6,0.7-0.6,1.2l0,4.5c0,0.6,0.3,0.9,0.7,0.6l2.9-1.7L36.9,58.3z"/>
		<path class="st60" d="M36.5,53.2l-2.1-1.9c-0.1,0-0.1,0.1-0.1,0.2l2.9,6.7l2.8-9.8c0-0.1,0-0.2-0.1-0.1l-3.3,4.9
			C36.6,53.2,36.6,53.2,36.5,53.2z"/>
	</g>
</g>
<g>
	<g>
		<path class="st61" d="M-320.1-71.7c0.2,0.4,0.3,0.9,0.3,1.3s-0.1,0.9-0.3,1.3c-0.2,0.4-0.4,0.8-0.8,1.2c-0.4,0.3-0.8,0.6-1.2,0.8
			c-0.4,0.2-0.9,0.3-1.4,0.3c-0.5,0-0.9-0.1-1.4-0.2c-0.4-0.2-0.8-0.4-1.2-0.7c-1.6-1.6-3.5-2.9-5.5-3.6c-2-0.8-4.1-1.2-6.2-1.2
			c-2.2,0-4.3,0.4-6.3,1.3c-2,0.8-3.7,2-5.2,3.5s-2.6,3.2-3.5,5.2c-0.9,2-1.3,4.1-1.3,6.4c0,2.2,0.4,4.3,1.2,6.3
			c0.8,2,1.9,3.7,3.4,5.2c1.4,1.5,3.1,2.7,5.1,3.6c2,0.9,4.1,1.3,6.4,1.4c2.2,0,4.2-0.4,6.2-1.1c2-0.7,3.8-2,5.5-3.6
			c0.3-0.3,0.7-0.6,1.2-0.7c0.4-0.2,0.9-0.3,1.4-0.3s0.9,0.1,1.4,0.2c0.4,0.2,0.8,0.4,1.2,0.7c0.4,0.3,0.6,0.7,0.8,1.2
			c0.2,0.4,0.3,0.9,0.3,1.4s-0.1,0.9-0.3,1.4c-0.2,0.4-0.4,0.8-0.7,1.2c-2.4,2.3-5,4.1-7.9,5.2c-2.9,1.1-5.9,1.7-8.9,1.7
			c-2.2,0-4.2-0.3-6.2-0.8c-2-0.6-3.8-1.3-5.6-2.4c-1.7-1-3.3-2.3-4.7-3.7c-1.4-1.4-2.6-3-3.7-4.8c-1-1.7-1.8-3.6-2.4-5.6
			c-0.6-2-0.8-4.1-0.8-6.3c0-2.1,0.3-4.1,0.8-6.1c0.5-2,1.3-3.8,2.3-5.6c1-1.7,2.2-3.3,3.6-4.8c1.4-1.5,3-2.7,4.7-3.8
			c1.7-1.1,3.6-1.9,5.7-2.5c2.1-0.6,4.2-0.9,6.5-0.9c3,0,6,0.6,8.9,1.7c2.9,1.2,5.5,2.9,7.8,5.3C-320.5-72.5-320.2-72.1-320.1-71.7z
			"/>
		<path class="st61" d="M-307.4-36.6c0,1-0.3,1.9-1,2.5c-0.7,0.7-1.5,1-2.6,1s-1.9-0.3-2.6-1c-0.7-0.7-1.1-1.5-1.1-2.5v-39.3
			c0-1,0.4-1.9,1.1-2.5c0.7-0.7,1.6-1,2.6-1s1.9,0.3,2.6,1c0.7,0.7,1,1.5,1,2.5V-36.6z"/>
		<path class="st61" d="M-300.2-76.6c0.2-0.5,0.5-0.9,0.9-1.3c0.4-0.4,0.8-0.6,1.3-0.9c0.5-0.2,1-0.3,1.6-0.3s1.1,0.1,1.6,0.3
			c0.5,0.2,0.9,0.5,1.3,0.9c0.4,0.4,0.7,0.8,0.9,1.3s0.3,1,0.3,1.6c0,0.6-0.1,1.1-0.3,1.6c-0.2,0.5-0.5,0.9-0.9,1.3
			c-0.4,0.4-0.8,0.6-1.3,0.9c-0.5,0.2-1,0.3-1.6,0.3s-1.1-0.1-1.6-0.3c-0.5-0.2-0.9-0.5-1.3-0.9c-0.4-0.4-0.7-0.8-0.9-1.3
			c-0.2-0.5-0.3-1-0.3-1.6C-300.5-75.6-300.4-76.1-300.2-76.6z M-292.9-36.7c0,1-0.3,1.9-1,2.6c-0.7,0.7-1.5,1-2.6,1
			c-0.5,0-0.9-0.1-1.4-0.3c-0.4-0.2-0.8-0.4-1.2-0.8c-0.3-0.3-0.6-0.7-0.8-1.1c-0.2-0.4-0.3-0.9-0.3-1.4v-27c0-0.5,0.1-1,0.3-1.4
			c0.2-0.4,0.5-0.8,0.8-1.1c0.3-0.3,0.7-0.6,1.2-0.8c0.4-0.2,0.9-0.3,1.4-0.3s1,0.1,1.4,0.3c0.4,0.2,0.8,0.5,1.1,0.8
			c0.3,0.3,0.6,0.7,0.7,1.1c0.2,0.4,0.3,0.9,0.3,1.4V-36.7z"/>
		<path class="st61" d="M-280.3-50L-280.3-50v0.1c0,1.2,0.2,2.4,0.7,3.6c0.5,1.2,1.1,2.2,2,3.2c0.8,0.9,1.8,1.7,3,2.2
			c1.1,0.6,2.4,0.9,3.8,0.9c1.2,0,2.4-0.1,3.6-0.4c1.1-0.3,2.2-1,3.3-1.9c0.4-0.3,0.8-0.6,1.2-0.9c0.4-0.3,0.9-0.5,1.3-0.6
			c0.5-0.1,1-0.1,1.5,0c0.5,0.1,1.1,0.4,1.7,0.9c0.4,0.3,0.7,0.7,0.9,1.2s0.3,0.9,0.3,1.4c0,0.5-0.1,1-0.3,1.5c-0.2,0.5-0.5,1-1,1.4
			c-1.5,1.5-3.2,2.7-5.3,3.5c-2.1,0.8-4.2,1.2-6.5,1.2c-2.4,0-4.7-0.4-6.8-1.3c-2.1-0.9-4-2.1-5.5-3.6c-1.6-1.5-2.8-3.3-3.8-5.4
			c-0.9-2.1-1.4-4.3-1.4-6.7v0l0-0.1l0,0c0-2.4,0.5-4.7,1.4-6.8c0.9-2.1,2.2-3.9,3.8-5.5c1.6-1.6,3.4-2.8,5.5-3.7
			c2.1-0.9,4.4-1.4,6.8-1.4c2.3,0,4.4,0.4,6.5,1.2c2.1,0.8,3.8,1.9,5.3,3.5c0.4,0.4,0.8,0.9,1,1.4c0.2,0.5,0.3,1,0.3,1.5
			c0,0.5-0.1,1-0.3,1.4s-0.5,0.9-0.9,1.2c-0.6,0.5-1.1,0.8-1.7,0.9c-0.5,0.1-1.1,0.1-1.5,0c-0.5-0.1-0.9-0.3-1.3-0.6
			c-0.4-0.3-0.8-0.6-1.2-0.9c-1.1-0.9-2.2-1.5-3.3-1.8c-1.1-0.3-2.3-0.5-3.6-0.5c-1.3,0-2.6,0.4-3.7,0.9c-1.1,0.6-2.1,1.3-3,2.2
			s-1.5,2-2,3.2C-280.1-52.5-280.3-51.3-280.3-50z"/>
		<path class="st61" d="M-234.9-52.9l9.2,14.2c0.3,0.4,0.5,0.9,0.5,1.4c0.1,0.5,0.1,0.9,0,1.4c-0.1,0.5-0.3,0.9-0.5,1.3
			c-0.3,0.4-0.6,0.7-1,1c-0.4,0.3-0.8,0.5-1.3,0.6c-0.5,0.1-0.9,0.1-1.4,0c-0.5-0.1-0.9-0.3-1.3-0.5c-0.4-0.3-0.7-0.6-1-1l-8.6-13.1
			l-4.5,4.3v6.9c0,0.5-0.1,1-0.3,1.4c-0.2,0.4-0.4,0.8-0.8,1.1c-0.3,0.3-0.7,0.6-1.1,0.8c-0.4,0.2-0.9,0.3-1.4,0.3
			c-1,0-1.9-0.3-2.6-1c-0.7-0.7-1.1-1.5-1.1-2.5v-39.3c0-0.5,0.1-1,0.3-1.4c0.2-0.4,0.5-0.8,0.8-1.1c0.3-0.3,0.7-0.6,1.2-0.8
			c0.4-0.2,0.9-0.3,1.4-0.3c1,0,1.9,0.3,2.5,1c0.7,0.7,1,1.5,1,2.5V-53l13.2-12.9c0.4-0.3,0.8-0.6,1.2-0.8c0.4-0.2,0.9-0.2,1.3-0.2
			c0.4,0,0.9,0.1,1.3,0.3c0.4,0.2,0.8,0.5,1.1,0.8v0.1c0.3,0.4,0.6,0.8,0.8,1.2c0.2,0.4,0.3,0.9,0.3,1.3c0,0.4-0.1,0.9-0.3,1.3
			c-0.2,0.4-0.4,0.8-0.8,1.1L-234.9-52.9z"/>
		<path class="st61" d="M-210.6-52.1v15.5c0,1-0.4,1.9-1.1,2.5c-0.7,0.7-1.6,1-2.6,1s-1.9-0.3-2.6-1c-0.7-0.7-1-1.5-1-2.5v-39.3
			c0-1,0.3-1.9,1-2.5c0.7-0.7,1.5-1,2.6-1h12.1c1.9,0,3.8,0.4,5.5,1.1c1.7,0.7,3.2,1.7,4.5,2.9c1.3,1.2,2.3,2.7,3,4.4
			c0.7,1.7,1.1,3.5,1.1,5.4c0,1.9-0.4,3.7-1.1,5.4c-0.7,1.7-1.7,3.1-3,4.3s-2.8,2.2-4.5,2.9c-1.7,0.7-3.5,1.1-5.5,1.1H-210.6z
			 M-210.6-72.3v13h8.6c0.9,0,1.8-0.2,2.6-0.5c0.8-0.4,1.5-0.8,2.2-1.5c0.6-0.6,1.1-1.3,1.4-2.1c0.4-0.8,0.5-1.6,0.5-2.5
			c0-0.9-0.2-1.7-0.5-2.5c-0.4-0.8-0.9-1.5-1.5-2c-0.6-0.6-1.3-1-2.2-1.4c-0.8-0.3-1.7-0.5-2.6-0.5H-210.6z"/>
		<path class="st61" d="M-184.5-56.7c0.9-2.1,2.1-3.9,3.7-5.5c1.6-1.6,3.4-2.8,5.5-3.7s4.3-1.4,6.7-1.4c2.4,0,4.6,0.5,6.7,1.4
			c2.1,0.9,3.9,2.1,5.5,3.7c1.6,1.6,2.8,3.4,3.7,5.5c0.9,2.1,1.4,4.3,1.4,6.7c0,2.4-0.5,4.6-1.4,6.7s-2.1,3.9-3.7,5.5
			c-1.6,1.6-3.4,2.8-5.5,3.7c-2.1,0.9-4.3,1.4-6.7,1.4c-2.4,0-4.6-0.5-6.7-1.4c-2.1-0.9-3.9-2.1-5.5-3.7c-1.6-1.6-2.8-3.4-3.7-5.5
			c-0.9-2.1-1.4-4.3-1.4-6.7C-185.9-52.3-185.4-54.6-184.5-56.7z M-177.8-46c0.5,1.2,1.3,2.3,2.2,3.2c0.9,0.9,2,1.6,3.2,2.2
			c1.2,0.5,2.5,0.8,3.9,0.8c1.4,0,2.7-0.3,3.9-0.8c1.2-0.5,2.3-1.3,3.2-2.2c0.9-0.9,1.6-2,2.1-3.2c0.5-1.2,0.8-2.5,0.8-3.9
			c0-1.4-0.3-2.7-0.8-3.9c-0.5-1.2-1.2-2.3-2.1-3.2c-0.9-0.9-2-1.6-3.2-2.1c-1.2-0.5-2.5-0.8-3.9-0.8c-1.4,0-2.7,0.3-3.9,0.8
			c-1.2,0.5-2.3,1.2-3.2,2.1c-0.9,0.9-1.6,2-2.2,3.2c-0.5,1.2-0.8,2.5-0.8,3.9C-178.6-48.6-178.3-47.3-177.8-46z"/>
		<path class="st61" d="M-140.3-48.8c-1.4-0.6-2.6-1.3-3.7-2.1c-1.1-0.8-1.9-1.7-2.6-2.8c-0.6-1.1-1-2.3-1-3.8c0-1.5,0.3-2.9,1-4.1
			c0.7-1.2,1.5-2.3,2.6-3.1c1.1-0.9,2.4-1.5,3.8-2c1.4-0.5,2.9-0.7,4.5-0.7c1,0,2.1,0.1,3.1,0.3c1.1,0.2,2.1,0.5,3,0.9
			c1,0.4,1.8,0.9,2.6,1.5c0.8,0.6,1.4,1.3,1.8,2.2c0.3,0.7,0.5,1.4,0.4,2c-0.1,0.6-0.4,1.1-0.8,1.6c-0.4,0.5-1,0.8-1.6,1
			c-0.7,0.2-1.3,0.1-1.9-0.2c-0.5-0.4-1-0.7-1.5-1.1c-0.5-0.4-0.9-0.7-1.4-0.9c-0.5-0.3-1-0.5-1.5-0.7c-0.5-0.2-1.1-0.3-1.8-0.3
			c-1.5,0-2.7,0.3-3.7,0.8c-1,0.6-1.5,1.4-1.5,2.6c0,0.6,0.2,1.1,0.5,1.5c0.3,0.4,0.7,0.8,1.3,1.2c0.5,0.3,1.2,0.6,1.9,0.9
			c0.7,0.3,1.6,0.6,2.5,0.8c1.4,0.5,2.8,1,4.1,1.5c1.3,0.5,2.5,1.2,3.5,2c1,0.8,1.8,1.7,2.4,2.8c0.6,1.1,0.9,2.4,0.9,4
			c0,1.5-0.3,2.8-0.9,4c-0.6,1.2-1.5,2.3-2.6,3.2c-1.1,0.9-2.4,1.6-3.9,2.2c-1.5,0.5-3.1,0.8-4.8,0.8c-1.1,0-2.3-0.1-3.5-0.3
			c-1.2-0.2-2.4-0.6-3.5-1.1c-1.1-0.5-2.2-1.1-3.1-1.9c-0.9-0.8-1.7-1.7-2.3-2.8c-0.4-0.7-0.6-1.4-0.6-2c0-0.6,0.2-1.2,0.4-1.6
			c0.3-0.5,0.7-0.8,1.1-1.1c0.5-0.3,1-0.4,1.6-0.5c0.6,0,1.2,0.1,1.8,0.3c0.6,0.3,1.2,0.7,1.7,1.3c0.8,1.1,1.7,2,2.6,2.5
			c1,0.5,2.2,0.8,3.7,0.8c0.7,0,1.3-0.1,1.9-0.3c0.6-0.2,1.2-0.4,1.7-0.7s0.9-0.7,1.2-1.1c0.3-0.4,0.4-1,0.4-1.5
			c0-0.7-0.2-1.3-0.6-1.8c-0.4-0.5-0.9-0.9-1.5-1.2c-0.6-0.3-1.2-0.6-1.9-0.8c-0.7-0.2-1.3-0.4-1.9-0.6
			C-137.6-47.6-139-48.2-140.3-48.8z"/>
		<path class="st61" d="M-107.4-67.2h3.1c1,0,1.9,0.3,2.6,1c0.7,0.7,1,1.5,1,2.5c0,1-0.3,1.9-1,2.6c-0.7,0.7-1.6,1.1-2.6,1.1h-3.1
			v23.3c0,1-0.3,1.9-1,2.5c-0.7,0.7-1.5,1-2.6,1c-1,0-1.9-0.3-2.6-1c-0.7-0.7-1.1-1.5-1.1-2.5v-23.3h-2.6c-0.5,0-1-0.1-1.4-0.3
			c-0.4-0.2-0.8-0.5-1.1-0.8c-0.3-0.3-0.6-0.7-0.8-1.2c-0.2-0.4-0.3-0.9-0.3-1.4c0-1,0.3-1.9,1.1-2.5c0.7-0.7,1.6-1,2.6-1h2.6v-8.8
			c0-1,0.3-1.9,1.1-2.5c0.7-0.7,1.6-1,2.6-1c1,0,1.9,0.3,2.6,1c0.7,0.7,1,1.5,1,2.5V-67.2z"/>
		<path class="st61" d="M-98.8-49.9c0-2.4,0.5-4.6,1.4-6.7c0.9-2.1,2.1-3.9,3.7-5.5c1.6-1.6,3.4-2.8,5.5-3.7
			c2.1-0.9,4.3-1.4,6.7-1.4s4.6,0.4,6.7,1.3c2.1,0.9,3.9,2.1,5.5,3.7c1.6,1.6,2.8,3.4,3.7,5.5c0.9,2.1,1.4,4.3,1.4,6.7v13.3
			c0,0.5-0.1,1-0.3,1.4c-0.2,0.4-0.5,0.8-0.8,1.2c-0.3,0.3-0.7,0.6-1.2,0.8c-0.5,0.2-0.9,0.3-1.5,0.3c-1,0-1.8-0.3-2.4-1
			c-0.6-0.6-1-1.4-1.1-2.3c-1.4,1.2-3,2.1-4.7,2.7c-1.7,0.7-3.5,1-5.4,1c-2.4,0-4.6-0.5-6.7-1.4c-2.1-0.9-3.9-2.1-5.5-3.7
			c-1.6-1.6-2.8-3.4-3.7-5.5C-98.3-45.3-98.8-47.5-98.8-49.9z M-91.6-49.9c0,1.4,0.3,2.7,0.8,3.9c0.5,1.2,1.3,2.3,2.2,3.2
			c0.9,0.9,2,1.6,3.2,2.2c1.2,0.5,2.5,0.8,3.9,0.8c1.4,0,2.7-0.3,3.9-0.8c1.2-0.5,2.3-1.3,3.2-2.2c0.9-0.9,1.6-2,2.1-3.2
			c0.5-1.2,0.8-2.5,0.8-3.9c0-1.4-0.3-2.7-0.8-3.9c-0.5-1.2-1.2-2.3-2.1-3.2c-0.9-0.9-2-1.6-3.2-2.1c-1.2-0.5-2.5-0.8-3.9-0.8
			c-1.4,0-2.7,0.3-3.9,0.8c-1.2,0.5-2.3,1.2-3.2,2.1c-0.9,0.9-1.6,2-2.2,3.2C-91.3-52.6-91.6-51.3-91.6-49.9z"/>
	</g>
</g>
</svg>
