<?xml version="1.0" encoding="utf-8"?>
<!-- Generator: Adobe Illustrator 26.0.0, SVG Export Plug-In . SVG Version: 6.00 Build 0)  -->
<svg version="1.1" id="Layer_1" xmlns="http://www.w3.org/2000/svg" xmlns:xlink="http://www.w3.org/1999/xlink" x="0px" y="0px"
	 viewBox="0 0 512 512" style="enable-background:new 0 0 512 512;" xml:space="preserve">
<style type="text/css">
	.st0{fill:#FFFFFF;}
</style>
<path class="st0" d="M64,192c0,36.9,11,65.4,30.1,94.3l141.7,215c4.2,6.4,11.7,10.7,20.2,10.7c4.2,0,8.2-1,11.7-2.9
	c3.4-1.9,6.4-4.5,8.5-7.8l141.7-215C437,257.4,448,228.9,448,192C448,85.3,362.7,0,256,0S64,85.3,64,192z M197.8,120.7
	c0-12.6,13.9-20.2,24.5-13.5l107.8,68.2c9.9,6.3,9.9,20.7,0,27l-107.8,68.4c-10.6,6.8-24.5-0.9-24.5-13.5v-29.2
	c0-6.1,3.5-11.6,8.9-14.3l20.4-10c12.1-5.9,11.8-23.2-0.4-28.8l-19.6-9c-5.7-2.6-9.3-8.3-9.3-14.5V120.7z"/>
</svg>
