<?xml version="1.0" encoding="utf-8"?>
<!-- Generator: Adobe Illustrator 26.0.0, SVG Export Plug-In . SVG Version: 6.00 Build 0)  -->
<svg version="1.1" id="Layer_1" xmlns="http://www.w3.org/2000/svg" xmlns:xlink="http://www.w3.org/1999/xlink" x="0px" y="0px"
	 viewBox="0 0 512 512" style="enable-background:new 0 0 512 512;" xml:space="preserve">
<style type="text/css">
	.st0{fill:#FFFFFF;}
</style>
<path class="st0" d="M256,0C149.3,0,64,85.3,64,192c0,36.9,11,65.4,30.1,94.3l141.7,215c2.2,3.2,5.1,5.9,8.5,7.8
	c3.5,1.9,7.4,2.9,11.7,2.9c8.5,0,16-4.3,20.2-10.7l141.7-215C437,257.4,448,228.9,448,192C448,85.3,362.7,0,256,0z M314.2,151.4
	c0,6.2-3.6,11.9-9.3,14.5l-19.6,9c-12.2,5.6-12.5,22.9-0.4,28.8l20.4,10c5.5,2.7,8.9,8.2,8.9,14.3v29.2c0,12.6-13.9,20.2-24.5,13.5
	l-107.8-68.4c-9.9-6.3-9.9-20.7,0-27l107.8-68.2c10.6-6.7,24.5,0.9,24.5,13.5V151.4z"/>
</svg>
