<?xml version="1.0" encoding="utf-8"?>
<!-- Generator: Adobe Illustrator 26.0.0, SVG Export Plug-In . SVG Version: 6.00 Build 0)  -->
<svg version="1.1" id="Layer_1" xmlns="http://www.w3.org/2000/svg" xmlns:xlink="http://www.w3.org/1999/xlink" x="0px" y="0px"
	 viewBox="0 0 30 30" style="enable-background:new 0 0 30 30;" xml:space="preserve">
<style type="text/css">
	.st0{fill:#FFFFFF;}
</style>
<path class="st0" d="M29.4,12l-4.1-2.6l3.2-2.6c0.2-0.2,0.3-0.3,0.3-0.6s-0.2-0.5-0.3-0.6l-9.1-5.4C19.3,0,19,0,18.8,0.1l-3.7,2.6
	l-3.9-2.3c-0.2-0.2-0.5-0.2-0.6,0L1.4,5.6C1.3,5.8,1.1,6,1.1,6.3c0,0.3,0.2,0.5,0.3,0.6l3.2,2.6l-4.1,2.6c-0.2,0.2-0.3,0.3-0.3,0.6
	s0.2,0.5,0.3,0.6l4.7,3.2c0,0,0,0,0,0.2V24c0,0.3,0.2,0.5,0.3,0.6l9.1,5.4l0,0l0,0l0,0l0,0l0,0l0,0l0,0l0,0l0,0l0,0l0,0l0,0l0,0l0,0
	l0,0l9.1-5.4c0.2-0.2,0.3-0.3,0.3-0.6v-7.1l4.7-3.2c0.2-0.2,0.3-0.3,0.3-0.6C29.7,12.3,29.5,12.1,29.4,12z M19,1.7l8,4.5L24,8.6
	l-7.8-4.9L19,1.7z M22.7,9.5l-7.8,5.4L7.1,9.5l7.8-4.7L22.7,9.5z M3,6.5l8-4.5L13.8,4L6,8.9L3,6.5z M2.1,12.6l3.7-2.3l7.8,5.4
	L9.9,18L2.1,12.6z M19.9,18l-3.7-2.3l7.8-5.4l3.7,2.3L19.9,18z"/>
</svg>
