<?xml version="1.0" encoding="utf-8"?>
<!-- Generator: Adobe Illustrator 26.0.0, SVG Export Plug-In . SVG Version: 6.00 Build 0)  -->
<svg version="1.1" id="Layer_1" xmlns="http://www.w3.org/2000/svg" xmlns:xlink="http://www.w3.org/1999/xlink" x="0px" y="0px"
	 viewBox="0 0 30 30" style="enable-background:new 0 0 30 30;" xml:space="preserve">
<style type="text/css">
	.st0{fill-rule:evenodd;clip-rule:evenodd;fill:#DA244B;}
	.st1{fill:#FFFFFF;}
</style>
<circle class="st0" cx="15" cy="15" r="15"/>
<path class="st1" d="M23.8,13.1l-2.5-1.6l2-1.6c0.1-0.1,0.2-0.2,0.2-0.4c0-0.2-0.1-0.3-0.2-0.4l-5.6-3.3c-0.1-0.1-0.3-0.1-0.4,0
	l-2.3,1.6L12.6,6c-0.1-0.1-0.3-0.1-0.4,0L6.6,9.2C6.5,9.3,6.4,9.4,6.4,9.6c0,0.2,0.1,0.3,0.2,0.4l2,1.6l-2.5,1.6
	c-0.1,0.1-0.2,0.2-0.2,0.4c0,0.2,0.1,0.3,0.2,0.4l2.9,2c0,0,0,0,0,0.1v4.4c0,0.2,0.1,0.3,0.2,0.4l5.6,3.3c0,0,0,0,0,0c0,0,0,0,0,0
	c0,0,0,0,0,0c0,0,0,0,0,0c0,0,0,0,0,0c0,0,0,0,0,0c0,0,0,0,0,0c0,0,0,0,0,0c0,0,0,0,0,0c0,0,0,0,0,0c0,0,0,0,0,0c0,0,0,0,0,0
	c0,0,0,0,0,0c0,0,0,0,0,0c0,0,0,0,0,0l5.6-3.3c0.1-0.1,0.2-0.2,0.2-0.4v-4.4l2.9-2c0.1-0.1,0.2-0.2,0.2-0.4
	C24,13.3,23.9,13.2,23.8,13.1z M17.4,6.8l4.9,2.8l-1.8,1.4l-4.8-3L17.4,6.8z M19.7,11.6l-4.8,3.3l-4.8-3.3l4.8-2.9L19.7,11.6z
	 M7.6,9.7l4.9-2.8l1.7,1.3l-4.8,3L7.6,9.7z M7,13.5l2.3-1.4l4.8,3.3l-2.3,1.4L7,13.5z M18,16.8l-2.3-1.4l4.8-3.3l2.3,1.4L18,16.8z"
	/>
</svg>
