<?xml version="1.0" encoding="utf-8"?>
<!-- Generator: Adobe Illustrator 26.0.0, SVG Export Plug-In . SVG Version: 6.00 Build 0)  -->
<svg version="1.1" id="Layer_1" xmlns="http://www.w3.org/2000/svg" xmlns:xlink="http://www.w3.org/1999/xlink" x="0px" y="0px"
	 viewBox="0 0 30 30" style="enable-background:new 0 0 30 30;" xml:space="preserve">
<style type="text/css">
	.st0{fill-rule:evenodd;clip-rule:evenodd;fill:#DA244B;}
	.st1{fill:#FFFFFF;}
	.st2{fill-rule:evenodd;clip-rule:evenodd;fill:#FFFFFF;}
</style>
<circle class="st0" cx="15" cy="15" r="15"/>
<path class="st1" d="M15,18c1.7,0,3-1.3,3-3c0-1.7-1.3-3-3-3c-1.7,0-3,1.3-3,3C12,16.7,13.3,18,15,18z"/>
<path class="st2" d="M15,6c0.6,0,1,0.4,1,1v1.1c3.1,0.4,5.5,2.9,5.9,5.9H23c0.6,0,1,0.4,1,1c0,0.6-0.4,1-1,1h-1.1
	c-0.4,3.1-2.9,5.5-5.9,5.9V23c0,0.6-0.4,1-1,1s-1-0.4-1-1v-1.1c-3.1-0.4-5.5-2.9-5.9-5.9H7c-0.6,0-1-0.4-1-1s0.4-1,1-1h1.1
	c0.4-3.1,2.9-5.5,5.9-5.9V7C14,6.4,14.4,6,15,6z M10,15c0-2.8,2.2-5,5-5c2.8,0,5,2.2,5,5c0,2.8-2.2,5-5,5C12.2,20,10,17.8,10,15z"/>
</svg>
