<?xml version="1.0" encoding="utf-8"?>
<!-- Generator: Adobe Illustrator 25.0.1, SVG Export Plug-In . SVG Version: 6.00 Build 0)  -->
<svg version="1.1" id="Layer_1" xmlns="http://www.w3.org/2000/svg" xmlns:xlink="http://www.w3.org/1999/xlink" x="0px" y="0px"
	 viewBox="0 0 216 216" style="enable-background:new 0 0 216 216;" xml:space="preserve">
<style type="text/css">
	.st0{fill:#FFFFFF;}
	.st1{fill:#FFC7C7;}
	.st2{fill:#B36810;}
	.st3{fill:#C47212;}
	.st4{fill:#FFB607;}
	.st5{opacity:0.15;enable-background:new    ;}
	.st6{fill:#E29A0A;}
	.st7{fill:#FFB727;}
	.st8{fill:none;}
	.st9{enable-background:new    ;}
	.st10{fill:#D77D14;}
	.st11{fill:#C67F0C;}
	.st12{fill:#D88F0E;}
</style>
<g id="OBJECTS">
	<circle class="st0" cx="108" cy="108" r="108"/>
	<g>
		<ellipse class="st1" cx="108" cy="120.4" rx="72.9" ry="23.5"/>
		<g>
			<polygon class="st2" points="104.9,33.8 153.4,49.2 153.4,120.3 104.9,104.8 			"/>
			<polygon class="st3" points="104.9,33.8 60.3,49.2 60.3,120.3 104.9,104.8 			"/>
			<polygon class="st4" points="108.8,135.7 60.3,120.2 60.3,49.1 108.8,64.6 			"/>
			<polygon class="st5" points="60.3,59 60.3,79.6 102.9,93.2 108.8,74.5 108.8,64.6 62.4,52.6 			"/>
			<polygon class="st6" points="108.8,135.7 153.4,120.2 153.4,49.1 108.8,64.6 			"/>
			<polygon class="st5" points="108.8,64.6 108.8,74.1 114.2,91.7 153.4,78.1 153.4,58.6 150.8,50 			"/>
			<polygon class="st7" points="116,88.4 160.6,72.9 153.4,49.1 108.8,64.6 			"/>
			<polygon class="st7" points="100.9,89.8 52.4,74.3 60.3,49.1 108.8,64.6 			"/>
		</g>
	</g>
	<rect x="68.6" y="155.2" class="st8" width="78.8" height="45.8"/>
	<g class="st9">
		<path class="st4" d="M104.8,172.5c-0.4,0-0.7-0.2-0.9-0.4c-0.2-0.2-0.4-0.6-0.4-0.9v-14.6c0-0.2,0-0.4,0.1-0.5
			c0.1-0.2,0.2-0.3,0.3-0.4c0.1-0.1,0.3-0.2,0.4-0.3c0.2-0.1,0.3-0.1,0.5-0.1h7.2c0.2,0,0.4,0,0.5,0.1s0.3,0.2,0.4,0.3
			c0.1,0.1,0.2,0.3,0.3,0.4c0.1,0.2,0.1,0.3,0.1,0.5c0,0.4-0.1,0.7-0.4,1c-0.3,0.3-0.6,0.4-0.9,0.4h-5.9v4.7h4.2
			c0.2,0,0.4,0,0.5,0.1s0.3,0.2,0.4,0.3c0.1,0.1,0.2,0.3,0.3,0.4s0.1,0.3,0.1,0.5c0,0.4-0.1,0.7-0.4,0.9c-0.3,0.2-0.6,0.4-1,0.4
			h-4.2v4.6h5.9c0.4,0,0.7,0.1,0.9,0.4s0.4,0.6,0.4,1c0,0.2,0,0.4-0.1,0.5s-0.2,0.3-0.3,0.4c-0.1,0.1-0.3,0.2-0.4,0.3
			s-0.3,0.1-0.5,0.1H104.8z"/>
	</g>
	<g class="st9">
		<path class="st4" d="M61.3,178.2c0.8,0,1.6,0.1,2.3,0.3c0.7,0.2,1.4,0.5,2.1,0.9c0.7,0.4,1.2,0.8,1.8,1.3c0.5,0.5,1,1.1,1.4,1.7
			c0.4,0.6,0.7,1.3,0.9,2.1c0.2,0.7,0.3,1.5,0.3,2.3c0,0.8-0.1,1.6-0.3,2.3s-0.5,1.4-0.9,2.1c-0.4,0.6-0.8,1.2-1.4,1.7
			c-0.5,0.5-1.1,1-1.8,1.3c-0.7,0.4-1.4,0.7-2.1,0.9s-1.5,0.3-2.3,0.3h-3c-0.2,0-0.5,0-0.7-0.1c-0.2-0.1-0.4-0.2-0.5-0.4
			c-0.2-0.1-0.3-0.3-0.4-0.5s-0.1-0.4-0.1-0.6v-14c0-0.2,0-0.5,0.1-0.6c0.1-0.2,0.2-0.4,0.4-0.5c0.2-0.1,0.3-0.3,0.5-0.4
			c0.2-0.1,0.4-0.1,0.7-0.1H61.3z M66.7,186.9c0-0.7-0.1-1.4-0.4-2.1c-0.3-0.6-0.7-1.2-1.2-1.7c-0.5-0.5-1.1-0.8-1.7-1.1
			c-0.7-0.3-1.4-0.4-2.1-0.4h-1.4v10.5h1.4c0.8,0,1.5-0.1,2.1-0.4c0.7-0.3,1.2-0.6,1.7-1.1c0.5-0.5,0.9-1,1.2-1.7
			C66.6,188.3,66.7,187.6,66.7,186.9z"/>
		<path class="st4" d="M74,195.5c-0.4,0-0.8-0.2-1.1-0.5s-0.4-0.7-0.4-1.1v-14c0-0.2,0-0.5,0.1-0.7s0.2-0.4,0.4-0.5s0.3-0.3,0.5-0.4
			c0.2-0.1,0.4-0.1,0.7-0.1H81c0.2,0,0.5,0,0.6,0.1c0.2,0.1,0.4,0.2,0.5,0.4s0.3,0.3,0.4,0.5c0.1,0.2,0.1,0.4,0.1,0.7
			c0,0.2,0,0.5-0.1,0.7c-0.1,0.2-0.2,0.4-0.4,0.5s-0.3,0.3-0.5,0.4c-0.2,0.1-0.4,0.1-0.6,0.1h-5.2v3.7h3.7c0.2,0,0.5,0,0.7,0.1
			s0.4,0.2,0.5,0.4s0.3,0.3,0.4,0.5c0.1,0.2,0.1,0.4,0.1,0.7s0,0.4-0.1,0.6s-0.2,0.4-0.4,0.5c-0.2,0.1-0.3,0.3-0.5,0.3
			s-0.4,0.1-0.7,0.1h-3.7v3.6H81c0.2,0,0.5,0,0.6,0.1c0.2,0.1,0.4,0.2,0.5,0.4s0.3,0.3,0.4,0.5c0.1,0.2,0.1,0.4,0.1,0.7
			c0,0.2,0,0.5-0.1,0.7c-0.1,0.2-0.2,0.4-0.4,0.5s-0.3,0.3-0.5,0.4c-0.2,0.1-0.4,0.1-0.6,0.1H74z M73,174.2c0.1-0.2,0.2-0.4,0.4-0.6
			c0.2-0.2,0.4-0.3,0.6-0.4c0.2-0.1,0.5-0.1,0.7-0.1c0.2,0,0.5,0,0.7,0.1c0.2,0.1,0.4,0.2,0.6,0.4c0.2,0.2,0.3,0.4,0.4,0.6
			c0.1,0.2,0.1,0.5,0.1,0.7c0,0.3,0,0.5-0.1,0.7c-0.1,0.2-0.2,0.4-0.4,0.6c-0.2,0.2-0.4,0.3-0.6,0.4c-0.2,0.1-0.5,0.1-0.7,0.1
			c-0.3,0-0.5,0-0.7-0.1c-0.2-0.1-0.4-0.2-0.6-0.4c-0.2-0.2-0.3-0.4-0.4-0.6c-0.1-0.2-0.1-0.5-0.1-0.7
			C72.8,174.6,72.9,174.4,73,174.2z M78.3,174.2c0.1-0.2,0.2-0.4,0.4-0.6c0.2-0.2,0.4-0.3,0.6-0.4c0.2-0.1,0.5-0.1,0.7-0.1
			c0.3,0,0.5,0,0.7,0.1s0.4,0.2,0.6,0.4s0.3,0.4,0.4,0.6c0.1,0.2,0.1,0.5,0.1,0.7c0,0.3,0,0.5-0.1,0.7c-0.1,0.2-0.2,0.4-0.4,0.6
			c-0.2,0.2-0.4,0.3-0.6,0.4s-0.5,0.1-0.7,0.1c-0.2,0-0.5,0-0.7-0.1c-0.2-0.1-0.4-0.2-0.6-0.4c-0.2-0.2-0.3-0.4-0.4-0.6
			c-0.1-0.2-0.1-0.5-0.1-0.7C78.2,174.6,78.2,174.4,78.3,174.2z"/>
		<path class="st4" d="M96.3,184.9c-0.1,0.5-0.4,0.9-0.6,1.3s-0.6,0.8-1,1.1s-0.8,0.6-1.2,0.8l2.8,4.9c0.1,0.2,0.2,0.4,0.2,0.6
			s0,0.4-0.1,0.6s-0.2,0.4-0.3,0.6s-0.3,0.3-0.5,0.4c-0.2,0.1-0.4,0.2-0.6,0.2c-0.2,0-0.4,0-0.6,0c-0.2-0.1-0.4-0.2-0.6-0.3
			c-0.2-0.1-0.3-0.3-0.4-0.5l-3.4-6h-1.6v5.2c0,0.2,0,0.5-0.1,0.6s-0.2,0.4-0.4,0.5s-0.3,0.3-0.5,0.4c-0.2,0.1-0.4,0.1-0.6,0.1
			c-0.2,0-0.5,0-0.7-0.1c-0.2-0.1-0.4-0.2-0.5-0.4c-0.2-0.1-0.3-0.3-0.4-0.5s-0.1-0.4-0.1-0.6v-14c0-0.2,0-0.5,0.1-0.6
			c0.1-0.2,0.2-0.4,0.4-0.5c0.2-0.1,0.3-0.3,0.5-0.4c0.2-0.1,0.4-0.1,0.7-0.1h4.5c0.7,0,1.4,0.1,2.1,0.4c0.6,0.3,1.2,0.6,1.7,1.1
			c0.5,0.5,0.9,1,1.1,1.7c0.3,0.6,0.4,1.3,0.4,2C96.5,183.9,96.4,184.4,96.3,184.9z M88.4,181.5v3.8h2.8c0.3,0,0.5-0.1,0.7-0.2
			c0.2-0.1,0.4-0.3,0.6-0.4c0.2-0.2,0.3-0.4,0.4-0.6c0.1-0.2,0.2-0.5,0.2-0.7s-0.1-0.5-0.2-0.7c-0.1-0.2-0.2-0.4-0.4-0.6
			c-0.2-0.2-0.4-0.3-0.6-0.4c-0.2-0.1-0.5-0.1-0.7-0.1H88.4z"/>
		<path class="st4" d="M102,189c0.3,0.7,0.7,1.2,1.1,1.7c0.5,0.5,1.1,0.9,1.7,1.1c0.7,0.3,1.4,0.4,2.1,0.4c1,0,1.9-0.2,2.7-0.6
			c0.7-0.4,1.3-1,1.6-1.7h-1.9c-0.2,0-0.5,0-0.6-0.1c-0.2-0.1-0.4-0.2-0.5-0.4s-0.3-0.3-0.4-0.5s-0.1-0.4-0.1-0.7
			c0-0.2,0-0.4,0.1-0.6c0.1-0.2,0.2-0.4,0.4-0.5s0.3-0.3,0.5-0.4c0.2-0.1,0.4-0.1,0.6-0.1l4,0c0.2,0,0.5,0,0.7,0.1
			c0.2,0.1,0.4,0.2,0.5,0.3c0.2,0.1,0.3,0.3,0.4,0.5s0.1,0.4,0.1,0.7c0,1.1-0.3,2-0.7,2.9c-0.4,0.9-1,1.7-1.7,2.3s-1.6,1.2-2.5,1.5
			s-2,0.6-3.1,0.6c-0.8,0-1.6-0.1-2.3-0.3c-0.7-0.2-1.4-0.5-2.1-0.9c-0.6-0.4-1.2-0.8-1.8-1.4c-0.5-0.5-1-1.1-1.4-1.8
			c-0.4-0.6-0.7-1.3-0.9-2.1c-0.2-0.7-0.3-1.5-0.3-2.3c0-0.8,0.1-1.6,0.3-2.3s0.5-1.4,0.9-2.1c0.4-0.7,0.8-1.2,1.3-1.8
			s1.1-1,1.7-1.4c0.6-0.4,1.3-0.7,2.1-0.9c0.7-0.2,1.5-0.3,2.3-0.3c1.2,0,2.4,0.2,3.4,0.7s2,1.1,2.9,2c0.2,0.2,0.3,0.3,0.4,0.5
			s0.1,0.4,0.1,0.6c0,0.2,0,0.4-0.1,0.6c-0.1,0.2-0.2,0.4-0.4,0.5s-0.3,0.3-0.5,0.4s-0.4,0.1-0.6,0.1c-0.2,0-0.4,0-0.6-0.1
			c-0.2-0.1-0.4-0.2-0.6-0.4c-0.5-0.5-1.2-0.9-1.8-1.2c-0.7-0.3-1.4-0.4-2.1-0.4c-0.7,0-1.4,0.1-2.1,0.4c-0.6,0.3-1.2,0.7-1.7,1.1
			c-0.5,0.5-0.9,1.1-1.2,1.7s-0.4,1.4-0.4,2.1C101.6,187.6,101.8,188.3,102,189z"/>
		<path class="st4" d="M127.1,179.2c0.1-0.2,0.2-0.4,0.4-0.5c0.2-0.1,0.3-0.3,0.5-0.4c0.2-0.1,0.4-0.1,0.7-0.1s0.5,0,0.7,0.1
			c0.2,0.1,0.4,0.2,0.5,0.4c0.2,0.1,0.3,0.3,0.4,0.5c0.1,0.2,0.1,0.4,0.1,0.6v9.3c0,0.9-0.2,1.7-0.5,2.5c-0.3,0.8-0.7,1.5-1.3,2.1
			c-0.6,0.6-1.2,1.1-2,1.4c-0.8,0.3-1.7,0.5-2.6,0.5c-1,0-1.9-0.2-2.7-0.5c-0.8-0.3-1.5-0.8-2.1-1.4s-1.1-1.3-1.4-2.1
			c-0.3-0.8-0.5-1.6-0.5-2.5v-9.3c0-0.2,0-0.5,0.1-0.7s0.2-0.4,0.4-0.5c0.2-0.2,0.3-0.3,0.5-0.4c0.2-0.1,0.4-0.1,0.7-0.1
			c0.2,0,0.4,0,0.6,0.1c0.2,0.1,0.4,0.2,0.5,0.4c0.1,0.2,0.3,0.3,0.4,0.5s0.1,0.4,0.1,0.7v9.2c0,0.4,0.1,0.8,0.2,1.2
			c0.2,0.4,0.4,0.7,0.7,1c0.3,0.3,0.6,0.5,1,0.7c0.4,0.2,0.9,0.3,1.4,0.3s0.9-0.1,1.3-0.3c0.4-0.2,0.7-0.4,1-0.7
			c0.3-0.3,0.5-0.6,0.6-1c0.1-0.4,0.2-0.8,0.2-1.2v-9.2C127,179.6,127,179.4,127.1,179.2z"/>
		<path class="st4" d="M141.9,191.1h-6.2l-1.4,3.4c-0.1,0.2-0.2,0.4-0.4,0.6c-0.2,0.2-0.3,0.3-0.6,0.3c-0.2,0.1-0.4,0.1-0.7,0.1
			c-0.2,0-0.5-0.1-0.7-0.1s-0.4-0.2-0.5-0.4s-0.2-0.3-0.3-0.5s-0.1-0.4-0.1-0.6s0.1-0.4,0.2-0.7l6.1-13.9c0.1-0.3,0.3-0.6,0.6-0.7
			s0.6-0.3,0.9-0.3c0.3,0,0.6,0.1,0.9,0.3c0.3,0.2,0.5,0.4,0.6,0.7l6,13.9c0.1,0.2,0.1,0.4,0.2,0.7c0,0.2,0,0.4-0.1,0.6
			c-0.1,0.2-0.2,0.4-0.3,0.5c-0.1,0.2-0.3,0.3-0.5,0.4c-0.2,0.1-0.4,0.1-0.7,0.1s-0.4,0-0.6-0.1c-0.2-0.1-0.4-0.2-0.6-0.3
			c-0.2-0.2-0.3-0.3-0.4-0.6L141.9,191.1z M137.1,187.7h3.4l-1.7-4.2L137.1,187.7z"/>
		<path class="st4" d="M159.8,184.9c-0.1,0.5-0.4,0.9-0.6,1.3c-0.3,0.4-0.6,0.8-1,1.1c-0.4,0.3-0.8,0.6-1.2,0.8l2.8,4.9
			c0.1,0.2,0.2,0.4,0.2,0.6c0,0.2,0,0.4-0.1,0.6s-0.2,0.4-0.3,0.6s-0.3,0.3-0.5,0.4c-0.2,0.1-0.4,0.2-0.6,0.2c-0.2,0-0.4,0-0.6,0
			s-0.4-0.2-0.6-0.3c-0.2-0.1-0.3-0.3-0.4-0.5l-3.4-6h-1.6v5.2c0,0.2,0,0.5-0.1,0.6s-0.2,0.4-0.4,0.5s-0.3,0.3-0.5,0.4
			c-0.2,0.1-0.4,0.1-0.6,0.1c-0.2,0-0.5,0-0.7-0.1c-0.2-0.1-0.4-0.2-0.5-0.4c-0.2-0.1-0.3-0.3-0.4-0.5c-0.1-0.2-0.1-0.4-0.1-0.6v-14
			c0-0.2,0-0.5,0.1-0.6c0.1-0.2,0.2-0.4,0.4-0.5c0.2-0.1,0.3-0.3,0.5-0.4c0.2-0.1,0.4-0.1,0.7-0.1h4.5c0.7,0,1.4,0.1,2.1,0.4
			c0.6,0.3,1.2,0.6,1.7,1.1c0.5,0.5,0.9,1,1.1,1.7c0.3,0.6,0.4,1.3,0.4,2C160,183.9,159.9,184.4,159.8,184.9z M151.9,181.5v3.8h2.8
			c0.3,0,0.5-0.1,0.7-0.2c0.2-0.1,0.4-0.3,0.6-0.4c0.2-0.2,0.3-0.4,0.4-0.6c0.1-0.2,0.2-0.5,0.2-0.7s-0.1-0.5-0.2-0.7
			c-0.1-0.2-0.2-0.4-0.4-0.6c-0.2-0.2-0.4-0.3-0.6-0.4c-0.2-0.1-0.5-0.1-0.7-0.1H151.9z"/>
	</g>
	<circle class="st0" cx="113" cy="-148" r="108"/>
	<circle class="st0" cx="-166" cy="-6" r="108"/>
	<rect x="73.6" y="-99.8" class="st8" width="78.8" height="45.8"/>
	<text transform="matrix(1 0 0 1 98.7173 -82.4941)" class="st4" style="font-family:'AntipastoPro-DemiBold'; font-size:27px;">NË</text>
	<text transform="matrix(1 0 0 1 82.4173 -59.4941)" class="st4" style="font-family:'AntipastoPro-Bold'; font-size:27px;">DEPO</text>
	<g>
		<ellipse class="st1" cx="113" cy="-123.1" rx="65.3" ry="6"/>
		<g>
			<polygon class="st3" points="90.8,-206.6 166.9,-202 166.9,-123.6 90.8,-128.2 			"/>
			<polygon class="st10" points="90.8,-206.6 60,-202 60,-123.6 90.8,-128.2 			"/>
			<polygon class="st4" points="136.1,-118.9 60,-123.6 60,-202 136.1,-197.4 			"/>
			<polygon class="st6" points="136.1,-118.9 166.9,-123.6 166.9,-202 136.1,-197.4 			"/>
			<polygon class="st5" points="136.1,-197.4 60,-202 60,-190.4 136.1,-185.8 166.9,-190.4 166.9,-202 			"/>
			<g>
				<polygon class="st10" points="89.8,-216 57.1,-211.1 57.1,-193.9 89.8,-198.8 				"/>
				<g>
					<polygon class="st3" points="89.8,-216 168.8,-211.1 168.8,-193.9 89.8,-198.8 					"/>
					<polygon class="st6" points="136,-188.9 57.1,-193.9 57.1,-211.1 136,-206.1 					"/>
					<polygon class="st11" points="136,-188.9 168.8,-193.9 168.8,-211.1 136,-206.1 					"/>
					<polygon class="st7" points="57.1,-211.1 89.8,-216 168.8,-211.1 136,-206.1 					"/>
				</g>
			</g>
		</g>
	</g>
	<g>
		<ellipse class="st1" cx="-163" cy="25.9" rx="56" ry="5.2"/>
		<g>
			<polygon class="st3" points="-171.1,-53.5 -114.2,-48.5 -114.2,26.9 -171.1,21.9 			"/>
			<polygon class="st10" points="-171.1,-53.5 -204.3,-48.5 -204.3,26.9 -171.1,21.9 			"/>
			<polygon class="st4" points="-153.4,31.9 -204.3,26.9 -204.3,-48.5 -153.4,-43.5 			"/>
			<polygon class="st6" points="-153.4,31.9 -114.2,26.9 -114.2,-48.5 -153.4,-43.5 			"/>
			<polygon class="st5" points="-204.3,-20.4 -174.2,-37.9 -166.8,-44.8 -200.8,-48.1 -203.6,-46.5 -204.3,-45.7 			"/>
			<g>
				<polygon class="st10" points="-205.6,-49.5 -231.1,-24.6 -223.2,-13.6 -197.7,-38.5 				"/>
				<g>
					<polygon class="st3" points="-205.6,-49.5 -153.8,-80.2 -145.9,-69.3 -197.7,-38.5 					"/>
					<polygon class="st6" points="-176.2,-40.9 -223.2,-13.6 -231.1,-24.6 -184.1,-51.8 					"/>
					<polygon class="st12" points="-176.2,-40.9 -145.9,-69.3 -153.8,-80.2 -184.1,-51.8 					"/>
					<polygon class="st7" points="-231.1,-24.6 -205.6,-49.5 -153.8,-80.2 -184.1,-51.8 					"/>
				</g>
			</g>
		</g>
	</g>
	<rect x="-229.2" y="41.5" class="st8" width="126.4" height="45.8"/>
	<text transform="matrix(1 0 0 1 -205.7226 58.7844)" class="st4" style="font-family:'AntipastoPro-DemiBold'; font-size:27px;">DUKE U </text>
	<text transform="matrix(1 0 0 1 -219.5226 81.7844)" class="st4" style="font-family:'AntipastoPro-Bold'; font-size:27px;">DËRGUAR</text>
</g>
<g id="DESIGNED_BY_FREEPIK">
</g>
</svg>
