<?xml version="1.0" encoding="utf-8"?>
<!-- Generator: Adobe Illustrator 26.0.0, SVG Export Plug-In . SVG Version: 6.00 Build 0)  -->
<svg version="1.1" xmlns="http://www.w3.org/2000/svg" xmlns:xlink="http://www.w3.org/1999/xlink" x="0px" y="0px"
	 viewBox="0 0 216 216" style="enable-background:new 0 0 216 216;" xml:space="preserve">
<style type="text/css">
	.st0{fill:#FFFFFF;}
	.st1{fill:#FFC7C7;}
	.st2{fill:#B36810;}
	.st3{fill:#C47212;}
	.st4{fill:#FFB607;}
	.st5{opacity:0.15;}
	.st6{fill:#E29A0A;}
	.st7{fill:#FFB727;}
	.st8{fill:none;}
	.st9{font-family:'AntipastoPro-DemiBold';}
	.st10{font-size:27px;}
	.st11{font-family:'AntipastoPro-Bold';}
	.st12{fill:#D77D14;}
	.st13{fill:#C67F0C;}
	.st14{fill:#D88F0E;}
</style>
<g id="OBJECTS">
	<circle class="st0" cx="108" cy="108" r="108"/>
	<rect x="68.6" y="156.2" class="st8" width="78.8" height="45.8"/>
	<text transform="matrix(1 0 0 1 93.7173 173.5058)"><tspan x="0" y="0" class="st4 st9 st10">NË</tspan><tspan x="-16.3" y="23" class="st4 st11 st10">DEPO</tspan></text>
	<g>
		<ellipse class="st1" cx="108" cy="132.9" rx="65.3" ry="6"/>
		<g>
			<polygon class="st3" points="85.8,49.4 161.9,54 161.9,132.4 85.8,127.8 			"/>
			<polygon class="st12" points="85.8,49.4 55,54 55,132.4 85.8,127.8 			"/>
			<polygon class="st4" points="131.1,137.1 55,132.4 55,54 131.1,58.6 			"/>
			<polygon class="st6" points="131.1,137.1 161.9,132.4 161.9,54 131.1,58.6 			"/>
			<polygon class="st5" points="131.1,58.6 55,54 55,65.6 131.1,70.2 161.9,65.6 161.9,54 			"/>
			<g>
				<polygon class="st12" points="84.8,40 52.1,44.9 52.1,62.1 84.8,57.2 				"/>
				<g>
					<polygon class="st3" points="84.8,40 163.8,44.9 163.8,62.1 84.8,57.2 					"/>
					<polygon class="st6" points="131,67.1 52.1,62.1 52.1,44.9 131,49.9 					"/>
					<polygon class="st13" points="131,67.1 163.8,62.1 163.8,44.9 131,49.9 					"/>
					<polygon class="st7" points="52.1,44.9 84.8,40 163.8,44.9 131,49.9 					"/>
				</g>
			</g>
		</g>
	</g>
</g>
<g id="DESIGNED_BY_FREEPIK">
</g>
</svg>
