<?xml version="1.0" encoding="utf-8"?>
<!-- Generator: Adobe Illustrator 25.0.1, SVG Export Plug-In . SVG Version: 6.00 Build 0)  -->
<svg version="1.1" id="Layer_1" xmlns="http://www.w3.org/2000/svg" xmlns:xlink="http://www.w3.org/1999/xlink" x="0px" y="0px"
	 viewBox="0 0 216 216" style="enable-background:new 0 0 216 216;" xml:space="preserve">
<style type="text/css">
	.st0{fill:#FFFFFF;}
	.st1{fill:#FFC7C7;}
	.st2{fill:#B36810;}
	.st3{fill:#C47212;}
	.st4{fill:#FFB607;}
	.st5{opacity:0.15;enable-background:new    ;}
	.st6{fill:#E29A0A;}
	.st7{fill:#FFB727;}
	.st8{fill:none;}
	.st9{fill:#D77D14;}
	.st10{fill:#C67F0C;}
	.st11{fill:#D88F0E;}
	.st12{enable-background:new    ;}
</style>
<g id="OBJECTS">
	<circle class="st0" cx="382" cy="222" r="108"/>
	<g>
		<ellipse class="st1" cx="382" cy="234.4" rx="72.9" ry="23.5"/>
		<g>
			<polygon class="st2" points="378.9,147.8 427.4,163.2 427.4,234.3 378.9,218.8 			"/>
			<polygon class="st3" points="378.9,147.8 334.3,163.2 334.3,234.3 378.9,218.8 			"/>
			<polygon class="st4" points="382.8,249.7 334.3,234.2 334.3,163.1 382.8,178.6 			"/>
			<polygon class="st5" points="334.3,173 334.3,193.6 376.9,207.2 382.8,188.5 382.8,178.6 336.4,166.6 			"/>
			<polygon class="st6" points="382.8,249.7 427.4,234.2 427.4,163.1 382.8,178.6 			"/>
			<polygon class="st5" points="382.8,178.6 382.8,188.1 388.2,205.7 427.4,192.1 427.4,172.6 424.8,164 			"/>
			<polygon class="st7" points="390,202.4 434.6,186.9 427.4,163.1 382.8,178.6 			"/>
			<polygon class="st7" points="374.9,203.8 326.4,188.3 334.3,163.1 382.8,178.6 			"/>
		</g>
	</g>
	<rect x="342.6" y="269.2" class="st8" width="78.8" height="45.8"/>
	<text transform="matrix(1 0 0 1 344.8418 286.4681)" class="st4" style="font-family:'AntipastoPro-DemiBold'; font-size:27px;">PËR TU</text>
	<text transform="matrix(1 0 0 1 343.7418 309.4681)" class="st4" style="font-family:'AntipastoPro-Bold'; font-size:27px;">MARRË</text>
	<circle class="st0" cx="387" cy="-34" r="108"/>
	<circle class="st0" cx="108" cy="108" r="108"/>
	<rect x="347.6" y="14.2" class="st8" width="78.8" height="45.8"/>
	<text transform="matrix(1 0 0 1 372.7173 31.5059)" class="st4" style="font-family:'AntipastoPro-DemiBold'; font-size:27px;">NË</text>
	<text transform="matrix(1 0 0 1 356.4172 54.5059)" class="st4" style="font-family:'AntipastoPro-Bold'; font-size:27px;">DEPO</text>
	<g>
		<ellipse class="st1" cx="387" cy="-9.1" rx="65.3" ry="6"/>
		<g>
			<polygon class="st3" points="364.8,-92.6 440.9,-88 440.9,-9.6 364.8,-14.2 			"/>
			<polygon class="st9" points="364.8,-92.6 334,-88 334,-9.6 364.8,-14.2 			"/>
			<polygon class="st4" points="410.1,-4.9 334,-9.6 334,-88 410.1,-83.4 			"/>
			<polygon class="st6" points="410.1,-4.9 440.9,-9.6 440.9,-88 410.1,-83.4 			"/>
			<polygon class="st5" points="410.1,-83.4 334,-88 334,-76.4 410.1,-71.8 440.9,-76.4 440.9,-88 			"/>
			<g>
				<polygon class="st9" points="363.8,-102 331.1,-97.1 331.1,-79.9 363.8,-84.8 				"/>
				<g>
					<polygon class="st3" points="363.8,-102 442.8,-97.1 442.8,-79.9 363.8,-84.8 					"/>
					<polygon class="st6" points="410,-74.9 331.1,-79.9 331.1,-97.1 410,-92.1 					"/>
					<polygon class="st10" points="410,-74.9 442.8,-79.9 442.8,-97.1 410,-92.1 					"/>
					<polygon class="st7" points="331.1,-97.1 363.8,-102 442.8,-97.1 410,-92.1 					"/>
				</g>
			</g>
		</g>
	</g>
	<g>
		<ellipse class="st1" cx="111" cy="139.9" rx="56" ry="5.2"/>
		<g>
			<polygon class="st3" points="102.9,60.5 159.8,65.5 159.8,140.9 102.9,135.9 			"/>
			<polygon class="st9" points="102.9,60.5 69.7,65.5 69.7,140.9 102.9,135.9 			"/>
			<polygon class="st4" points="120.6,145.9 69.7,140.9 69.7,65.5 120.6,70.5 			"/>
			<polygon class="st6" points="120.6,145.9 159.8,140.9 159.8,65.5 120.6,70.5 			"/>
			<polygon class="st5" points="69.7,93.6 99.8,76.1 107.2,69.2 73.2,65.9 70.4,67.5 69.7,68.3 			"/>
			<g>
				<polygon class="st9" points="68.4,64.5 42.9,89.4 50.8,100.4 76.3,75.5 				"/>
				<g>
					<polygon class="st3" points="68.4,64.5 120.2,33.8 128.1,44.7 76.3,75.5 					"/>
					<polygon class="st6" points="97.8,73.1 50.8,100.4 42.9,89.4 89.9,62.2 					"/>
					<polygon class="st11" points="97.8,73.1 128.1,44.7 120.2,33.8 89.9,62.2 					"/>
					<polygon class="st7" points="42.9,89.4 68.4,64.5 120.2,33.8 89.9,62.2 					"/>
				</g>
			</g>
		</g>
	</g>
	<rect x="44.8" y="155.5" class="st8" width="126.4" height="45.8"/>
	<g class="st12">
		<path class="st4" d="M98.2,160.9v10.6c0,0.4-0.1,0.7-0.4,0.9c-0.3,0.3-0.6,0.4-1,0.4s-0.7-0.1-1-0.4c-0.3-0.3-0.4-0.6-0.4-0.9
			v-14.6c0-0.4,0.1-0.7,0.4-0.9c0.3-0.3,0.6-0.4,1-0.4h0c0.1,0,0.1,0,0.1,0c0,0,0.1,0,0.1,0l0.2,0c0.2,0.1,0.3,0.1,0.4,0.2l0.1,0.1
			c0.1,0.1,0.2,0.2,0.2,0.3l8,11.2v-10.6c0-0.4,0.1-0.7,0.4-0.9c0.3-0.3,0.6-0.4,1-0.4c0.2,0,0.4,0,0.5,0.1s0.3,0.2,0.4,0.3
			c0.1,0.1,0.2,0.3,0.3,0.4s0.1,0.3,0.1,0.5v14.6c0,0.3-0.1,0.6-0.3,0.8s-0.4,0.4-0.7,0.5c-0.1,0-0.2,0-0.2,0.1h-0.1
			c-0.3,0-0.6-0.1-0.8-0.3l-0.1-0.1c0,0-0.1-0.1-0.1-0.1L98.2,160.9z"/>
		<path class="st4" d="M113,172.8c-0.4,0-0.7-0.2-0.9-0.4c-0.2-0.2-0.4-0.6-0.4-0.9v-14.6c0-0.2,0-0.4,0.1-0.5
			c0.1-0.2,0.2-0.3,0.3-0.4c0.1-0.1,0.3-0.2,0.4-0.3c0.2-0.1,0.3-0.1,0.5-0.1h7.2c0.2,0,0.4,0,0.5,0.1s0.3,0.2,0.4,0.3
			c0.1,0.1,0.2,0.3,0.3,0.4c0.1,0.2,0.1,0.3,0.1,0.5c0,0.4-0.1,0.7-0.4,1c-0.3,0.3-0.6,0.4-0.9,0.4h-5.9v4.7h4.2
			c0.2,0,0.4,0,0.5,0.1s0.3,0.2,0.4,0.3c0.1,0.1,0.2,0.3,0.3,0.4s0.1,0.3,0.1,0.5c0,0.4-0.1,0.7-0.4,0.9c-0.3,0.2-0.6,0.4-1,0.4
			h-4.2v4.6h5.9c0.4,0,0.7,0.1,0.9,0.4s0.4,0.6,0.4,1c0,0.2,0,0.4-0.1,0.5s-0.2,0.3-0.3,0.4c-0.1,0.1-0.3,0.2-0.4,0.3
			s-0.3,0.1-0.5,0.1H113z M112.5,152.5c0,0.2,0,0.4,0.1,0.6c0.1,0.2,0.2,0.3,0.3,0.5c0.1,0.1,0.3,0.2,0.5,0.3
			c0.2,0.1,0.4,0.1,0.6,0.1s0.4,0,0.6-0.1c0.2-0.1,0.3-0.2,0.5-0.3s0.2-0.3,0.3-0.5s0.1-0.4,0.1-0.6s0-0.4-0.1-0.6
			c-0.1-0.2-0.2-0.3-0.3-0.5c-0.1-0.1-0.3-0.2-0.5-0.3s-0.4-0.1-0.6-0.1s-0.4,0-0.6,0.1s-0.3,0.2-0.5,0.3c-0.1,0.1-0.2,0.3-0.3,0.5
			C112.5,152.1,112.5,152.3,112.5,152.5z M117.5,152.5c0,0.2,0,0.4,0.1,0.6s0.2,0.3,0.3,0.5c0.1,0.1,0.3,0.2,0.5,0.3
			c0.2,0.1,0.4,0.1,0.6,0.1c0.2,0,0.4,0,0.6-0.1c0.2-0.1,0.3-0.2,0.5-0.3s0.2-0.3,0.3-0.5c0.1-0.2,0.1-0.4,0.1-0.6s0-0.4-0.1-0.6
			c-0.1-0.2-0.2-0.3-0.3-0.5c-0.1-0.1-0.3-0.2-0.5-0.3s-0.4-0.1-0.6-0.1c-0.2,0-0.4,0-0.6,0.1c-0.2,0.1-0.3,0.2-0.5,0.3
			c-0.1,0.1-0.2,0.3-0.3,0.5C117.5,152.1,117.5,152.3,117.5,152.5z"/>
	</g>
	<g class="st12">
		<path class="st4" d="M83.9,178.5c0.8,0,1.6,0.1,2.3,0.3c0.7,0.2,1.4,0.5,2.1,0.9c0.7,0.4,1.2,0.8,1.8,1.3c0.5,0.5,1,1.1,1.4,1.7
			c0.4,0.6,0.7,1.3,0.9,2.1c0.2,0.7,0.3,1.5,0.3,2.3c0,0.8-0.1,1.6-0.3,2.3s-0.5,1.4-0.9,2.1c-0.4,0.6-0.8,1.2-1.4,1.7
			c-0.5,0.5-1.1,1-1.8,1.3c-0.7,0.4-1.4,0.7-2.1,0.9s-1.5,0.3-2.3,0.3h-3c-0.2,0-0.5,0-0.7-0.1c-0.2-0.1-0.4-0.2-0.5-0.4
			c-0.2-0.1-0.3-0.3-0.4-0.5s-0.1-0.4-0.1-0.6v-14c0-0.2,0-0.5,0.1-0.6c0.1-0.2,0.2-0.4,0.4-0.5c0.2-0.1,0.3-0.3,0.5-0.4
			c0.2-0.1,0.4-0.1,0.7-0.1H83.9z M89.3,187.2c0-0.7-0.1-1.4-0.4-2.1c-0.3-0.6-0.7-1.2-1.2-1.7c-0.5-0.5-1.1-0.8-1.7-1.1
			c-0.7-0.3-1.4-0.4-2.1-0.4h-1.4v10.5h1.4c0.8,0,1.5-0.1,2.1-0.4c0.7-0.3,1.2-0.6,1.7-1.1c0.5-0.5,0.9-1,1.2-1.7
			C89.2,188.6,89.3,187.9,89.3,187.2z"/>
		<path class="st4" d="M96.6,195.8c-0.4,0-0.8-0.2-1.1-0.5s-0.4-0.7-0.4-1.1v-14c0-0.2,0-0.5,0.1-0.7s0.2-0.4,0.4-0.5
			s0.3-0.3,0.5-0.4c0.2-0.1,0.4-0.1,0.7-0.1h6.9c0.2,0,0.5,0,0.6,0.1c0.2,0.1,0.4,0.2,0.5,0.4s0.3,0.3,0.4,0.5
			c0.1,0.2,0.1,0.4,0.1,0.7c0,0.2,0,0.5-0.1,0.7c-0.1,0.2-0.2,0.4-0.4,0.5s-0.3,0.3-0.5,0.4c-0.2,0.1-0.4,0.1-0.6,0.1h-5.2v3.7h3.7
			c0.2,0,0.5,0,0.7,0.1s0.4,0.2,0.5,0.4s0.3,0.3,0.4,0.5c0.1,0.2,0.1,0.4,0.1,0.7s0,0.4-0.1,0.6s-0.2,0.4-0.4,0.5
			c-0.2,0.1-0.3,0.3-0.5,0.3s-0.4,0.1-0.7,0.1h-3.7v3.6h5.2c0.2,0,0.5,0,0.6,0.1c0.2,0.1,0.4,0.2,0.5,0.4s0.3,0.3,0.4,0.5
			c0.1,0.2,0.1,0.4,0.1,0.7c0,0.2,0,0.5-0.1,0.7c-0.1,0.2-0.2,0.4-0.4,0.5s-0.3,0.3-0.5,0.4c-0.2,0.1-0.4,0.1-0.6,0.1H96.6z"/>
		<path class="st4" d="M111,188.9v5.2c0,0.2,0,0.5-0.1,0.6s-0.2,0.4-0.4,0.5s-0.3,0.3-0.5,0.4c-0.2,0.1-0.4,0.1-0.6,0.1
			c-0.2,0-0.5,0-0.7-0.1c-0.2-0.1-0.4-0.2-0.5-0.4c-0.2-0.1-0.3-0.3-0.4-0.5s-0.1-0.4-0.1-0.6v-14c0-0.2,0-0.5,0.1-0.6
			c0.1-0.2,0.2-0.4,0.4-0.5c0.2-0.1,0.3-0.3,0.5-0.4c0.2-0.1,0.4-0.1,0.7-0.1h4.5c0.7,0,1.4,0.1,2.1,0.4s1.2,0.6,1.7,1.1
			s0.9,1,1.1,1.7c0.3,0.6,0.4,1.3,0.4,2c0,0.7-0.1,1.4-0.4,2c-0.3,0.6-0.7,1.2-1.1,1.6s-1,0.8-1.7,1.1c-0.6,0.3-1.3,0.4-2.1,0.4H111
			z M111,181.8v3.8h2.8c0.3,0,0.5-0.1,0.7-0.2s0.4-0.3,0.6-0.4c0.2-0.2,0.3-0.4,0.4-0.6c0.1-0.2,0.2-0.5,0.2-0.7s-0.1-0.5-0.2-0.7
			c-0.1-0.2-0.2-0.4-0.4-0.6c-0.2-0.2-0.4-0.3-0.6-0.4c-0.2-0.1-0.5-0.1-0.7-0.1H111z"/>
		<path class="st4" d="M131.5,178.7c0.7,0.2,1.4,0.5,2.1,0.9s1.2,0.8,1.8,1.4c0.5,0.5,1,1.1,1.4,1.8s0.7,1.4,0.9,2.1
			c0.2,0.7,0.3,1.5,0.3,2.3c0,1.2-0.2,2.4-0.7,3.4c-0.5,1.1-1.1,2-1.9,2.8c-0.8,0.8-1.7,1.4-2.8,1.9c-1.1,0.5-2.2,0.7-3.4,0.7
			s-2.4-0.2-3.4-0.7s-2-1.1-2.8-1.9c-0.8-0.8-1.4-1.7-1.9-2.8c-0.5-1.1-0.7-2.2-0.7-3.4c0-0.8,0.1-1.6,0.3-2.3s0.5-1.4,0.9-2.1
			s0.8-1.2,1.4-1.8c0.5-0.5,1.1-1,1.8-1.4c0.6-0.4,1.3-0.7,2.1-0.9c0.7-0.2,1.5-0.3,2.3-0.3C130,178.4,130.8,178.5,131.5,178.7z
			 M127.1,182.2c-0.7,0.3-1.2,0.7-1.7,1.2s-0.9,1.1-1.1,1.7c-0.3,0.7-0.4,1.4-0.4,2.1c0,0.8,0.1,1.5,0.4,2.1
			c0.3,0.7,0.7,1.2,1.1,1.7s1.1,0.9,1.7,1.1c0.7,0.3,1.4,0.4,2.1,0.4s1.5-0.1,2.1-0.4c0.7-0.3,1.2-0.7,1.7-1.1
			c0.5-0.5,0.9-1.1,1.2-1.7c0.3-0.7,0.4-1.4,0.4-2.1c0-0.7-0.1-1.4-0.4-2.1c-0.3-0.7-0.7-1.2-1.2-1.7c-0.5-0.5-1.1-0.9-1.7-1.2
			s-1.4-0.4-2.1-0.4S127.7,181.9,127.1,182.2z"/>
	</g>
</g>
<g id="DESIGNED_BY_FREEPIK">
</g>
</svg>
