<?xml version="1.0" encoding="utf-8"?>
<!-- Generator: Adobe Illustrator 26.0.0, SVG Export Plug-In . SVG Version: 6.00 Build 0)  -->
<svg version="1.1" xmlns="http://www.w3.org/2000/svg" xmlns:xlink="http://www.w3.org/1999/xlink" x="0px" y="0px"
	 viewBox="0 0 216 216" style="enable-background:new 0 0 216 216;" xml:space="preserve">
<style type="text/css">
	.st0{fill:#FFFFFF;}
	.st1{fill:#FFC7C7;}
	.st2{fill:#B36810;}
	.st3{fill:#C47212;}
	.st4{fill:#FFB607;}
	.st5{opacity:0.15;}
	.st6{fill:#E29A0A;}
	.st7{fill:#FFB727;}
	.st8{fill:#D77D14;}
	.st9{fill:#C67F0C;}
	.st10{fill:#D88F0E;}
	.st11{fill:none;}
	.st12{font-family:'AntipastoPro-DemiBold';}
	.st13{font-size:27px;}
	.st14{font-family:'AntipastoPro-Bold';}
</style>
<g id="OBJECTS">
	<circle class="st0" cx="382" cy="222" r="108"/>
	<g>
		<ellipse class="st1" cx="382" cy="234.4" rx="72.9" ry="23.5"/>
		<g>
			<polygon class="st2" points="378.9,147.8 427.4,163.2 427.4,234.3 378.9,218.8 			"/>
			<polygon class="st3" points="378.9,147.8 334.3,163.2 334.3,234.3 378.9,218.8 			"/>
			<polygon class="st4" points="382.8,249.7 334.3,234.2 334.3,163.1 382.8,178.6 			"/>
			<polygon class="st5" points="334.3,173 334.3,193.6 376.9,207.2 382.8,188.5 382.8,178.6 336.4,166.6 			"/>
			<polygon class="st6" points="382.8,249.7 427.4,234.2 427.4,163.1 382.8,178.6 			"/>
			<polygon class="st5" points="382.8,178.6 382.8,188.1 388.2,205.7 427.4,192.1 427.4,172.6 424.8,164 			"/>
			<polygon class="st7" points="390,202.4 434.6,186.9 427.4,163.1 382.8,178.6 			"/>
			<polygon class="st7" points="374.9,203.8 326.4,188.3 334.3,163.1 382.8,178.6 			"/>
		</g>
	</g>
	<rect x="342.6" y="269.2" class="st11" width="78.8" height="45.8"/>
	<text transform="matrix(1 0 0 1 344.8418 286.4681)"><tspan x="0" y="0" class="st4 st12 st13">PËR TU</tspan><tspan x="-1.1" y="23" class="st4 st14 st13">MARRË</tspan></text>
	<circle class="st0" cx="387" cy="-34" r="108"/>
	<circle class="st0" cx="108" cy="108" r="108"/>
	<rect x="347.6" y="14.2" class="st11" width="78.8" height="45.8"/>
	<text transform="matrix(1 0 0 1 372.7173 31.5058)"><tspan x="0" y="0" class="st4 st12 st13">NË</tspan><tspan x="-16.3" y="23" class="st4 st14 st13">DEPO</tspan></text>
	<g>
		<ellipse class="st1" cx="387" cy="-9.1" rx="65.3" ry="6"/>
		<g>
			<polygon class="st3" points="364.8,-92.6 440.9,-88 440.9,-9.6 364.8,-14.2 			"/>
			<polygon class="st8" points="364.8,-92.6 334,-88 334,-9.6 364.8,-14.2 			"/>
			<polygon class="st4" points="410.1,-4.9 334,-9.6 334,-88 410.1,-83.4 			"/>
			<polygon class="st6" points="410.1,-4.9 440.9,-9.6 440.9,-88 410.1,-83.4 			"/>
			<polygon class="st5" points="410.1,-83.4 334,-88 334,-76.4 410.1,-71.8 440.9,-76.4 440.9,-88 			"/>
			<g>
				<polygon class="st8" points="363.8,-102 331.1,-97.1 331.1,-79.9 363.8,-84.8 				"/>
				<g>
					<polygon class="st3" points="363.8,-102 442.8,-97.1 442.8,-79.9 363.8,-84.8 					"/>
					<polygon class="st6" points="410,-74.9 331.1,-79.9 331.1,-97.1 410,-92.1 					"/>
					<polygon class="st9" points="410,-74.9 442.8,-79.9 442.8,-97.1 410,-92.1 					"/>
					<polygon class="st7" points="331.1,-97.1 363.8,-102 442.8,-97.1 410,-92.1 					"/>
				</g>
			</g>
		</g>
	</g>
	<g>
		<ellipse class="st1" cx="111" cy="139.9" rx="56" ry="5.2"/>
		<g>
			<polygon class="st3" points="102.9,60.5 159.8,65.5 159.8,140.9 102.9,135.9 			"/>
			<polygon class="st8" points="102.9,60.5 69.7,65.5 69.7,140.9 102.9,135.9 			"/>
			<polygon class="st4" points="120.6,145.9 69.7,140.9 69.7,65.5 120.6,70.5 			"/>
			<polygon class="st6" points="120.6,145.9 159.8,140.9 159.8,65.5 120.6,70.5 			"/>
			<polygon class="st5" points="69.7,93.6 99.8,76.1 107.2,69.2 73.2,65.9 70.4,67.5 69.7,68.3 			"/>
			<g>
				<polygon class="st8" points="68.4,64.5 42.9,89.4 50.8,100.4 76.3,75.5 				"/>
				<g>
					<polygon class="st3" points="68.4,64.5 120.2,33.8 128.1,44.7 76.3,75.5 					"/>
					<polygon class="st6" points="97.8,73.1 50.8,100.4 42.9,89.4 89.9,62.2 					"/>
					<polygon class="st10" points="97.8,73.1 128.1,44.7 120.2,33.8 89.9,62.2 					"/>
					<polygon class="st7" points="42.9,89.4 68.4,64.5 120.2,33.8 89.9,62.2 					"/>
				</g>
			</g>
		</g>
	</g>
	<rect x="44.8" y="155.5" class="st11" width="126.4" height="45.8"/>
	<text transform="matrix(1 0 0 1 68.2774 172.7844)"><tspan x="0" y="0" class="st4 st12 st13">DUKE U </tspan><tspan x="-13.8" y="23" class="st4 st14 st13">DËRGUAR</tspan></text>
</g>
<g id="DESIGNED_BY_FREEPIK">
</g>
</svg>
