<?xml version="1.0" encoding="utf-8"?>
<!-- Generator: Adobe Illustrator 26.0.0, SVG Export Plug-In . SVG Version: 6.00 Build 0)  -->
<svg version="1.1" xmlns="http://www.w3.org/2000/svg" xmlns:xlink="http://www.w3.org/1999/xlink" x="0px" y="0px"
	 viewBox="0 0 216 216" style="enable-background:new 0 0 216 216;" xml:space="preserve">
<style type="text/css">
	.st0{fill:#FFFFFF;}
	.st1{fill:#FFC7C7;}
	.st2{fill:#B36810;}
	.st3{fill:#C47212;}
	.st4{fill:#FFB607;}
	.st5{opacity:0.15;}
	.st6{fill:#E29A0A;}
	.st7{fill:#FFB727;}
	.st8{fill:none;}
	.st9{font-family:'AntipastoPro-DemiBold';}
	.st10{font-size:27px;}
	.st11{font-family:'AntipastoPro-Bold';}
	.st12{fill:#D77D14;}
	.st13{fill:#C67F0C;}
	.st14{fill:#D88F0E;}
</style>
<g id="OBJECTS">
	<circle class="st0" cx="108" cy="108" r="108"/>
	<g>
		<ellipse class="st1" cx="108" cy="120.4" rx="72.9" ry="23.5"/>
		<g>
			<polygon class="st2" points="104.9,33.8 153.4,49.2 153.4,120.3 104.9,104.8 			"/>
			<polygon class="st3" points="104.9,33.8 60.3,49.2 60.3,120.3 104.9,104.8 			"/>
			<polygon class="st4" points="108.8,135.7 60.3,120.2 60.3,49.1 108.8,64.6 			"/>
			<polygon class="st5" points="60.3,59 60.3,79.6 102.9,93.2 108.8,74.5 108.8,64.6 62.4,52.6 			"/>
			<polygon class="st6" points="108.8,135.7 153.4,120.2 153.4,49.1 108.8,64.6 			"/>
			<polygon class="st5" points="108.8,64.6 108.8,74.1 114.2,91.7 153.4,78.1 153.4,58.6 150.8,50 			"/>
			<polygon class="st7" points="116,88.4 160.6,72.9 153.4,49.1 108.8,64.6 			"/>
			<polygon class="st7" points="100.9,89.8 52.4,74.3 60.3,49.1 108.8,64.6 			"/>
		</g>
	</g>
	<rect x="68.6" y="155.2" class="st8" width="78.8" height="45.8"/>
	<text transform="matrix(1 0 0 1 70.8418 172.4681)"><tspan x="0" y="0" class="st4 st9 st10">PËR TU</tspan><tspan x="-1.1" y="23" class="st4 st11 st10">MARRË</tspan></text>
	<circle class="st0" cx="113" cy="-148" r="108"/>
	<circle class="st0" cx="-166" cy="-6" r="108"/>
	<rect x="73.6" y="-99.8" class="st8" width="78.8" height="45.8"/>
	<text transform="matrix(1 0 0 1 98.7173 -82.4942)"><tspan x="0" y="0" class="st4 st9 st10">NË</tspan><tspan x="-16.3" y="23" class="st4 st11 st10">DEPO</tspan></text>
	<g>
		<ellipse class="st1" cx="113" cy="-123.1" rx="65.3" ry="6"/>
		<g>
			<polygon class="st3" points="90.8,-206.6 166.9,-202 166.9,-123.6 90.8,-128.2 			"/>
			<polygon class="st12" points="90.8,-206.6 60,-202 60,-123.6 90.8,-128.2 			"/>
			<polygon class="st4" points="136.1,-118.9 60,-123.6 60,-202 136.1,-197.4 			"/>
			<polygon class="st6" points="136.1,-118.9 166.9,-123.6 166.9,-202 136.1,-197.4 			"/>
			<polygon class="st5" points="136.1,-197.4 60,-202 60,-190.4 136.1,-185.8 166.9,-190.4 166.9,-202 			"/>
			<g>
				<polygon class="st12" points="89.8,-216 57.1,-211.1 57.1,-193.9 89.8,-198.8 				"/>
				<g>
					<polygon class="st3" points="89.8,-216 168.8,-211.1 168.8,-193.9 89.8,-198.8 					"/>
					<polygon class="st6" points="136,-188.9 57.1,-193.9 57.1,-211.1 136,-206.1 					"/>
					<polygon class="st13" points="136,-188.9 168.8,-193.9 168.8,-211.1 136,-206.1 					"/>
					<polygon class="st7" points="57.1,-211.1 89.8,-216 168.8,-211.1 136,-206.1 					"/>
				</g>
			</g>
		</g>
	</g>
	<g>
		<ellipse class="st1" cx="-163" cy="25.9" rx="56" ry="5.2"/>
		<g>
			<polygon class="st3" points="-171.1,-53.5 -114.2,-48.5 -114.2,26.9 -171.1,21.9 			"/>
			<polygon class="st12" points="-171.1,-53.5 -204.3,-48.5 -204.3,26.9 -171.1,21.9 			"/>
			<polygon class="st4" points="-153.4,31.9 -204.3,26.9 -204.3,-48.5 -153.4,-43.5 			"/>
			<polygon class="st6" points="-153.4,31.9 -114.2,26.9 -114.2,-48.5 -153.4,-43.5 			"/>
			<polygon class="st5" points="-204.3,-20.4 -174.2,-37.9 -166.8,-44.8 -200.8,-48.1 -203.6,-46.5 -204.3,-45.7 			"/>
			<g>
				<polygon class="st12" points="-205.6,-49.5 -231.1,-24.6 -223.2,-13.6 -197.7,-38.5 				"/>
				<g>
					<polygon class="st3" points="-205.6,-49.5 -153.8,-80.2 -145.9,-69.3 -197.7,-38.5 					"/>
					<polygon class="st6" points="-176.2,-40.9 -223.2,-13.6 -231.1,-24.6 -184.1,-51.8 					"/>
					<polygon class="st14" points="-176.2,-40.9 -145.9,-69.3 -153.8,-80.2 -184.1,-51.8 					"/>
					<polygon class="st7" points="-231.1,-24.6 -205.6,-49.5 -153.8,-80.2 -184.1,-51.8 					"/>
				</g>
			</g>
		</g>
	</g>
	<rect x="-229.2" y="41.5" class="st8" width="126.4" height="45.8"/>
	<text transform="matrix(1 0 0 1 -205.7226 58.7844)"><tspan x="0" y="0" class="st4 st9 st10">DUKE U </tspan><tspan x="-13.8" y="23" class="st4 st11 st10">DËRGUAR</tspan></text>
</g>
<g id="DESIGNED_BY_FREEPIK">
</g>
</svg>
