<?xml version="1.0" encoding="utf-8"?>
<!-- Generator: Adobe Illustrator 26.0.0, SVG Export Plug-In . SVG Version: 6.00 Build 0)  -->
<svg version="1.1" xmlns="http://www.w3.org/2000/svg" xmlns:xlink="http://www.w3.org/1999/xlink" x="0px" y="0px"
	 viewBox="0 0 206.2 261.6" style="enable-background:new 0 0 206.2 261.6;" xml:space="preserve">
<style type="text/css">
	.st0{display:none;}
	.st1{display:inline;fill:#EBEBEB;}
	.st2{fill:#FFBE9D;}
	.st3{fill:#263238;}
	.st4{fill:#FFFFFF;}
	.st5{fill:#EB996E;}
	.st6{fill:#E8505B;}
	.st7{opacity:0.2;}
	.st8{fill:#455A64;}
	.st9{fill:#A50731;}
	.st10{fill:#DA244B;}
	.st11{fill:#FFB607;}
</style>
<g id="Background_Complete">
</g>
<g id="Background_Simple" class="st0">
	<path class="st1" d="M-97.2,27.1c83.7-71.2,190.3,78.4,334.4,76.6c68.5-0.9,164.2,21.4,145.9,100.1c-20.3,87.4-255.3,88.4-358,58.3
		C-77.5,232-176.2,94.2-97.2,27.1z"/>
</g>
<g id="Floor">
</g>
<g id="Plant">
</g>
<g id="Character_1">
	<g>
		<g>
			<path class="st2" d="M160.7,60.1l-1-3.4c0,0-0.3-2.1-1.6-5.7c-0.3-0.9-0.8-1.8-1.5-2.5c-0.8-0.9-1.8-2.1-2.6-2.6
				c-1-0.6-0.7-2,0.3-2.1c1-0.1,3.7,1.5,5.7,4.5c2.1,3,2.4-2.6,2.6-4.7c0.2-2,1-8.4,1.7-8.8c1-0.6,1.9,0.3,1.6,2.4
				c-0.2,2.1-0.5,8.2,0.6,8.3c1.1,0.1,1.8-10.4,1.8-10.4s-0.2-2.3,1.1-2.2c2.3,0.1,0.6,11.1,0.5,12.1c-0.1,0.7,1,0.8,1.1,0.1
				c0.1-0.8,0.5-10.4,2.8-10.4c1.8,0-1.2,9.1-0.2,11.2c1,2.1,1.6-7.1,3.3-7c0.6,0,1.1,0.2,0,5.4c-1.1,5.3-6.5,19.2-6.5,19.2
				l-9.8-3.5"/>
		</g>
		<g>
			<g>
				<g>
					<g>
						<path class="st2" d="M93.1,57.4l16.6,1.2c0.2-1.9,0.5-9.4,0.5-9.4s6.9-0.6,7.4-7.5c0.5-6.9,0.3-22.7,0.3-22.7l0,0
							c-7.7-3.9-17-3.3-24.2,1.5l-1.1,0.7L93.1,57.4z"/>
					</g>
					<g>
						<g>
							<path class="st3" d="M115.7,30.7c-0.4-0.4-0.4-1,0-1.4c0.4-0.4,1-0.4,1.4,0c0.4,0.4,0.4,1,0,1.4
								C116.8,31.1,116.1,31.1,115.7,30.7z"/>
						</g>
						<g>
							<g>
								<path class="st3" d="M117.5,29.2c-0.1,0.1-0.8-0.4-1.7-0.5c-0.9-0.1-1.7,0.4-1.8,0.3c0-0.1,0.1-0.3,0.4-0.5
									c0.3-0.2,0.8-0.4,1.4-0.4c0.6,0,1.1,0.3,1.3,0.6C117.5,29,117.6,29.2,117.5,29.2z"/>
							</g>
						</g>
					</g>
					<g>
						<g>
							<path class="st3" d="M106.5,29.4c0.5,0.3,0.6,0.9,0.2,1.4c-0.3,0.5-0.9,0.6-1.4,0.2c-0.5-0.3-0.6-0.9-0.2-1.4
								C105.5,29.2,106.1,29.1,106.5,29.4z"/>
						</g>
						<g>
							<g>
								<path class="st3" d="M107.2,29.4c-0.1,0.1-0.8-0.4-1.7-0.5c-0.9-0.1-1.7,0.4-1.8,0.3c0-0.1,0.1-0.3,0.4-0.5
									c0.3-0.2,0.8-0.4,1.4-0.4c0.6,0,1.1,0.3,1.3,0.6C107.1,29.2,107.2,29.4,107.2,29.4z"/>
							</g>
						</g>
					</g>
					<g>
						<g>
							<path class="st3" d="M110.5,37.5c0-0.1,0.6-0.2,1.6-0.2c0.2,0,0.5-0.1,0.5-0.2c0.1-0.2,0-0.4-0.1-0.7c-0.2-0.6-0.4-1.3-0.6-2
								c-0.9-2.8-1.5-5.1-1.3-5.2c0.1,0,1,2.2,1.8,5c0.2,0.7,0.4,1.3,0.6,2c0.1,0.3,0.2,0.6,0.1,1c-0.1,0.2-0.3,0.3-0.4,0.4
								c-0.2,0-0.3,0-0.4,0C111.1,37.6,110.5,37.5,110.5,37.5z"/>
						</g>
					</g>
					<g>
						<path class="st4" d="M107.3,38.3c-1-0.6,2.6,1.6,4.6,1.6c0,0-1.2,1.7-3.2,0.9C106.7,39.9,107.3,38.3,107.3,38.3z"/>
					</g>
					<g>
						<path class="st5" d="M110.3,49.1c0,0-4.4,0.1-8.8-3.1c0,0,1.8,5.1,8.7,4.9L110.3,49.1z"/>
					</g>
				</g>
			</g>
			<g>
				<path class="st3" d="M92.9,28.3l0.8,4.9l3.1-0.1l-0.2-10.3c0,0,12.1,0.9,13.5-3.9c0,0,3.6,5.4,8,5.3c0,0,3.9-0.4,0.2-5.8
					c-5.7-8.3-26-1.6-26-1.6s-0.7,1.7-0.7,4.7C91.5,26.8,92.9,28.3,92.9,28.3z"/>
			</g>
			<g>
				<path class="st6" d="M91.3,23.2l27.1-5.4c0,0-1.9-10.8-16.5-7.7C87.6,13.3,91.3,23.2,91.3,23.2z"/>
			</g>
			<g>
				<path class="st6" d="M91.3,23.2c0.4-0.1,33.1,0.7,35.4-3.8c1.1-2.2-8.6-2.2-8.6-2.2l0.2,0.7L91.3,23.2z"/>
				<path class="st7" d="M91.3,23.2c0.4-0.1,33.1,0.7,35.4-3.8c1.1-2.2-8.6-2.2-8.6-2.2l0.2,0.7L91.3,23.2z"/>
			</g>
			<g>
				<g>
					<path class="st2" d="M94.1,27.3c-0.1-0.1-5.1-0.7-4.6,5.1c0.5,5.8,6.2,3.4,6.2,3.3C95.7,35.6,94.1,27.3,94.1,27.3z"/>
				</g>
				<g>
					<g>
						<path class="st5" d="M93.7,33.9c0,0-0.1,0.1-0.3,0.2c-0.2,0.1-0.4,0.2-0.8,0.1c-0.6-0.2-1.2-1.1-1.3-2.2c-0.1-0.5,0-1,0.2-1.5
							c0.1-0.4,0.4-0.8,0.7-0.8c0.3-0.1,0.5,0.1,0.6,0.2c0.1,0.2,0.1,0.3,0.1,0.3c0,0,0.1-0.1,0.1-0.3c0-0.1-0.1-0.2-0.3-0.3
							c-0.1-0.1-0.4-0.1-0.6-0.1c-0.4,0.1-0.8,0.5-1,1C91,30.8,90.9,31.4,91,32c0.1,1.2,0.8,2.2,1.7,2.4c0.4,0.1,0.8-0.1,0.9-0.2
							C93.7,34,93.8,33.9,93.7,33.9z"/>
					</g>
				</g>
			</g>
		</g>
		<g>
			<path class="st8" d="M101.4,187.3L74,189.6"/>
			<path class="st9" d="M130.9,136.2l-2.3-34l-0.9-9.8l0,0c5.2,7.3,15,18.7,25.5,18.5c17.1-0.3,19.5-53.2,19.5-53.2l-13.2-1.9
				c0,0-5.1,32.5-8.7,32.7c-4.1,0.2-16.7-17.7-16.7-17.7l0,0c-8.1-12.5-18.8-14.5-22.7-14.8l0-1.5l-19.1-1.6c0,0,0,1.6,0,3.1l-8.5,0
				c0,0-15.2-0.7-17.4,19.7l10.9,8.6l4.5,16.6c1.4,5.1-0.7,11.6-3,22.9c-0.9-0.2-1.4-0.3-1.4-0.3L76.8,135c-0.1,0.5-0.2,1.1-0.2,1.6
				l0.2,0L74,189.6l27.3-2.2c0.7-13.7,1.6-25.2,2.5-25.2c0.9,0,1.8,9.9,2.5,24.8l26.9-2.2C131.9,157.2,130.9,136.2,130.9,136.2z"/>
			<path class="st8" d="M133.3,184.7l-26.9,2.2"/>
			<g>
				<g>
					<path class="st3" d="M102.9,161.4c-0.1-0.1,0.8-1,1.6-3c0.8-1.9,1.3-4.8,1.3-7.9c0-3.1,0-5.9,0-8.2c0-2.1,0.1-3.4,0.1-3.4
						c0.1,0,0.2,1.3,0.2,3.4c0.1,2.1,0.2,5,0.2,8.2c0,1.6-0.2,3.1-0.4,4.5c-0.2,1.4-0.6,2.6-1.1,3.6c-0.4,1-0.9,1.7-1.3,2.1
						C103.1,161.2,102.9,161.5,102.9,161.4z"/>
				</g>
			</g>
			<g>
				<g>
					<path class="st3" d="M87.2,146.9c0,0,0.1,0.3,0.1,0.9c0.1,0.6,0.1,1.5,0.1,2.6c0,2.2-0.1,5.3-1.7,8.4c-0.8,1.5-1.9,2.7-3.2,3.5
						c-1.3,0.8-2.6,1.1-3.7,1.2c-1.1,0-2-0.2-2.6-0.4c-0.6-0.2-0.8-0.5-0.8-0.5c0-0.1,1.2,0.7,3.4,0.6c1.1-0.1,2.3-0.4,3.5-1.2
						c1.2-0.8,2.2-2,3-3.4c1.5-2.9,1.7-6,1.8-8.1C87.1,148.3,87.1,146.9,87.2,146.9z"/>
				</g>
			</g>
			<g>
				<g>
					<path class="st3" d="M132.8,162.8c0,0-0.2,0.3-0.7,0.6c-0.5,0.3-1.3,0.6-2.4,0.6c-1.1,0-2.3-0.4-3.4-1.3c-1.1-0.8-2.1-2-3-3.3
						c-1.8-2.6-2.5-5.5-2.8-7.5c-0.1-1-0.1-1.9-0.1-2.4c0-0.6,0.1-0.9,0.1-0.9c0.1,0,0,1.3,0.3,3.3c0.3,2,1.1,4.7,2.8,7.3
						c0.9,1.3,1.8,2.4,2.9,3.2c1,0.8,2.2,1.2,3.2,1.3c1,0.1,1.8-0.2,2.3-0.4C132.6,163,132.8,162.8,132.8,162.8z"/>
				</g>
			</g>
			<g>
				<g>
					<path class="st3" d="M104.6,53.9c0.1,0,0.1,1,0,2.7c-0.1,1.7-0.1,4-0.7,6.7l-0.1,0.3l-0.3-0.2c-0.6-0.3-1.3-0.7-1.9-1.1
						c-2.8-1.6-5.1-3.3-6.9-4.5C93.1,56.7,92,56,92,56c0-0.1,1.2,0.5,3,1.6c1.8,1.1,4.2,2.7,6.9,4.3c0.7,0.4,1.3,0.7,1.9,1.1
						l-0.4,0.2c0.6-2.6,0.7-4.9,0.8-6.6C104.5,54.9,104.6,53.9,104.6,53.9z"/>
				</g>
			</g>
			<g>
				<g>
					<path class="st3" d="M111.4,56.1c0.1,0-0.2,1-0.5,2.5c-0.2,0.8-0.4,1.7-0.7,2.7c-0.2,0.5-0.4,1-0.6,1.5
						c-0.1,0.2-0.2,0.3-0.4,0.4c-0.2,0.2-0.6,0.1-0.7-0.1c-0.3-0.3-0.3-0.6-0.4-0.9c-0.9-2.2-1.7-4.2-2.3-5.7
						c-0.6-1.5-0.9-2.4-0.8-2.4c0.1,0,0.5,0.8,1.2,2.3c0.7,1.4,1.5,3.4,2.5,5.6c0.1,0.3,0.2,0.6,0.3,0.7c0,0,0,0,0.1,0
						c0.1,0,0.1-0.1,0.2-0.2c0.2-0.5,0.4-1,0.6-1.5c0.3-1,0.6-1.9,0.8-2.6C111,57,111.4,56.1,111.4,56.1z"/>
				</g>
			</g>
			<g>
				<g>
					<path class="st3" d="M107.8,124.5c0,0,0-0.2-0.1-0.7c0-0.5-0.1-1.2-0.1-2.1c-0.1-1.8-0.2-4.4-0.4-7.6
						c-0.3-6.4-0.7-15.2-1.1-24.9c-0.4-9.7-0.7-18.5-1-24.9c-0.1-3.1-0.2-5.7-0.2-7.6c0-0.9,0-1.5,0-2.1c0-0.5,0-0.7,0-0.7
						c0,0,0,0.2,0.1,0.7c0,0.5,0.1,1.2,0.1,2.1c0.1,1.8,0.2,4.4,0.4,7.6c0.3,6.4,0.7,15.2,1.1,24.9c0.4,9.7,0.7,18.5,1,24.9
						c0.1,3.1,0.2,5.7,0.2,7.6c0,0.9,0,1.5,0,2.1C107.9,124.2,107.9,124.5,107.8,124.5z"/>
				</g>
			</g>
			<g>
				<g>
					<path class="st3" d="M128.8,105.7c-0.1,0-0.7-6.9-1.3-15.5c-0.6-8.6-0.9-15.5-0.8-15.6c0.1,0,0.7,6.9,1.3,15.5
						C128.5,98.7,128.9,105.6,128.8,105.7z"/>
				</g>
			</g>
			<g>
				<g>
					<path class="st3" d="M172.4,64.3c0,0.1-3.1-0.4-6.9-1.3c-3.8-0.9-6.8-1.7-6.8-1.8c0-0.1,3.1,0.4,6.9,1.3
						C169.4,63.4,172.4,64.2,172.4,64.3z"/>
				</g>
			</g>
			<g>
				<path class="st3" d="M161.5,58.2c0.5,0,0.9,0.4,1,0.9c0,0.5-0.4,0.9-0.9,1c-0.5,0-0.9-0.4-1-0.9C160.5,58.6,161,58.2,161.5,58.2
					z"/>
			</g>
		</g>
	</g>
	<g>
		<path class="st10" d="M79.7,131.6L14.5,64.7c-2-1.3-4.5,0.9-3.4,3.1l90.5,180.9L192,67.8c1.1-2.2-1.4-4.4-3.4-3.1L84.2,132.1
			C82.8,133.1,80.9,132.8,79.7,131.6z"/>
	</g>
	<g>
		<g>
			<g>
				<polygon class="st11" points="169.5,87.3 168.1,140.7 84.3,140.3 84.6,86.2 				"/>
			</g>
		</g>
		<g>
			<g>
				<path class="st3" d="M119.7,140.4c-0.1,0,0-11.9,0.4-26.6c0.4-14.7,0.8-26.6,0.9-26.6c0.1,0,0,11.9-0.4,26.6
					C120.3,128.5,119.8,140.4,119.7,140.4z"/>
			</g>
		</g>
		<g>
			<g>
				<path class="st3" d="M84.3,140.3c0,0,0.1-0.2,0.3-0.6c0.3-0.4,0.6-0.9,1-1.6c1-1.4,2.3-3.3,3.9-5.7c3.4-4.8,8-11.4,13.1-18.7
					c5.1-7.3,9.7-13.9,13-18.7c1.6-2.4,3-4.4,3.9-5.7c0.4-0.6,0.8-1.2,1-1.6c0.2-0.4,0.4-0.5,0.4-0.5c0,0-0.1,0.2-0.3,0.6
					c-0.2,0.4-0.6,1-0.9,1.6c-0.9,1.4-2.1,3.4-3.7,5.8c-3.2,4.9-7.8,11.5-12.9,18.8c-5.1,7.3-9.8,13.9-13.2,18.6
					c-1.7,2.3-3.1,4.2-4,5.6c-0.5,0.6-0.8,1.1-1.1,1.5C84.5,140.1,84.3,140.3,84.3,140.3z"/>
			</g>
		</g>
		<g>
			<g>
				<path class="st3" d="M118.9,140.8c-0.1,0.1-7.8-12-17.2-26.9c-9.4-14.9-16.9-27.1-16.8-27.2c0.1-0.1,7.8,12,17.2,26.9
					C111.5,128.6,119,140.8,118.9,140.8z"/>
			</g>
		</g>
		<g>
			<polygon class="st3" points="152.5,86.9 152,107.5 149.1,105.2 145.3,107.4 145.9,86.7 			"/>
		</g>
	</g>
	<g>
		<g>
			<g>
				<g>
					<g>
						<g>
							<path class="st2" d="M82.9,81.5c0,0-4.1,28.3-2.1,30c10.6,8.9,25.4,13.6,30.7,15.1c0.8-0.2,1.7-0.4,2.7-0.8
								c0.9-0.3,1.7-0.7,2.5-1.3c0.9-0.7,2.1-1.7,2.6-2.4c0.6-0.9,2-0.6,2,0.4c0,1-1.5,3.5-4.5,5.3c0,0,6.8,10.9,8.9,11.9
								c2.2,1,8.3,3.8,7.3,4.3c-1,0.5-8.6-1.7-8.6-1.7l-15.3-4.1c0,0-50.5-7.9-47.1-31.1c2.1-14.2,4.3-27,5.1-30.2L82.9,81.5z"/>
						</g>
					</g>
				</g>
			</g>
		</g>
		<g>
			<path class="st9" d="M66.4,75.7l-4.5,30.9c-1,9.5,5.3,17.1,13.9,21.3c13.1,6.5,32.5,11.1,32.3,11.1c-0.3,0,1.3-13.8,1.3-13.8
				s-27.2-11.8-28-16.8c-0.9-5.1,3.5-26.2,3.5-26.2L66.4,75.7z"/>
		</g>
		<g>
			<g>
				<path class="st3" d="M108,139c0,0,0-0.1,0-0.2c0-0.2,0-0.4,0-0.7c0.1-0.7,0.1-1.6,0.2-2.7c0.2-2.4,0.5-5.9,0.9-10.1l0.1,0.2
					c-3.9-1.9-8.5-4.1-13.7-6.6c-1.3-0.6-2.6-1.3-4-1.9c-1.3-0.7-2.7-1.5-4-2.3c-1.3-0.9-2.6-1.8-3.9-2.8c-0.6-0.5-1.2-1.1-1.8-1.6
					c-0.3-0.3-0.6-0.6-0.8-1c-0.1-0.2-0.2-0.4-0.2-0.6c-0.1-0.2-0.1-0.4-0.1-0.6c-0.4-3.4,0.5-6.6,0.9-9.6c0.5-3.1,1-6,1.5-8.8
					c1-5.6,1.9-10.7,2.6-14.9c0.4-2.1,0.7-4,0.7-5.7c0-1.7-0.4-3.1-0.9-4.2c-0.5-1.1-1.1-1.8-1.6-2.2c-0.5-0.4-0.8-0.6-0.7-0.6
					c0,0,0.3,0.1,0.8,0.5c0.5,0.4,1.2,1.1,1.7,2.2c0.6,1.1,1,2.6,1,4.3c0.1,1.7-0.3,3.7-0.6,5.8c-0.7,4.3-1.6,9.3-2.5,15
					c-0.5,2.8-1,5.8-1.5,8.8c-0.1,0.8-0.3,1.5-0.4,2.3c-0.2,0.8-0.3,1.5-0.4,2.3c-0.2,1.6-0.4,3.2-0.1,4.8c0,0.2,0.1,0.4,0.1,0.6
					c0,0.2,0.1,0.4,0.2,0.5c0.1,0.4,0.4,0.6,0.7,0.9c0.6,0.6,1.2,1.1,1.8,1.6c1.2,1,2.5,2,3.8,2.8c1.3,0.8,2.6,1.6,3.9,2.3
					c1.3,0.7,2.7,1.3,3.9,1.9c5.1,2.5,9.7,4.8,13.6,6.7l0.1,0.1l0,0.1c-0.4,4.2-0.8,7.7-1,10.1c-0.1,1.2-0.2,2.1-0.3,2.7
					c0,0.3-0.1,0.5-0.1,0.7C108.1,138.9,108,139,108,139z"/>
			</g>
		</g>
		<g>
			<g>
				<path class="st3" d="M105.5,123.3c0.1,0,0,0.8-0.2,2.1c-0.2,1.3-0.4,3.1-0.8,5c-0.4,2-0.8,3.7-1.1,5c-0.3,1.3-0.6,2-0.7,2
					c-0.1,0,0.5-3.2,1.3-7.1C104.8,126.4,105.4,123.3,105.5,123.3z"/>
			</g>
		</g>
		<g>
			<g>
				<path class="st3" d="M108,139c0,0-0.2,0-0.5-0.1c-0.4-0.1-0.8-0.2-1.3-0.3c-1.2-0.3-2.9-0.8-4.9-1.3c-4.1-1.1-9.9-2.6-16.1-4.8
					c-3.1-1.1-5.9-2.4-8.5-3.8c-2.5-1.4-4.7-2.8-6.4-4.1c-1.7-1.3-3-2.5-3.8-3.4c-0.4-0.4-0.7-0.8-0.9-1c-0.2-0.2-0.3-0.4-0.3-0.4
					c0,0,0.5,0.5,1.4,1.3c0.9,0.8,2.2,2,3.9,3.2c1.7,1.3,3.9,2.6,6.4,4c2.5,1.3,5.3,2.6,8.4,3.7c6.1,2.3,11.9,3.8,16,5
					c2,0.6,3.6,1.1,4.9,1.4c0.5,0.2,1,0.3,1.3,0.4C107.9,138.9,108,139,108,139z"/>
			</g>
		</g>
		<g>
			<path class="st3" d="M108.4,126.6c0,0.5-0.4,0.9-0.9,0.9c-0.5,0-0.9-0.4-0.9-0.9c0-0.5,0.4-0.9,0.9-0.9
				C108,125.7,108.4,126.1,108.4,126.6z"/>
		</g>
	</g>
	<g>
		<path class="st4" d="M120.4,70.8h-0.7l0,0c-0.1,0.2,0,0.4,0.2,0.4h0.3c0.2,0,0.3,0.1,0.3,0.3v2.9c0,0.1-0.1,0.1-0.1,0.1h-2.4
			c-0.1,0-0.2,0.1-0.2,0.1l-0.1,0.2h2.7c0.3,0,0.5-0.2,0.5-0.5v-3C121,71,120.7,70.8,120.4,70.8z M117.2,74.6c0-0.1-0.1-0.1-0.2-0.1
			h-2.3c-0.2,0-0.3-0.1-0.3-0.3v-2.9c0-0.1,0.1-0.1,0.1-0.1h0.5c0.2,0,0.3-0.2,0.2-0.4l0,0h-0.8c-0.3,0-0.5,0.2-0.5,0.5v2.9
			c0,0.4,0.3,0.7,0.7,0.7h2.7L117.2,74.6z"/>
		<path class="st4" d="M116.9,71.2l-1.9-2c-0.1,0-0.1,0-0.1,0.1l2.7,5.4l2.7-5.4c0-0.1,0-0.1-0.1-0.1l-3.1,2
			C116.9,71.3,116.9,71.2,116.9,71.2z"/>
	</g>
	<g>
		<path class="st4" d="M114.1,14.6l-0.5,0.1l0,0c0,0.1,0.1,0.3,0.2,0.2l0.2-0.1c0.1,0,0.2,0,0.3,0.2l0.5,2c0,0.1,0,0.1-0.1,0.1
			l-1.7,0.4c-0.1,0-0.1,0.1-0.1,0.1l0,0.2l1.9-0.5c0.2-0.1,0.3-0.3,0.3-0.5l-0.5-2.1C114.5,14.7,114.3,14.6,114.1,14.6z M112.5,17.9
			c0-0.1-0.1-0.1-0.2-0.1l-1.6,0.4c-0.1,0-0.2,0-0.3-0.2l-0.5-2c0-0.1,0-0.1,0.1-0.1l0.4-0.1c0.1,0,0.2-0.2,0.1-0.3l0,0l-0.5,0.1
			c-0.2,0-0.3,0.3-0.3,0.5l0.5,2c0.1,0.3,0.3,0.4,0.6,0.4l1.9-0.5L112.5,17.9z"/>
		<path class="st4" d="M111.7,15.5l-1.7-1c0,0-0.1,0-0.1,0.1l2.8,3.3l0.9-4.2c0-0.1-0.1-0.1-0.1,0L111.7,15.5
			C111.7,15.6,111.7,15.6,111.7,15.5z"/>
	</g>
	<g>
		<path class="st3" d="M128.2,134.6l-1.9-2c-0.1,0-0.1,0-0.1,0.1l2.7,5.4l2.7-5.4c0-0.1,0-0.1-0.1-0.1l-3.1,2
			C128.3,134.6,128.2,134.6,128.2,134.6z"/>
	</g>
</g>
<g id="Character_2">
</g>
</svg>
