<?xml version="1.0" encoding="utf-8"?>
<!-- Generator: Adobe Illustrator 26.0.0, SVG Export Plug-In . SVG Version: 6.00 Build 0)  -->
<svg version="1.1" id="Layer_1" xmlns="http://www.w3.org/2000/svg" xmlns:xlink="http://www.w3.org/1999/xlink" x="0px" y="0px"
	 viewBox="0 0 821.2 800" style="enable-background:new 0 0 821.2 800;" xml:space="preserve">
<style type="text/css">
	.st0{fill:#FFFFFF;}
	.st1{fill:#1877F2;}
</style>
<path class="st0" d="M795.6,400.7c0-212.6-172.4-385-385-385c-212.6,0-385,172.4-385,385c0,192.2,140.8,351.4,324.8,380.3V512h-97.8
	V400.7h97.8v-84.8c0-96.5,57.5-149.8,145.4-149.8c42.1,0,86.2,7.5,86.2,7.5v94.7h-48.5c-47.8,0-62.7,29.7-62.7,60.1v72.2h106.8
	L560.5,512h-89.7v269C654.8,752.2,795.6,592.9,795.6,400.7"/>
<path class="st1" d="M143.9,133.3"/>
</svg>
