<?xml version="1.0" encoding="utf-8"?>
<!-- Generator: Adobe Illustrator 25.0.1, SVG Export Plug-In . SVG Version: 6.00 Build 0)  -->
<svg version="1.1" xmlns="http://www.w3.org/2000/svg" xmlns:xlink="http://www.w3.org/1999/xlink" x="0px" y="0px"
	 viewBox="0 0 850 850" style="enable-background:new 0 0 850 850;" xml:space="preserve">
<style type="text/css">
	.st0{fill:#DA244B;}
	.st1{fill:#FFFFFF;}
	.st2{fill:none;stroke:#FFFFFF;stroke-width:18.206;stroke-miterlimit:10;}
	.st3{fill:none;stroke:#FFFFFF;stroke-width:18.206;stroke-linecap:round;stroke-miterlimit:10;}
</style>
<g id="Layer_2">
	<circle class="st0" cx="425" cy="425" r="405.3"/>
</g>
<g id="Layer_1">
	<path class="st1" d="M583.4,440.8v24.5c0,2.1,1.7,3.8,3.8,3.8h46.6v27.2h-46.6c-2.1,0-3.8,1.7-3.8,3.8v24.5c0,2.1,1.7,3.8,3.8,3.8
		h46.6v27.1h-46.6c-2.1,0-3.9,1.8-3.8,3.9V584c0,2.1,1.7,3.8,3.8,3.8h46.6v37.1H546V343.4l87.8,72.2v21.3h-46.6
		C585.1,436.9,583.4,438.7,583.4,440.8L583.4,440.8z M286.9,404.4h-70.7V437H246c2.1,0,3.9,1.7,3.9,3.8c0,0,0,0,0,0.1v24.5
		c0,2.1-1.8,3.9-3.9,3.8h-29.8v27.2H246c2.1,0,3.9,1.7,3.9,3.8c0,0,0,0,0,0.1v24.5c0,2.1-1.8,3.9-3.9,3.8h-29.8v27H246
		c2.2,0,3.9,1.8,3.9,3.9V584c0,2.1-1.8,3.9-3.9,3.8h-29.8v37.1h70.7V404.4z M519.9,625H313V238.1c0-7.2,5.8-13.1,13.1-13.1H507
		c7.2,0,13.1,5.8,13.1,13.1V625H519.9z M397.7,510.2c0-4.3-3.4-7.7-7.7-7.7c0,0,0,0-0.1,0h-30.2c-4.3,0-7.7,3.4-7.8,7.6
		c0,0,0,0,0,0.1v30.4c0,4.3,3.5,7.8,7.8,7.8l0,0h30.3c4.3,0,7.8-3.5,7.8-7.8l0,0L397.7,510.2z M397.7,434.8c0-4.3-3.5-7.8-7.8-7.8
		h-30.2c-4.3,0-7.8,3.5-7.8,7.8v30.3c0,4.3,3.5,7.8,7.8,7.8l0,0h30.3c4.3,0,7.8-3.5,7.8-7.8L397.7,434.8z M397.7,359.3
		c0-4.3-3.5-7.8-7.8-7.8h-30.2c-4.3,0-7.8,3.5-7.8,7.8v30.4c0,4.3,3.5,7.8,7.8,7.8l0,0h30.3c4.3,0,7.8-3.5,7.8-7.8L397.7,359.3z
		 M397.7,283.8c0-4.3-3.4-7.7-7.7-7.7c0,0,0,0-0.1,0h-30.2c-4.3,0-7.7,3.4-7.8,7.6c0,0,0,0,0,0.1v30.3c0,4.3,3.4,7.8,7.7,7.8
		c0,0,0,0,0.1,0h30.3c4.3-0.1,7.7-3.6,7.6-7.8V283.8z M481.1,510.2c0-4.3-3.5-7.7-7.8-7.7h-30.4c-4.3,0-7.7,3.4-7.8,7.6
		c0,0,0,0,0,0.1v30.4c0,4.3,3.5,7.8,7.8,7.8l0,0h30.4c4.3,0,7.8-3.5,7.8-7.8l0,0V510.2z M481.1,434.8c0-4.3-3.5-7.8-7.8-7.8h-30.4
		c-4.3,0-7.8,3.5-7.8,7.8v30.3c0,4.3,3.5,7.8,7.8,7.8h30.4c4.3,0,7.8-3.5,7.8-7.8V434.8z M481.1,359.3c0-4.3-3.5-7.8-7.8-7.8h-30.4
		c-4.3,0-7.8,3.5-7.8,7.8v30.4c0,4.3,3.5,7.8,7.8,7.8h30.4c4.3,0,7.7-3.5,7.8-7.8V359.3z M481.1,283.8c0-4.3-3.5-7.7-7.8-7.7h-30.4
		c-4.3,0-7.7,3.4-7.8,7.6c0,0,0,0,0,0.1v30.3c0,4.3,3.5,7.8,7.8,7.8h30.4c4.3,0,7.8-3.5,7.8-7.8V283.8z"/>
</g>
</svg>
