<?xml version="1.0" encoding="utf-8"?>
<!-- Generator: Adobe Illustrator 25.0.1, SVG Export Plug-In . SVG Version: 6.00 Build 0)  -->
<svg version="1.1" xmlns="http://www.w3.org/2000/svg" xmlns:xlink="http://www.w3.org/1999/xlink" x="0px" y="0px"
	 viewBox="0 0 850 850" style="enable-background:new 0 0 850 850;" xml:space="preserve">
<style type="text/css">
	.st0{fill:#DA244B;}
	.st1{fill:#FFFFFF;}
	.st2{fill:none;stroke:#FFFFFF;stroke-width:18.206;stroke-miterlimit:10;}
	.st3{fill:none;stroke:#FFFFFF;stroke-width:18.206;stroke-linecap:round;stroke-miterlimit:10;}
</style>
<g id="Layer_2">
	<circle class="st0" cx="425" cy="425" r="405.3"/>
</g>
<g id="Layer_1">
	<path class="st1" d="M637.5,450H575v75l-25-16.6L525,525v-75h-62.5c-6.9,0-12.5,5.6-12.5,12.5v150c0,6.9,5.6,12.5,12.5,12.5h175
		c6.9,0,12.5-5.6,12.5-12.5v-150C650,455.6,644.4,450,637.5,450z M337.5,400h175c6.9,0,12.5-5.6,12.5-12.5v-150
		c0-6.9-5.6-12.5-12.5-12.5H450v75l-25-16.6L400,300v-75h-62.5c-6.9,0-12.5,5.6-12.5,12.5v150C325,394.4,330.6,400,337.5,400z
		 M387.5,450H325v75l-25-16.6L275,525v-75h-62.5c-6.9,0-12.5,5.6-12.5,12.5v150c0,6.9,5.6,12.5,12.5,12.5h175
		c6.9,0,12.5-5.6,12.5-12.5v-150C400,455.6,394.4,450,387.5,450z"/>
</g>
</svg>
