<?xml version="1.0" encoding="utf-8"?>
<!-- Generator: Adobe Illustrator 25.0.1, SVG Export Plug-In . SVG Version: 6.00 Build 0)  -->
<svg version="1.1" xmlns="http://www.w3.org/2000/svg" xmlns:xlink="http://www.w3.org/1999/xlink" x="0px" y="0px"
	 viewBox="0 0 850 850" style="enable-background:new 0 0 850 850;" xml:space="preserve">
<style type="text/css">
	.st0{fill:#DA244B;}
	.st1{fill:#FFFFFF;}
	.st2{fill:none;stroke:#FFFFFF;stroke-width:18.206;stroke-miterlimit:10;}
	.st3{fill:none;stroke:#FFFFFF;stroke-width:18.206;stroke-linecap:round;stroke-miterlimit:10;}
</style>
<g id="Layer_2">
	<circle class="st0" cx="425" cy="425" r="405.3"/>
</g>
<g id="Layer_1">
	<g>
		<path class="st2" d="M556.3,270h-53.9v10.4c0,4.3-3.5,7.8-7.8,7.8H355.4c-4.3,0-7.8-3.5-7.8-7.8V270h-53.9
			c-10.3-0.1-18.8,8.1-18.9,18.4c0,0,0,0,0,0v318.1c0.1,10.3,8.6,18.6,18.9,18.4c0,0,0,0,0,0h262.6c10.3,0.1,18.8-8.1,18.9-18.4
			c0,0,0,0,0,0V288.4C575.1,278.1,566.6,269.9,556.3,270C556.3,270,556.3,270,556.3,270z"/>
		<path class="st3" d="M493.1,251.8h-45.4v-3.4c0.2-10.6-6.9-19.9-17.1-22.6c-12.1-3.2-24.5,4.1-27.7,16.2c-0.5,1.8-0.7,3.6-0.7,5.4
			v4.5h-45.4c-5.1,0-9.2,4.1-9.2,9.2c0,0,0,0,0,0v17.9c0,5.1,4.1,9.2,9.2,9.2l0,0h136.3c5.1,0,9.2-4.1,9.2-9.2V261
			C502.4,255.9,498.2,251.8,493.1,251.8z"/>
		<path class="st3" d="M356.7,351.9h163.9"/>
		<polyline class="st3" points="302.1,342.8 311.2,351.9 338.5,315.5 		"/>
		<path class="st3" d="M356.7,424.7h163.9"/>
		<polyline class="st3" points="302.1,415.6 311.2,424.7 338.5,388.3 		"/>
		<path class="st3" d="M356.7,497.6h163.9"/>
		<polyline class="st3" points="302.1,488.5 311.2,497.6 338.5,461.1 		"/>
	</g>
</g>
</svg>
