<?xml version="1.0" encoding="utf-8"?>
<!-- Generator: Adobe Illustrator 25.0.1, SVG Export Plug-In . SVG Version: 6.00 Build 0)  -->
<svg version="1.1" id="iconos" xmlns="http://www.w3.org/2000/svg" xmlns:xlink="http://www.w3.org/1999/xlink" x="0px" y="0px"
	 viewBox="0 0 2122 2122" style="enable-background:new 0 0 2122 2122;" xml:space="preserve">
<style type="text/css">
	.st0{fill:#DB264C;}
	.st1{fill:#FFFFFF;}
</style>
<circle class="st0" cx="1061" cy="1061" r="997"/>
<g>
	<path class="st1" d="M935.5,907.8c-22.3,29.7-43.4,57.8-65.2,87c45.3,29.9,93.1,50.1,144.1,63.3c16,4.2,32.6,6.8,47.7,13.2
		c61.2,26.1,92.8,73.6,97.4,139.5c0.3,4.9,0,9.8,0,16.4c38.7,3.3,76.5,5.6,114.2,9.9c152.1,17.4,304.2,1.7,456.4,1.4
		c22.1,0,44.1-1.3,66.2-1.4c45.8-0.1,80.5,32.4,81.4,76c0.9,42.3-32.4,76.7-77.4,78.5c-41.9,1.7-83.8,2.2-125.8,3.1
		c-94.9,2.1-189.8,6.1-284.7,5.5c-56.1-0.4-112.2-8.2-168.3-12.6c-75.9-5.9-151.8-11.6-227.6-17.8c-56.7-4.6-110.6-21.2-161.7-44.9
		c-48.4-22.4-96.2-47.1-141.2-75.5c-91.6-57.9-99.8-177.3-19.8-250.3c5.6-5.1,10.6-11.2,15.2-17.4c56.1-74.5,111.9-149.1,168-223.6
		c31.3-41.6,75.7-48.2,116.9-17.2c50.7,38.1,101.2,76.5,151.5,115.1c37.5,28.8,44.9,75.6,17.9,110.9
		c-26.8,35.1-73.9,40.2-111.7,11.8C998.3,955.7,967.7,932.2,935.5,907.8z"/>
	<path class="st1" d="M464.8,1178.9c43-32.2,84.7-63.3,129.3-96.7c-9.1,61.6,5.8,112.8,44.8,158.1c-4.4,3.8-8.2,7.5-12.4,10.6
		c-48.5,36.5-97,72.9-145.6,109.2c-50.8,38-107.1,21.6-128.7-37.6c-34.3-93.6-68.5-187.2-102.4-281c-12.5-34.4-3.1-68.1,23.6-89.6
		c25-20.1,61.9-24,87.9-4.8c13.8,10.2,26.6,25.7,32.9,41.6c22.8,56.7,42.6,114.6,63.6,172C459.8,1166.4,462.1,1171.9,464.8,1178.9z"
		/>
	<path class="st1" d="M1321.2,1060.3c-24.7,19.3-47.7,37.3-70.7,55.3c-23,18-45.9,36-70.3,55c-16-53.2-47.5-92.5-97.5-118.7
		c5.5-4.7,9.7-8.7,14.2-12.2c60.3-47.3,120.6-94.6,181-141.7c39.4-30.8,81.3-27.4,114.4,9.7c50.3,56.4,100.3,113,150.2,169.7
		c31.1,35.4,29.5,83.3-3.2,112.3c-33.5,29.8-81.1,25.3-113.1-10.8C1391.6,1139.7,1356.9,1100.6,1321.2,1060.3z"/>
	<path class="st1" d="M456.5,981.3c-42.8-47.7-54-117-27.2-175.2c0.1-0.2,0.2-0.4,0.3-0.6c37-79.3,129.7-94.8,192.3-33.6
		c69.8,68.3,60.5,188.4-18.9,245.7c-21.1,15.2-44,19.4-69,13C504.8,1023.1,477.8,1005,456.5,981.3z"/>
</g>
</svg>
