<?xml version="1.0" encoding="utf-8"?>
<!-- Generator: Adobe Illustrator 25.0.1, SVG Export Plug-In . SVG Version: 6.00 Build 0)  -->
<svg version="1.1" id="Layer_1" xmlns="http://www.w3.org/2000/svg" xmlns:xlink="http://www.w3.org/1999/xlink" x="0px" y="0px"
	 viewBox="0 0 30.8 30.9" style="enable-background:new 0 0 30.8 30.9;" xml:space="preserve">
<style type="text/css">
	.st0{fill:#DA244B;}
</style>
<g id="icons">
	<path id="user2" class="st0" d="M15.4,0C6.9,0,0,6.9,0,15.4s6.9,15.4,15.4,15.4s15.4-6.9,15.4-15.4S23.9,0,15.4,0z M15.4,5.1
		c2.8,0,5.1,2.8,5.1,6.4S18.2,18,15.4,18s-5.1-2.8-5.1-6.4S12.6,5.1,15.4,5.1z M23.9,25.1c-2.2,1.9-5.3,3.2-8.5,3.2S9.1,27,6.9,25.1
		c-0.5-0.5-0.6-1.3-0.1-1.8c1.4-1.7,3.3-2.8,5.4-3.5c1,0.5,2.1,0.8,3.2,0.8s2.2-0.3,3.2-0.8c2.2,0.6,4,1.8,5.4,3.5
		C24.5,23.8,24.5,24.6,23.9,25.1z"/>
</g>
</svg>
