<?xml version="1.0" encoding="utf-8"?>
<!-- Generator: Adobe Illustrator 25.0.1, SVG Export Plug-In . SVG Version: 6.00 Build 0)  -->
<svg version="1.1" xmlns="http://www.w3.org/2000/svg" xmlns:xlink="http://www.w3.org/1999/xlink" x="0px" y="0px"
	 viewBox="0 0 850 850" style="enable-background:new 0 0 850 850;" xml:space="preserve">
<style type="text/css">
	.st0{fill:#DA244B;}
	.st1{fill:#FFFFFF;}
	.st2{fill:none;stroke:#FFFFFF;stroke-width:18.206;stroke-miterlimit:10;}
	.st3{fill:none;stroke:#FFFFFF;stroke-width:18.206;stroke-linecap:round;stroke-miterlimit:10;}
</style>
<g id="Layer_2">
	<circle class="st0" cx="425" cy="425" r="405.3"/>
</g>
<g id="Layer_1">
	<g>
		<path class="st1" d="M700,375l-50-100c-5-12.5-17.5-25-32.5-25H525c0-15-10-25-25-25H150c-15,0-25,10-25,25v300c0,15,10,25,25,25
			h55c10,30,37.5,50,70,50s60-20,70-50h180h5c10,30,37.5,50,70,50s60-20,70-50h30c15,0,25-10,25-25V400C725,385,715,375,700,375z
			 M275,600c-27.5,0-50-22.5-50-50s22.5-50,50-50s50,22.5,50,50S302.5,600,275,600z M500,525H345c-10-30-37.5-50-70-50s-60,20-70,50
			h-30v-75h325V525z M500,425H175V275h325V425z M525,300h87.5l37.5,75H525V300z M600,600c-27.5,0-50-22.5-50-50s22.5-50,50-50
			s50,22.5,50,50S627.5,600,600,600z M675,525h-5c-10-30-37.5-50-70-50s-60,20-70,50h-5V400h150V525z"/>
		<circle class="st1" cx="275" cy="550" r="25"/>
		<circle class="st1" cx="600" cy="550" r="25"/>
	</g>
</g>
</svg>
